<svg width="1440" height="390" viewBox="0 0 1440 390" fill="none" xmlns="http://www.w3.org/2000/svg">
<path d="M718.973 217.61C719.057 217.61 719.142 217.601 719.234 217.601C719.099 217.576 719.032 217.584 718.973 217.61Z" fill="#002C15"/>
<path d="M-0.00150032 246.587V449.413H1440V279.082C1439.52 278.23 1439.48 276.89 1439.75 275.751C1439.82 275.439 1439.91 275.17 1440 274.908V250.651C1438 251.081 1438.84 249.681 1440 247.515V232.102C1439.11 236.731 1438.64 242.616 1438.62 242.675C1436.27 248.358 1435.8 235.812 1435.78 235.744C1432.12 226.908 1432.63 238.299 1432.58 238.367C1429.86 241.95 1432.53 243.24 1433.14 246.958C1434.01 252.261 1428.16 247.228 1431.26 251.342C1435.89 257.472 1423.68 250.373 1426.69 253.231C1434.79 260.904 1429.43 259.858 1428.18 260.988C1426.76 260.364 1424.19 260.946 1426.2 263.298C1430.75 268.61 1422.76 266.511 1426.8 268.627C1432.62 271.687 1430.83 277.362 1430.14 277.337C1419.61 276.923 1427.83 280.566 1426.41 282.134C1421.33 287.775 1419.19 275.878 1418.15 277.092C1414.76 281.063 1412 281.198 1417.09 283.955C1429.04 290.405 1413.17 289.275 1418.19 290.844C1430.88 294.806 1426.46 298.626 1425.32 298.01C1417.69 293.93 1423.2 299.334 1416.25 296.054C1401.83 289.267 1423.67 301.273 1419.27 304.882C1418.62 305.405 1412.89 305.396 1416.64 307.369C1420.78 309.545 1420.31 311.399 1416.58 311.281C1412.62 311.155 1411.77 313.103 1414.09 314.705C1418.87 318.001 1417.44 320.564 1416.47 319.94C1411.86 316.998 1413.97 325.691 1411.31 322.301C1401.5 309.806 1404.08 327.79 1402.47 325.918C1395.75 318.052 1404.02 321.939 1401.24 315.194C1401.04 314.705 1411.22 306.164 1413.39 303.643C1412.78 300.203 1408.62 293.651 1408.77 297.243C1409.16 307.411 1395.98 306.762 1401.81 301.138C1405.85 297.235 1402.33 297.032 1402.22 297.108C1397.45 300.506 1398.29 295.346 1402.83 292.842C1407.03 290.515 1399.4 288.474 1397.18 291.198C1390.86 298.946 1387.23 289.124 1395.06 287.109C1404.32 284.731 1397.43 282.252 1401.12 280.65C1415.66 274.31 1403.44 278.104 1400.6 275.692C1395.02 270.954 1412.2 270.414 1412.85 269.993C1423.93 262.775 1400.68 270.541 1420.34 260.044C1434.45 252.506 1419.38 257.497 1422.34 253.155C1426.53 247.034 1413.85 256.755 1420.92 248.257C1423.05 245.685 1430.37 234.8 1422.11 243.038C1416.41 248.737 1417.63 245.247 1417.08 244.328C1415.61 241.857 1412.98 249.445 1412.74 249.673C1404.42 257.556 1406.11 245.66 1403.47 250.66C1397.83 261.376 1400.19 254.226 1396.67 254.226C1396.67 260.094 1397.05 259.133 1393.79 261.452C1390.52 263.77 1388.98 262.877 1389.56 259.378C1389.71 258.467 1379.34 261.747 1388.65 253.855C1400.85 243.51 1387.16 250.348 1387.75 247.456C1389.07 241.006 1382.33 250.111 1382.94 246.402C1384.27 238.451 1380.63 249.117 1378.85 250.44C1377.37 251.545 1365.31 252.734 1376.73 245.643C1385.57 240.146 1372.29 245.955 1375.78 242.076C1377.03 240.677 1376.41 237.203 1376.37 237.254C1376.27 236.815 1376.76 236.528 1377.08 236.545C1390.04 237.051 1378.19 235.23 1382.06 232.085C1386.07 228.822 1390.71 230.677 1395.17 230.871C1403.97 231.259 1398.66 229.826 1395.88 227.524C1394.66 226.512 1401.29 222.043 1395.41 223.966C1389.56 225.88 1394.54 218.941 1398.08 217.743C1408.33 214.278 1406.48 210.433 1401.37 212.592C1393.35 215.973 1398.77 207.263 1395.53 210.172C1385.64 219.075 1390.43 209.489 1387.81 212.246C1380.56 219.868 1382.44 216.563 1384.79 209.649C1388.09 199.877 1379.6 213.401 1379.36 212.018C1378.58 207.373 1375.37 220.34 1372.84 218.713C1367.31 215.155 1370.35 219.067 1368.51 219.438C1365.34 220.07 1368.55 214.463 1367.75 213.469C1363.9 208.671 1364.92 201.42 1368.52 202.98C1375.28 205.914 1383.82 193.343 1380.11 193.511C1374.11 193.79 1379.59 188.63 1382.4 189.599C1386.78 191.108 1391.47 185.873 1393.13 181.589C1394.67 177.601 1371.84 183.09 1371.55 183.04C1366.23 182.154 1383.06 169.676 1373.55 174.667C1366.28 178.487 1370.28 168.799 1367.33 173.293C1359.56 185.139 1364.56 171.059 1360.49 173.714C1354 177.955 1358.13 172.247 1356.41 172.357C1354.9 171.969 1355.73 167.897 1357.82 166.716C1366.56 161.801 1361.27 159.938 1364.78 158.437C1376.49 153.428 1364.02 151.498 1369.75 148.412C1378.46 143.715 1377.42 137.459 1370.35 143.328C1362.23 150.073 1366.75 146.936 1362.77 143.26C1359.7 140.41 1360.36 150.056 1360.34 150.081C1356.4 156.776 1353.42 145.849 1355.4 143.049C1364.89 129.66 1348.96 137.729 1362.11 128.944C1371.26 122.831 1359.19 123.48 1364.73 120.209C1368.35 118.076 1376.1 109.459 1369.05 113.219C1359.77 118.151 1365.53 114.678 1363.72 113.497C1362.4 114.02 1357.16 119.425 1357.29 116.389C1358.09 99.3072 1353.82 117.14 1352.79 117.941C1349.42 120.597 1353.19 109.492 1353.03 108.717C1352.31 105.201 1357.31 102.865 1359.6 97.8907C1360 97.3427 1360.43 96.82 1361.1 96.5333C1365.68 94.5435 1362.14 93.2535 1361.73 93.2703C1357.77 93.4305 1359.61 86.9974 1357.17 90.7999C1354.24 95.3529 1351.31 89.8388 1355.15 86.1627C1359.41 82.0734 1360.62 76.5003 1355.92 80.4715C1347.96 87.2166 1349.09 75.8004 1350.39 71.3571C1353.98 59.0641 1350.39 47.2685 1348.75 56.4756C1346.85 67.1582 1348.05 61.6272 1344.33 62.9088C1344.27 63.0774 1348.64 73.1024 1345.41 71.3655C1334.99 65.7333 1348.56 76.0955 1345.01 82.2505C1343.65 82.7226 1341.37 74.5695 1337.22 74.2406C1336.76 74.2069 1341.88 87.3683 1341.51 88.1187C1339.8 91.5672 1330.53 87.343 1335.44 90.9601C1346.68 99.2398 1336.24 95.6564 1339.18 98.3798C1345.9 104.602 1335.97 105.074 1335.2 100.395C1334.7 97.3258 1325.82 91.2468 1330.37 98.2955C1337.47 109.332 1325.26 100.951 1328.34 104.779C1333.73 111.482 1320.87 106.963 1328.1 111.179C1337.62 116.727 1334.34 123.843 1332.77 122.73C1324.33 116.743 1333.23 130.495 1322.82 118.995C1316.31 111.811 1320.73 122.199 1318.84 122.435C1309.05 123.632 1325.36 125.613 1322.53 130.014C1319.62 134.551 1327.23 131.566 1326.86 133.792C1326.25 137.459 1331.12 133.134 1333.43 140.014C1334.79 140.436 1327.14 140.958 1330.16 142.189C1337.96 145.351 1332.11 145.562 1332.34 146.945C1334.17 157.906 1330.64 150.267 1329.52 149.483C1320.44 143.092 1327.33 142.914 1324.48 140.065C1320.53 136.119 1320.21 140.098 1320.01 139.904C1316.75 136.557 1312.03 138.328 1314.19 140.646C1325.48 152.788 1315.63 144.71 1313.6 146.54C1307.77 151.801 1330.04 155.806 1322.74 158.327C1318.19 159.904 1322.85 164.153 1317.24 160.772C1306.68 154.407 1314.26 162.214 1314.55 162.374C1323.07 167.13 1310.8 167.939 1314.2 168.639C1320.21 169.878 1318.2 172.821 1316.56 172.728C1307.17 172.172 1311.81 176.497 1315.62 176.834C1328.06 177.913 1313.78 180.19 1321.5 182.635C1330.91 185.62 1322.39 185.046 1322.39 187.12C1323.91 187.643 1328.21 190.147 1327.15 192.626C1324.16 199.59 1321.92 187.685 1319.35 189.363C1317.15 190.796 1313.12 181.724 1313.31 186.404C1313.48 190.754 1313.25 188.52 1312.92 190.105C1310.82 190.83 1307.74 187.483 1307.29 185.721C1305.29 177.863 1302.67 185.561 1300.54 179.827C1297.3 171.084 1294.68 173.984 1295.38 175.915C1297.92 182.913 1294.16 179.001 1290.17 179.482C1284.3 180.198 1295.11 184.979 1295.15 184.979C1300.85 184.734 1300.36 188.486 1298.36 189.388C1291.25 192.592 1306.74 191.277 1301.87 194.692C1294.44 199.902 1300.31 201.622 1302.03 199.329C1305.67 194.481 1309.93 198.503 1306.54 200.147C1298.77 203.916 1309.03 202.617 1310.47 202.912C1311.97 203.216 1307.38 206.47 1318.82 206.302L1319.05 206.614C1321.48 211.099 1311.94 211.647 1315.62 212.701C1321.79 214.472 1316.93 225.559 1312.9 213.899C1306.13 194.355 1308.74 220.18 1304.83 213.57C1300.88 206.892 1298.59 214.455 1296.45 207.895C1293.24 198.073 1293.95 208.013 1291.11 203.047C1288.61 198.68 1287.29 201.513 1287.73 202.558C1290.22 208.587 1284.57 204.531 1282.03 204.32C1275.03 203.747 1285.19 207.879 1285.19 211.091C1285.19 212.76 1295.63 214.885 1291.55 216.909C1286.55 219.396 1295.43 220.121 1292.43 223.114C1289.35 226.175 1296.72 226.605 1291.95 228.746C1286.55 231.175 1286.68 234.547 1288.93 233.62C1299.5 229.252 1294.37 233.24 1295.92 234.151C1299.2 236.082 1307.43 226.006 1307.98 242.017C1308.24 249.741 1296.46 234.884 1300 243.78C1303.62 252.852 1296.72 248.375 1296.95 251.081C1300.9 252.093 1304.6 252.987 1305.68 257.27C1307.43 264.192 1294.98 251.823 1294.44 254.445C1293.09 261.055 1288.17 251.713 1285.24 253.796C1282.56 255.702 1290.41 254.825 1288.66 261.123C1288.21 261.713 1286.79 263.087 1287.04 263.897C1288.01 267.059 1291.97 261.342 1293.39 262.809C1295.34 264.833 1293.58 265.802 1293.24 266.553C1291.14 271.215 1295.01 266.527 1295.43 271.443C1292.2 273.5 1288.14 273.079 1287.47 273.753C1284.09 277.151 1298.03 273.989 1297.92 278.854C1297.82 283.112 1299.55 284.36 1296.95 286.94C1294 289.874 1299.59 298.112 1292.99 295.085C1288.51 293.027 1289.76 299.106 1287.44 300.051C1280.99 302.673 1289.84 292.066 1286.91 291.181C1283.38 290.11 1289.02 287.985 1289.02 283.601C1289.02 275.043 1282.38 286.679 1281.31 285.987C1279.8 285.018 1275.59 287.606 1275.86 285.574C1276.29 282.319 1283.56 278.449 1278.33 278.171C1278.73 277.025 1282.73 273.947 1284.2 271.772C1285.38 270.903 1288.61 269.107 1284.2 269.107C1277.75 269.107 1287.45 262.885 1281.71 265.246C1272.88 268.871 1278.34 265.313 1280.63 261.781C1286.26 253.105 1275.23 261.823 1277.14 257.202C1280.51 249.024 1280.97 250.255 1287.46 248.021C1295.39 245.297 1297.04 238.864 1293.82 240.188C1288.03 242.565 1295.76 236.132 1288.13 238.94C1276.53 243.206 1282.35 234.53 1278.5 239.429C1273.15 246.25 1269.88 244.783 1269.84 244.808C1259.65 251.326 1269.93 243.653 1262.85 245.474C1255.44 247.38 1260.23 240.694 1262.74 238.544C1265.02 236.596 1277.7 237.734 1273.77 234.395C1269.86 231.082 1285.17 223.797 1286.88 222.018C1291.01 217.718 1285.03 222.406 1284.41 219.337C1284.36 219.134 1269.2 226.335 1278.7 216.951C1286.44 209.295 1280.27 215.003 1276.74 214.573C1272.88 214.101 1273.9 218.763 1270.68 217.861C1270.79 217.912 1270.87 217.971 1270.83 218.055C1269.23 221.428 1270.63 207.887 1268.01 211.538C1263.84 217.372 1268.35 219.463 1264.99 220.559C1257.11 223.123 1260.72 216.807 1262.38 213.317C1264.46 208.932 1269.94 206.572 1268.36 206.032C1265.2 204.936 1270.35 201.117 1271.97 200.585C1279.37 198.157 1275.63 190.982 1275.26 190.796C1268.09 187.238 1274.68 194.177 1264.93 197.921C1258.94 200.223 1260.98 201.091 1256.26 199.59C1255.55 199.363 1246.16 206.293 1249.91 200.391C1252.94 195.611 1240.78 198.326 1248.42 193.107C1262.98 183.166 1244.85 188.056 1255.38 181.024C1268.52 172.239 1260.2 174.583 1258.58 173.917C1253.02 171.632 1249.15 180.949 1248.27 175.814C1247.98 174.153 1241.6 174.768 1246.99 171.505C1259.24 164.086 1250.4 165.966 1249.91 164.946C1247.68 160.46 1244.86 170.333 1245.6 164.28C1246.32 158.428 1253.55 156.97 1256.8 152.906C1257.02 152.83 1258.78 151.236 1258.78 150.773C1258.78 147.08 1253.4 151.211 1251.98 150.562C1248.08 148.774 1247.2 153.403 1245.17 152.063C1242.04 149.997 1240.61 152.889 1239.74 151.439C1236.51 146.026 1249.54 142.173 1248.6 137.603C1247.59 132.662 1241.61 143.876 1241.1 140.832C1240.98 140.141 1235.86 138.033 1240.89 129.972C1248.25 118.177 1237.63 125.639 1237.54 123.396C1237.24 116.288 1241.06 121.128 1238.4 111.971C1236.92 106.895 1241.44 89.4003 1234.35 98.5062C1232.44 100.951 1233.93 109.282 1234.58 110.192C1238.19 115.268 1227.29 112.941 1230.78 115.259C1235.17 118.177 1231.98 119.888 1230.44 119.256C1221.1 115.411 1227.64 122.957 1231.51 122.325C1231.85 122.51 1234.85 128.025 1234.93 128.143C1236.1 129.778 1229.6 129.601 1232.22 131.701C1235.62 134.424 1232.87 135.756 1230.26 134.011C1226.08 131.22 1225.01 132.94 1225.81 133.572C1240.44 145.157 1226.62 143.252 1230.66 146.085C1239.88 152.543 1223.05 149.87 1223.01 149.913C1218.41 153.74 1235.78 159.002 1231.51 159.314C1225.51 159.752 1231.09 161.32 1232.01 163.934C1236.36 176.328 1220.75 168.015 1216.21 169.296C1217.23 174.035 1232.61 174.195 1229.9 177.778C1227.77 180.594 1221.65 174.389 1230.43 182.753C1230.68 184.237 1223.74 182.188 1226.92 185.198C1235.93 193.697 1225.32 192.753 1225.45 188.604C1225.69 181.286 1220.32 187.534 1216 183.647C1210.08 178.301 1208.34 180.325 1210.9 182.804C1224.23 195.67 1203.57 184.304 1209.26 190.139C1216.07 197.12 1226.96 194.026 1222.83 199.658C1220.89 202.297 1221.11 204.523 1224.91 204.987C1234.76 206.192 1224.64 209.7 1227.45 210.349C1233.85 211.833 1230.17 215.897 1228.83 216.006C1228.47 216.04 1217.13 209.809 1219.87 212.836C1230.24 224.294 1222.32 223.713 1220.23 221.386C1213.58 213.983 1216.57 220.433 1216.38 221.521C1215.83 224.826 1206.82 210.998 1205.74 214.042C1204.33 218.022 1209.64 220.003 1199.01 219.362C1189.74 218.797 1200.48 223.679 1203.02 223.468C1204.86 223.308 1210.31 230.711 1210.31 230.753C1210.09 232.026 1208.03 231.537 1207.29 231.63C1205.07 231.9 1215.11 242.987 1204.96 237.515C1194.94 232.11 1195.11 235.795 1199.63 238.198C1214.27 245.963 1202.51 244.007 1204.79 246.756C1205.08 246.73 1211.52 247.186 1210.71 249.066C1205.22 261.789 1215.34 246.216 1217.49 252.666C1224.2 272.834 1215.94 259.749 1214.22 259.538C1206.67 258.61 1208.76 252.034 1204.66 254.268C1200.01 256.789 1201.14 253.99 1197.13 251.427C1190.96 247.481 1196.36 254.057 1197.09 255.288C1204.67 268.264 1190.21 253.248 1188.77 256.713C1186.7 261.73 1200.29 262.868 1195.73 268.61C1187.9 278.466 1197.11 270.507 1198.92 270.583C1204.81 270.819 1190.59 273.23 1201.37 276.047C1204.78 276.94 1204.72 285.169 1198.04 282.075C1178.72 273.121 1199.52 295.262 1193.41 292.488C1184.99 288.677 1188.87 296.51 1185.04 296.349C1181.27 296.198 1188.96 288.162 1181.48 289.081C1175.48 289.815 1185 279.073 1185.93 277.986C1191.51 271.443 1179.77 277.041 1186.58 269.47C1193.36 261.924 1189.74 260.921 1189.19 261.738C1187.2 264.774 1178.53 271.949 1178.5 271.999C1172.87 282.438 1171.35 276.907 1169.77 277.91C1158.7 284.933 1162.75 278.551 1164.74 277.868C1169.15 276.342 1166.42 274.588 1169.17 274.124C1174.11 273.289 1172.72 271.814 1174.53 270.583C1179.14 267.438 1182.63 260.769 1177.6 263.652C1164.68 271.055 1179.46 259.917 1171.51 259.917C1168.79 259.917 1170.2 252.346 1174.4 253.568C1188.63 257.708 1179.7 254.749 1187.89 249.26C1192.65 247.616 1183.41 246.09 1183.44 245.525C1183.7 238.94 1190.81 242.371 1191.01 242.279C1196.29 239.952 1186.32 237.431 1185.97 236.992C1180.79 230.399 1180.46 239.564 1177.72 237.768C1172.65 234.446 1174.66 240.609 1169.72 241.098C1154.69 242.582 1176.7 232.169 1169.06 230.778C1160.89 229.294 1166.84 227.094 1167.59 227.035C1186.61 225.509 1167.21 221.318 1162.61 222.827C1158.52 224.168 1154.83 222.676 1158.74 220.956C1164.48 218.435 1172.2 211.201 1162.43 214.379C1154.04 217.111 1166.84 207.179 1166.88 207.137C1169.22 204.717 1184.82 199.101 1181.11 197.188C1181.44 193.039 1171.52 200.172 1170.55 199.203C1168.41 197.061 1172.76 194.86 1165.63 200.788C1155.7 209.042 1167.11 191.547 1156.89 203.587C1151.87 209.489 1152.83 205.737 1152.3 203.553C1151.07 198.587 1147.96 213.907 1141.78 211.361C1135.41 208.73 1150.72 201.842 1148.01 199.144C1145.12 196.252 1150.44 196.564 1151.46 194.717C1153.96 190.173 1148.33 193.461 1148.19 193.461C1143.13 193.258 1150.93 185.797 1151.76 184.928C1153.89 184.928 1159.52 183.259 1156.75 182.306C1151.49 180.502 1159.01 181.615 1160.12 177.281C1161.28 172.787 1155.66 176.615 1155.66 176.581C1155.1 170.215 1149.73 182.626 1148.89 178.537C1148.13 174.811 1144.06 179.186 1142.5 179.052C1132.95 178.234 1144.59 173.757 1147.71 168.209C1155.09 155.081 1144.76 163.504 1143.62 162.829C1138.36 159.71 1137.42 168.462 1135.7 165.941C1130.75 158.639 1143 153.125 1139.11 153.277C1130.32 153.622 1139.44 144.103 1141.62 141.549C1144.52 138.151 1148.03 137.164 1145.72 135.655C1141.2 137.443 1141.13 137.265 1138.94 135.419C1133.58 139.913 1137 129.989 1136.46 126.01C1135.81 121.094 1137.99 113.101 1137.74 112.401C1134.83 104.459 1133.62 126.709 1133.57 126.945C1131.85 127.536 1131.73 126.203 1131.24 125.782C1123.62 119.138 1130.64 130.967 1131.1 132.476C1132.33 136.414 1133.18 139.137 1132.71 143.513C1128.77 144.525 1127.08 135.225 1125.1 136.793C1119.8 140.967 1134.07 147.897 1128.97 150.832C1126.23 149.263 1125.66 151.945 1124.47 152.535C1122.78 153.369 1114.68 146.945 1117.44 151.337C1119.68 154.896 1117.35 156.228 1118.98 156.506C1125.67 157.636 1124.74 162.079 1122.73 162.003C1108.74 161.455 1125.71 164.516 1127.23 170.401C1129.04 177.45 1123.95 170.308 1124.15 175.156C1124.43 181.707 1120.13 172.922 1118.45 172.492C1112.42 170.949 1124.64 184.996 1124.33 186.53C1124.2 187.087 1122.35 187.061 1121.84 187.061C1121.84 189.953 1125.81 191.901 1125 194.911C1122.7 203.41 1122 191.336 1119.88 192.087C1113.94 194.186 1115.73 190.257 1113.47 188.351C1108.46 184.11 1113.85 194.338 1113.8 194.498C1110.03 195.282 1115.46 197.558 1116.92 200.569C1118.23 203.275 1108.73 206.555 1115.08 207.339C1127.44 208.865 1118.61 209.025 1122.13 216.58C1124.03 220.644 1118.38 221.293 1117.73 216.032C1117.04 210.442 1116.61 215.947 1113.83 211.9C1107.29 202.398 1101.08 206.31 1106.83 210.61C1118.63 219.421 1107.65 218.308 1111.52 220.593C1116.69 223.645 1106.72 222.768 1110.97 225.407C1119.92 230.972 1111.66 228.266 1110.84 230.787C1109.39 235.222 1105.74 232.001 1105.8 231.141C1106.33 224.775 1098.76 233.889 1101.22 225.939C1103.68 217.996 1095.07 226.993 1094.62 227.633C1094.01 228.485 1108.35 240.702 1108.65 243.231C1107.9 243.172 1109.25 245.955 1104.96 244.606C1096.51 241.958 1103.7 247.717 1105.45 248.695C1110.79 251.68 1109.73 257.042 1105.04 254.293C1101.9 252.455 1108.11 261.005 1103.66 257.86C1094.96 251.722 1099.82 258.855 1100.54 259.394C1105.44 263.13 1098.72 262.506 1103.48 264.31C1109.68 266.654 1103.32 273.972 1101.76 271.3C1099.2 266.915 1096.04 280.33 1094.43 282.142C1090.49 286.577 1093.45 277.96 1091.21 277.682C1086.01 277.041 1095.57 269.967 1096.2 267.033C1098.42 256.646 1088.82 271.072 1086.59 271.789C1077.34 274.723 1085.85 267.227 1086.41 265.971C1085.14 264.917 1094.91 260.347 1091.92 260.094C1084.19 259.42 1091.01 257.438 1087.65 257.27C1088.69 254.268 1096.71 250.853 1097.71 250.002C1103.29 245.196 1091.75 250.778 1095.16 245.559C1093.49 241.351 1089.45 254.125 1087.16 250.339C1083.94 245.019 1084.05 245.66 1086.36 241.984C1091.88 233.198 1081.29 239.218 1083.61 235.989C1089.08 228.333 1076.23 233.291 1085.65 227.633C1100.92 218.452 1097.76 209.599 1092.73 216.327C1085.25 226.326 1085.46 216.462 1081.95 219.573C1072.8 227.684 1079.02 218.038 1077.52 217.221C1068.84 212.465 1091.72 204.928 1083.91 204.295C1078.6 203.865 1085.82 198.924 1083.38 196.665C1081.58 197.289 1078.61 202.879 1076.48 201.42C1069.16 196.395 1084.51 184.271 1076.42 186.168C1069.33 187.829 1074.48 176.809 1070.58 173.967C1064.94 169.861 1072.71 185.274 1070.74 189.566C1066.77 189.566 1064.9 186.749 1062.89 186.707C1055.59 186.539 1068.16 192.795 1068.2 192.828C1074.55 198.537 1064.78 195.349 1067.94 199.101C1070.97 202.685 1067.98 202.432 1066.47 201.783C1063.54 200.509 1061.11 202.87 1063.45 203.831C1072.38 207.499 1065.72 208.41 1067.78 213.873C1071.75 224.379 1062.15 213.536 1059.89 213.367C1052.89 212.853 1067.39 220.871 1062.2 220.669C1057.14 220.467 1055.83 221.445 1057.4 221.377C1062.1 221.192 1068.58 229.227 1063.98 229.016C1062.72 229.455 1060.17 229.429 1059.39 228.502C1056 224.497 1055.53 228.662 1055.92 229.379C1058.46 234.126 1051.02 231.335 1051.88 233.822C1064.91 238.324 1056.42 241.554 1055.68 241.258C1048.4 238.341 1048.6 242.22 1052.11 246.621C1057.95 253.939 1056.39 248.518 1049.25 252.135C1041.69 255.954 1057.09 253.113 1057.31 254.091C1052.4 259.926 1060.94 253.821 1061.33 260.634C1061.95 271.342 1046.96 269.285 1049.86 263.509C1050.62 262.008 1054.26 257.438 1048.98 260.136C1038.38 265.549 1044.1 261.013 1043.49 259.276C1042.86 259.057 1039.93 260.887 1039.72 261.376C1037.93 265.684 1031.57 269.175 1033 263.315C1034.25 258.231 1025.44 270.288 1024.81 267.253C1023.79 262.261 1018.54 273.871 1018.11 274.537C1018.04 274.647 1012.48 276.004 1011.43 276.257C1003.68 278.078 1017.9 270.322 1011.29 271.131C996.813 272.902 1014.97 264.976 1013.78 263.678C1014.34 263.534 1019.69 261.401 1018.22 260.347C1016.07 258.804 1023.6 254.454 1024.67 254.083C1035.27 250.381 1034.22 245.795 1032.12 246.663C1026.08 249.159 1029.46 247.675 1030.56 245.921C1034.89 239.024 1021.92 250.002 1022.67 246.958C1023.52 243.484 1015.76 249.673 1011.45 250.171C999.127 251.612 1010.69 242.211 1015.94 241.798C1016.67 241.739 1025.4 239.665 1021.08 239.134C1011.67 237.979 1032.04 231.208 1026.24 231.68C1020.51 232.153 1030.87 227.794 1032.16 227.591C1038.91 226.554 1029.02 222.945 1035.54 223.325C1054.65 224.446 1051.53 214.261 1046.35 217.162C1041.64 219.809 1034.35 218.333 1035.32 217.103C1041.97 208.637 1031.54 216.681 1029.68 214.211C1026.35 209.792 1024.18 217.01 1022.73 214.565C1020.45 210.728 1013.86 222.406 1017.37 213.528C1015.75 211.049 1009.09 219.025 1008.14 217.406C1006.47 214.607 1003.08 218.333 1000.38 219.118C992 221.529 1005.74 210.029 1006.84 209.278C1007.38 208.663 1015.15 202.904 1008.3 204.877C1001.32 206.884 1009 199.945 1011.42 201.504C1016.77 204.928 1019.08 201.277 1018.24 200.703C1013.2 197.238 1030.6 198.832 1025.72 194.928C1021.72 191.732 1025.34 193.452 1026.05 190.974C1028.05 184.06 1020.02 191.041 1020.35 188.486C1021.25 181.176 1014.74 192.23 1014.47 188.84C1013.99 182.719 1013.44 186.564 1010.58 188.528C1000.38 195.56 1008.08 184.338 1003.21 187.888C995.698 193.368 1000.49 182.5 1004.34 184.085C1007.71 185.468 1010.28 183.115 1008.39 182.129C1003.42 179.532 1011.97 179.633 1011.99 179.642C1017.2 181.775 1023.15 177.964 1020.56 176.514C1014.81 173.301 1020.39 172.231 1022.19 169.288C1029.43 157.459 1018.44 170.392 1018.21 168.597C1017.7 164.659 1014.16 170.629 1013.58 168.242C1012.54 163.976 1011.13 171.168 1009.28 170.047C1006.24 168.209 1003.95 173.023 1003.43 170.907C1002.39 166.666 1001.29 172.112 998.291 171.067C997.615 169.119 1000.82 166.944 1002.37 166.025C1007.02 163.285 995.538 165.426 1007.01 160.755C1007.09 160.292 1010.43 160.207 1011.62 159.819C1020.28 157.003 1009.44 156.497 1009.86 154.887C1018.38 151.945 1022.49 143.631 1013.29 149.019C1011.77 149.913 1013.06 144.044 1011.23 146.692C1010.76 147.375 1004.26 157.535 1005.75 150.25C1007.69 140.748 1002.23 149.179 1002.2 149.196C1000.99 149.828 998.367 146.127 998.088 149.373C997.514 156.186 992.76 149.955 994.128 148.437C999.498 142.484 986.883 144.137 997.615 140.883C1012.99 136.228 1001.71 134.154 1001.89 133.724C1003.53 129.761 1000.58 130.529 998.865 132.35C995.766 135.63 993.36 134.542 994.415 133.058C1000.5 124.5 997.294 128.986 994.77 127.089C994.736 127.063 1004.25 120.774 1000.24 120.934C991.57 121.271 1002.99 114.458 1004.87 112.755C1007.56 112.755 1004.7 106.44 1002.67 109.509C999.042 115.015 999.971 107.41 997.708 110.268C991.358 118.269 996.475 110.386 991.173 112.266C984.114 114.77 994.719 106.314 990.269 107.41C979.917 109.948 988.513 100.277 989.585 99.9649C999.084 97.1319 995.901 91.2889 992.414 93.1523C988.496 95.2433 989.138 90.2772 989.788 89.3076C994.77 81.8795 986.208 88.0681 987.246 84.7209C987.567 83.6754 996.121 73.6757 991.696 75.4969C986.267 77.7312 988.868 73.7853 987.474 74.9489C981.471 79.9487 985.296 72.3941 984.359 70.2104C982.484 65.8345 987.576 54.6713 982.982 56.2986C977.899 58.0945 984.553 65.0757 980.669 69.2239C981.066 69.5528 981.184 69.283 981.184 69.5359C977.241 70.6488 983.531 74.5442 981.733 74.9151C981.606 75.421 974.809 78.3805 977.621 78.8442C983.303 79.7801 979.799 84.8811 977.325 83.0683C973.821 80.4883 971.592 82.3938 973.348 83.6754C978.102 87.1576 972.943 86.306 974.969 87.0058C979.563 88.5909 982.442 93.8774 980.128 93.5992C975.67 93.0511 976.033 96.8621 973.88 94.1135C969.65 88.7258 972.276 97.4776 968.738 96.019C963.925 94.0376 963.553 97.0223 964.82 97.5451C972.107 100.572 967.387 104.998 971.955 104.071C982.459 101.938 968.434 109.391 974.606 109.391C981.783 109.391 976.759 109.357 981.015 110.631C981.285 110.951 978.963 114.408 978.718 114.332C969.633 111.533 975.222 113.556 973.23 115.133C969.059 118.438 974.226 117.907 976.776 121.811C974.64 127.198 974.513 124.146 978.229 129.812C980.795 133.724 973.922 128.252 973.897 128.261C968.012 129.821 970.148 125.116 966.804 124.323C961.13 122.974 967.885 128.488 967.843 129.475C967.64 134.306 977.139 133.598 974.378 137.957C973.568 139.23 985.051 148.386 978.516 145.688C967.218 141.026 983.025 154.896 982.982 155.241C982.974 155.342 975.434 157.13 974.184 154.356C970.553 146.304 969.168 158.15 966.171 151.515C961.493 141.135 961.4 150.705 959.467 150.629C959.12 150.612 944.124 145.242 952.188 150.334C956.401 152.998 954.096 154.643 956.283 154.196C962.312 152.965 961.89 156.919 959.956 157.863C949.309 163.125 964.896 158.293 961.485 161.7C956.95 166.236 966.036 161.295 967.767 163.125C971.634 167.214 977.148 168.361 980.466 173.192C979.394 174.178 978.414 175.949 976.666 174.676C968.088 168.428 974.344 177.542 974.412 177.593C977.401 179.81 969.371 178.799 973.162 182.441C976.894 186.016 972.639 185.232 972.318 184.886C967.167 179.347 971.82 186.092 966.044 182.264C963.055 180.283 963.182 176.741 961.594 177.492C956.14 180.089 954.662 171.75 953.455 175.148C951.2 181.505 953.404 177.036 949.891 179.279C945.771 181.918 952.416 181.421 953.581 181.724C964.009 184.397 955.878 187.07 959.264 188.124C967.513 190.695 961.78 189.962 960.674 191.665C961.763 195.122 970.106 195.864 969.802 197.719C968.822 203.57 978.651 201.774 973.88 203.536C965.664 206.572 973.492 204.928 973.348 209.641C973.188 214.742 968.392 208.384 968.366 208.384C962.363 208.62 967.437 202.997 963.545 204.43C954.696 207.693 959.889 204.928 957.643 200.965C954.316 195.105 957.617 206.943 950.761 202.811C946.446 200.214 942.9 190.257 943.271 199.675C943.314 200.771 933.629 198.806 940.13 201.395C951.209 205.804 940.966 210.636 947.172 210.341C959.956 209.742 950.769 215.239 950.744 215.315C949.596 218.629 957.871 212.71 962.489 222.423C961.865 223.047 961.155 223.392 960.294 223.637C959.011 223.999 951.403 217.676 952.745 222.288C954.367 227.878 951.217 222.625 952.019 226.478C972.217 230.635 943.761 235.829 962.903 234.488C970.984 233.923 964.153 236.613 964.136 236.638C960.868 241.039 969.616 235.93 972.217 241.014C977.908 252.135 972.571 246.039 970.882 246.621C970.156 249.749 964.558 247.624 963.959 246.587C954.983 231.234 961.535 251.208 955.726 244.294C948.253 235.399 946.928 246.68 943.575 238.864C939.886 230.256 941.059 238.316 935.453 234.463C928.588 229.75 934.862 241.073 935.942 241.292C936.01 241.604 931.197 244.985 935.081 244.817C944.462 244.412 941.422 252.017 937.69 250.988C932.312 249.513 934.549 251.039 933.983 253.492C925.084 255.322 939.185 257.101 939.337 258.273C930.192 264.597 949.967 259.437 948.118 262.455C945.188 267.244 947.696 263.551 950.415 267.725C948.844 271.713 953.108 272.691 952.712 275.92C951.766 283.584 957.237 278.871 956.03 281.965C953.252 289.107 954.096 288.559 950.086 283.862C949.435 283.095 943.609 288.727 943.795 283.921C943.989 279.048 940.527 281.029 940.232 281.949C938.594 287.193 933.806 281.148 933.468 279.832C932.016 274.2 929.111 274.124 929.196 276.097C929.441 281.755 926.908 277.387 924.974 278.635C920.938 281.232 933.232 280.574 932.227 284.807C932.995 284.208 931.932 285.22 931.518 285.405C923.716 288.904 935.942 289.107 934.853 291.746C931.864 298.972 940.316 295.928 940.772 298.145C941.633 302.31 944.597 300.742 944.141 303.465C942.63 312.361 941.321 306.821 936.322 307.968C928.976 309.654 939.261 311.56 940.19 315.919C941.735 323.128 936.069 318.279 935.309 319.831C931.526 327.613 930.42 314.494 928.841 313.819C928.275 313.575 925.253 321.264 925.329 321.382C928.698 326.635 925.717 327.326 928.664 330.134C937.876 338.936 928.081 335.429 926.528 336.289C916.361 341.938 927.532 330.665 919.747 332.25C916.032 333.009 919.224 327.638 919.587 327.276C922.01 324.831 922.576 320.792 920.347 322.537C916.108 325.842 916.902 320.354 918.506 319.249C928.791 312.15 918.042 315.118 929.027 306.678C939.877 298.339 929.669 300.826 927.955 302.395C924.324 305.734 916.235 307.858 922.922 302.083C931.121 295 924.408 296.004 923.437 297.015C917.467 303.28 919.494 295.666 917.206 299.73C913.617 306.113 912.503 295.262 911.734 301.526C910.907 308.305 906.237 305.607 906.212 305.438C905.351 298.449 909.953 296.796 913.347 293.887C914.022 293.887 916.311 291.712 914.782 290.801C907.495 286.493 919.393 283.947 919.587 281.266C919.908 276.881 911.776 281.535 911.143 280.793C907.614 276.645 908.593 281.898 908.399 282.201C903.147 290.431 904.793 280.945 901.771 282.454C894.577 286.021 903.915 276.047 903.02 273.45C902.514 271.991 892.896 278.829 895.429 273.804C900.605 263.517 893.825 269.976 892.212 268.796C888.218 265.878 897.127 257.295 898.934 255.583C903.485 251.267 895.083 254.589 895.049 254.58C893.563 250.289 892.727 256.022 891.951 256.696C887.391 260.676 891.799 248.299 891.773 248.257C887.602 242.422 893.487 236.006 891.106 236.883C886.226 238.687 891.765 240.39 885.229 240.39C882.257 240.39 892.601 250.221 886.656 250.702C886.741 250.904 882.713 248.139 883.262 251.41C884.554 259.15 874.472 252.186 880.07 258.18C884.52 262.936 886.766 271.114 879.344 266.831C870.132 261.511 875.173 266.789 876.465 269.183C881.995 279.453 871.052 271.308 870.993 271.3C865.1 270.811 879.91 280.819 874.388 281.46C871.036 281.847 869.668 285.768 871.171 285.709C878.314 285.431 873.898 288.626 875.485 290.995C878.812 295.97 871.703 295.835 868.528 293.466C865.209 291.004 859.468 290.439 861.494 292.167C868.215 297.892 857.804 293.162 856.749 297.083C856.774 297.032 858.944 298.887 860.709 299.022C877.098 300.262 864.888 303.71 870.63 306.383C881.48 311.433 870.233 310.539 868.055 310.008C865.057 309.283 863.934 310.91 864.939 311.121C873.965 312.985 869.262 316.821 864.601 315.16C860.194 313.592 858.395 315.059 861.156 316.408C867.472 319.485 864.72 318.473 869.212 321.492C878.821 327.95 876.228 331.34 873.645 328.186C870.529 324.384 868.308 331.163 866.721 326.584C864.618 320.531 861.114 320.219 862.389 323.195C864.289 327.63 858.429 323.777 858.404 323.743C848.575 311.231 853.135 324.122 852.324 324.291C846.203 325.539 848.136 324.932 852.13 327.057C863.081 332.891 856.504 332.9 856.985 334.046C859.611 340.378 852.611 338.911 855.871 341.466C856.495 341.955 861.19 346.44 856.951 345.395C845.51 342.57 858.091 348 855.82 353.245C852.89 360.007 852.89 348.784 852.434 348.481C848.077 345.538 852.189 341.575 849.648 341.145C842.529 339.948 849.073 339.872 852.544 334.603C855.153 330.632 845.806 337.301 844.7 335.252C841.972 330.227 848.541 326.82 840.022 329.788C840.275 329.771 840.385 329.704 840.351 329.932C837.818 329.932 839.65 326.365 840.723 325.564C846.962 320.885 842.673 318.271 840.579 320.059C835.074 324.73 832.211 319.283 834.694 316.812C845.747 305.776 834.466 313.887 836.357 309.882C837.936 306.551 834.179 308.55 833.14 305.615C833.03 305.312 839.228 292.378 836.18 296.417C828.631 306.425 834.719 286.544 832.574 284.107C827.567 278.441 829.585 290.312 829.568 291.704C829.501 296.737 825.498 294.351 825.254 296.375C824.705 300.843 833.697 297.69 824.021 302.656C818.887 305.295 827.365 304.224 827.398 304.241C831.291 305.615 821.505 309.216 823.649 309.882C830.185 311.922 828.082 315.657 823.371 314.03C817.181 311.897 818.456 315.312 820.28 316.34C830.531 322.099 827.398 326.036 825.245 324.519C816.32 318.22 824.173 330.134 820.635 328.675C815.586 326.593 821.218 335.193 821.167 336.365C820.652 349.476 809.337 343.236 811.955 341.398C824.494 332.596 812.47 334.375 813.559 331.736C818.228 320.446 811.026 333.658 804.913 330.623C796.41 326.407 819.495 319.679 812.081 318.423C806.745 317.521 810.156 315.472 807.311 317.47C801.113 321.829 808.704 310.008 808.721 309.873C808.696 309.578 808.662 309.62 808.881 309.469C810.958 308.044 808.704 307.209 808.189 307.428C804.727 308.862 804.946 303.415 802.253 307.546C797.828 314.342 796.739 307.513 797.094 306.855C802.701 296.366 794.924 301.594 798.225 296.712C801.164 292.37 799.585 289.233 797.516 291.021C792.543 295.304 792.914 288.095 792.931 288.061C797.119 282.168 793.446 284.309 792.154 284.124C789.055 283.669 796.292 277.758 796.309 277.724C804.634 265.684 792.771 276.578 792.526 275.397C788.279 275.76 788.355 264.698 784.986 260.516C777.057 250.651 784.015 270.465 782.022 271.089C774.11 273.559 786.396 272.961 783.626 275.178C778.45 279.318 787.451 276.848 786.666 281.679C786.75 281.653 786.835 281.628 786.928 281.611C786.868 281.755 786.793 281.755 786.649 281.805C786.649 281.763 786.657 281.721 786.666 281.679C783.854 282.404 782.267 284.731 780.417 282.53C775.233 276.358 770.572 279.057 776.339 282.53C781.431 285.599 782.326 288.736 780.122 287.446C777.099 285.684 766.173 287.066 774.608 290.38C795.084 298.432 771.433 293.322 779.936 298.348C784.445 301.012 784.42 305.16 782.74 305.084C780.494 304.992 775.182 308.769 776.998 304.376C781.144 294.334 773.274 304.696 772.759 301.552C772.227 298.297 769.086 297.589 769.441 298.913C769.99 300.995 769.162 305.725 769.702 306.02C779.193 311.18 777.437 317.993 773.131 313.103C762.863 301.417 771.197 317.209 767.389 314.907C761.816 311.543 768.799 321.18 766.367 321.079C760.397 320.843 768.123 327.537 765.489 328.186C760.153 329.51 761.647 337.975 758.65 334.468C754.217 329.274 753.507 345.58 749.615 339.974C743.291 330.876 761.124 332.107 757.881 329.19C757.012 328.414 756.513 328.085 756.26 327.967C755.897 327.79 756.007 328.026 756.26 327.967C756.581 327.891 757.113 327.335 757.113 324.814C750.738 322.622 755.306 322.588 757.349 318.962C759.714 314.772 753.111 319.3 753.018 319.258C748.737 317.301 745.461 327.866 744.118 323.583C742.007 316.838 749.953 320.168 746.938 312.529C748.618 309.949 752.393 305.11 756.049 305.261C766.207 305.666 757.645 301.155 759.249 300.818C759.215 300.43 765.7 295.658 761.385 296.181C756.589 296.771 761.909 292.269 763.327 291.931C772.48 289.773 771.315 285.709 768.419 286.822C763.783 288.601 762.838 286.274 761.563 287.471C753.237 295.295 754.394 290.54 752.486 292.108C751.202 293.162 743.637 296.822 746.904 292.952C755.585 282.682 748.939 287.083 748.61 287.665C741.779 299.874 744.034 285.195 741.965 285.195C740.453 287.1 741.07 292.665 738.402 292.125C734.171 291.265 731.604 294.435 730.524 293.238C730.498 293.204 732.879 280.372 730.11 286.333C725.5 296.257 721.97 291.847 722.747 288.533C724.655 280.439 732.947 280.979 732.153 279.309C730.92 276.738 731.604 280.65 730.228 274.866C731.182 272.902 732.499 274.959 732.719 275.085C740.96 280.026 734.484 269.116 737.523 269.352C752.418 270.524 748.838 258.079 745.173 261.89C740.394 266.865 740.217 262.86 740.234 262.826C743.696 257.978 744.861 246.351 738.714 258.096C737.169 261.055 733.791 257.868 733.774 257.818C731.714 251.216 730.726 259.546 728.446 261.03C725.981 260.061 718.027 261.275 723.22 258.467C736.088 251.52 719.386 256.342 731.63 248.155C735.497 245.567 745.461 247.16 745.173 244.825C744.43 238.813 730.971 243.847 736.08 238.957C741.923 233.375 738.95 231.857 737.414 233.257C731.815 238.333 735.59 230.424 731.748 234.277C724.36 241.68 727.653 234.05 723.27 236.174C718.483 238.493 720.053 232.001 718.061 234.513C712.454 241.57 714.058 232.996 716.135 231.537C725.457 224.977 713.087 226.234 721.295 223.671C731.976 220.34 726.783 219.556 728.489 217.676C730.709 215.222 723.659 215.189 723.633 215.205C720.138 217.027 723.693 219.792 718.635 217.811C718.728 217.735 718.787 217.676 718.846 217.642C716 217.769 717.436 219.843 716.38 220.888C713.805 223.46 712.893 217.162 712.876 217.136C708.308 211.074 717.453 214.042 720.087 209.995C719.133 206.968 719.184 210.61 718.989 205.712C718.626 196.496 714.236 205.164 714.008 205.197C709.423 205.762 713.079 199.346 713.07 199.321C711.306 194.355 715.722 195.139 718.407 193.233C728.235 186.26 711.28 193.368 713.341 190.485C716.372 186.227 711.162 185.679 711.145 185.653C709.549 184.009 719.69 176.193 714.362 178.394C710.74 179.886 712.386 176.792 711.466 177.576C705.116 183.023 711.635 166.236 710.402 163.243C706.603 154.069 709.144 168.993 705.657 171.269C700.489 169.229 707.531 177.45 704.753 177.652C700.076 177.998 708.823 187.078 704.399 188.706C702.735 189.313 697.399 182.205 699.459 187.77C701.207 192.483 696.985 189.372 698.209 190.923C702.71 196.614 707.008 192.289 704.931 198.967C705.277 202.617 700.303 196.8 698.75 197.963C698.53 198.123 701.401 204.413 701.418 204.43C705.868 210.686 701.139 211.386 702.305 212.845C705.184 216.428 700.844 215.037 700.126 214.565C693.523 210.231 697.053 214.396 694.435 213.317C689.369 211.234 689.251 213.173 691.058 213.958C698.86 217.347 695.955 214.961 700.54 220.669C702.617 223.257 692.721 221.841 698.269 225.627C706.366 231.141 701.182 229.202 699.645 230.112C695.955 232.304 708.131 236.613 706.189 240.331C702.33 247.7 700.945 233.771 698.775 236.866C695.609 241.377 693.701 236.773 690.331 235.087C682.681 231.25 695.271 239.749 686.962 238.611C682.732 238.029 684.244 241.916 686.253 242.169C695.203 243.265 692.29 242.658 690.88 247.666C691.015 247.953 690.948 248.08 690.838 248.375C689.614 251.722 699.873 248.897 696.538 250.643C690.23 253.931 706.341 255.642 701.697 257.202C693.405 259.993 704.424 260.027 702.229 263.307C698.437 268.964 696.293 260.398 695.026 261.224C690.222 264.31 690.982 258.99 690.171 255.845C686.566 241.84 688.854 263.855 681.626 253.535C678.865 249.589 671.848 243.99 674.82 249.867C678.932 257.995 674.939 252.346 675.048 254.96C675.293 261.258 689.538 257.649 673.79 262.91C664.224 266.106 683.534 264.023 683.593 264.023C690.745 264.327 684.556 268.736 686.025 271.148C687.14 272.986 681.212 275.203 685.375 275.557C700.658 276.881 688.516 279.588 693.27 281.923C700.861 285.658 696.656 291.274 694.621 288.719C685.569 277.37 696.141 296.13 688.938 289.798C683.112 284.68 683.298 290.076 680.976 286.232C676.019 278.019 678.004 283.593 674.533 280.852C665.6 273.787 673.005 284.166 671.848 285.701C667.044 292.066 676.72 286.012 672.583 290.633C672.625 290.633 672.659 290.616 672.701 290.608C672.591 290.65 672.769 290.726 672.38 290.861C672.456 290.776 672.515 290.709 672.583 290.633C668.268 291.518 680.503 295.641 679.828 297.58C673.368 299.806 687.689 301.779 685.519 306.324C683.737 310.05 682.605 305.287 681.086 305.599C675.867 306.661 676.281 300.27 675.048 304.207C673.875 307.959 666.875 302.783 667.035 306.855C667.297 313.541 678.51 313.356 670.97 315.919C667.626 317.057 680.013 320.826 681.229 322.849C685.409 329.771 673.993 323.431 672.211 323.009C669.02 322.259 675.758 327.065 675.783 327.116C674.077 330.067 676.813 328.338 678.291 330.623C681.896 336.213 673.343 330.37 671.789 334.577C663.692 356.533 668.775 336.205 663.708 338.886C656.303 342.806 669.881 328.262 669.881 324.266C669.881 322.866 657.089 332.174 659.782 328.397C664.088 322.343 657.241 327.107 655.645 327.107C655.645 325.927 656.388 324.595 657.173 323.684C666.436 312.951 658.516 319.62 658.321 317.689C656.742 317.689 660.61 314.62 661.572 311.998C662.847 308.524 658.093 305.447 663.286 303.229C666.951 301.661 673.925 295.321 669.889 296.763C666.495 297.977 669.644 291.139 665.777 296.198C663.269 299.486 649.759 299.832 656.54 294.182C664.975 287.151 658.988 284.697 664.553 281.299C665.245 280.878 672.633 273.998 667.77 275.785C655.391 280.347 661.192 272.623 656.32 276.03C640.134 287.336 653.669 271.477 649.244 271.645C639.061 272.05 648.02 264.243 654.226 262.936C656.151 263.695 656.084 260.136 653.525 260.271C645.242 260.693 653.753 254.057 654.04 253.923C663.32 249.471 659.098 244.108 654.978 249.597C651.482 254.243 651.355 249.015 649.219 250.727C641.046 257.261 646.171 247.211 645.335 246.95C639.728 245.196 644.203 244.673 644.077 241.444C643.849 235.668 646.483 238.324 647.167 237.017C649.489 232.574 640.193 231.849 642.776 229.657C647.201 225.888 649.227 218.165 645.69 221.175C634.459 230.702 649.151 210.416 644.668 213.595C636.739 219.219 643.376 201.909 641.121 197.373C637.752 190.603 638.859 214.893 636.435 214.792C630.617 214.548 636.773 220.973 633.235 220.838C622.621 220.416 637.516 225.45 636.976 231.149C636.697 232.372 630.288 230.517 632.821 233.325C640.53 241.866 630.997 237.22 631.099 239.85C631.369 246.747 625.72 237.38 624.69 239.673C622.224 245.171 631.808 251.975 628.802 252.489C620.384 253.914 627.552 253.535 629.022 256.013C631.909 260.87 619.337 255.634 619.218 255.718C618.779 256.03 624.403 262.312 625.045 263.492C625.771 263.745 625.18 264.167 624.749 264.335C612.97 268.964 631.85 270.22 625.239 274.217C616.204 279.68 616.44 272.269 616.39 272.185C613.679 268.045 616.559 274.622 610.631 274.141C600.043 273.281 615.14 277.353 610.944 279.444C605.624 282.092 614.186 281.822 615.765 282.185C616.17 284.141 612.261 285.169 615.731 287.682C623.905 293.584 614.161 291.442 613.823 291.172C610.918 288.845 609.525 293.137 607.237 290.329C601.765 283.618 602.441 293.795 601.884 291.071C600.752 290.81 596.37 285.996 594.31 289.267C590.915 294.655 599.958 290.827 600.685 297.252C601.453 304.056 610.065 302.369 606.958 305.329C606.637 305.632 609.947 310.337 606.705 309.545C601.2 308.195 605.168 312.403 604.999 312.597C601.833 316.264 602.002 322.327 599.958 321.568C595.745 320.008 598.768 330.497 592.469 326.045C589.15 323.701 591.422 319.224 593.355 315.632C597.29 308.347 598.27 302.799 590.341 312.015C584.11 319.266 588.264 311.256 586.068 304.907C584.886 305.008 584.008 304.696 582.556 305.86C578.604 309.03 579.482 298.019 574.636 312.462C573.251 316.593 569.021 320.075 569.679 315.775C571.317 305.11 563.532 320.969 560.484 316.652C555.24 309.224 565.508 308.069 565.618 307.217C566.521 299.882 568.691 304.418 570.954 301.526C580.023 289.984 567.796 298.702 568.48 295.262C571.157 281.687 578.706 293.946 578.967 285.692C579.195 278.542 581.475 284.107 580.217 276.451C579.938 274.74 594.402 268.559 588.036 269.344C577.042 270.693 579.508 275.912 577.194 276.308C570.152 277.505 576.552 273.829 569.173 279.976C563.684 284.545 566.26 280.734 564.368 280.734C563.862 280.734 549.972 288.711 550.647 284.647C551.373 280.279 546.957 281.746 549.06 278.07C546.839 276.148 549.33 279.116 553.104 276.957C555.46 275.617 569.384 271.451 565.609 270.119C558.407 267.565 567.028 268.231 566.859 263.855C566.614 257.649 578.782 257.472 578.782 252.481C578.782 251.966 572.618 252.287 572.601 252.304C567.239 255.449 566.26 253.223 571.013 250.01C575.218 247.169 575.168 247.144 573.952 245.019C574.467 244.134 576.536 242.565 577.498 242.22C595.964 235.609 598.472 226.234 585.79 233.982C577.886 238.813 589.682 225.922 579.246 233.105C573.53 237.043 561.379 232.97 561.607 241.461C562.198 243.754 557.419 240.592 556.752 243.105C552.935 257.607 540.616 250.499 548.359 243.948C549.001 243.4 564.74 228.527 554.464 233.864C542.034 240.323 549.634 225.998 559.479 225.273C559.783 225.247 568.066 224.033 565.111 222.49C559.665 219.649 568.463 213.469 571.148 212.356C575.97 210.366 577.937 206.302 575.303 207.381C570.321 209.43 567.349 207.727 566.048 208.907C557.554 216.588 560.315 210.256 556.971 213.022C551.779 217.322 551.399 212.617 549.153 213.974C539.029 220.087 545.522 214.362 547.548 211.487C555.713 199.928 542.98 210.72 542.921 210.728C534.275 212.491 536.63 215.728 529.31 217.954C519.22 221.015 535.347 212.684 524.927 213.722C518.916 214.32 524.725 210.981 526.354 210.231C534.021 206.673 530.205 205.24 526.709 206.673C520.013 209.421 523.956 206.175 520.123 207.162C518.139 212.912 504.874 214.742 508.893 211.74C523.492 200.838 512.135 203.562 515.319 200.054C515.817 199.456 515.851 197.87 516.746 197.356C521.879 200.324 526.143 196.496 529.546 194.481C538.125 189.397 531.167 187.761 534.19 186.724C534.351 186.016 540.658 183.933 541.443 183.748C556.794 180.131 552.572 174.76 546.13 178.967C539.577 183.242 549.701 170.662 541.148 176.775C532.333 183.065 538.387 171.202 535.482 173.268C526.718 179.482 530.745 171.809 530.053 170.291C526.734 163.007 525.248 182.795 524.244 174.642C524.201 174.296 514.668 170.629 521.736 166.514C533.27 159.794 527.3 164.077 528.871 156C529.757 151.405 531.058 153.192 530.424 150.149C529.926 149.98 523.889 153.589 523.5 153.901C514.55 160.907 518.46 145.773 522.58 144.314C530.939 141.355 530.213 141.422 537.931 136.608C537.762 137.013 539.248 136.38 539.712 136.203C545.488 134.07 537.331 134.652 539.712 131.448C544.593 124.888 536.006 129.534 530.534 130.689C516.602 133.632 526.962 127.443 524.108 124.273C522.15 122.106 521.035 128.952 516.391 129.129C510.05 129.382 508.547 124.222 516.053 119.77C524.716 114.627 520.756 116.423 523.627 111.693C527.19 105.825 525.662 103.666 519.836 106.895C510.928 111.828 517.505 105.108 513.013 106.955C506.486 109.636 512.051 102.747 506.841 107.68C499.554 114.585 505.372 102.924 505 102.823C500.187 101.499 508.783 96.7104 510.016 96.1876C520.663 91.7021 508.597 91.5756 519.236 86.4746C519.414 86.4325 519.692 86.2891 519.768 86.2807C528.972 85.1509 519.16 83.0852 517.767 83.4983C513.647 84.7293 508.26 83.7766 508.184 83.7934C495.712 86.3228 507.204 81.0111 506.275 80.0752C502.915 76.711 502.189 81.1038 504.705 75.6318C505.346 74.2406 513.25 65.1431 513.157 65.0167C509.847 60.3878 504.603 68.3724 503.607 66.5849C502.138 63.9543 501.082 69.2071 499.242 67.1667C496.194 63.7857 503.725 60.9443 502.02 56.796C499.689 51.147 517.033 53.297 511.232 49.3342C507.55 46.8217 500.162 50.8182 499.959 51.0542C495.721 56.0288 490.756 55.1688 491.879 52.7152C493.407 49.3764 495.501 48.9211 498.406 43.4744C501.657 37.3701 499.892 32.3365 495.206 38.972C490.722 45.3124 492.951 36.1897 493.736 34.9334C497.494 28.8881 491.305 30.8779 492.208 26.4345C493.441 20.4229 499.715 13.6525 496.776 6.51108C494.505 0.99694 492.74 21.3841 490.638 19.9761C486.162 16.9829 491.245 21.7888 488.653 22.1682C484.203 22.8259 490.722 25.9708 488.831 27.8594C484.55 32.1341 488.501 28.7869 487.345 31.5777C485.588 35.8102 484.794 29.2759 484.769 29.2253C482.135 25.0855 484.71 33.7024 481.476 31.1055C479.205 29.2843 482.768 37.7495 479.433 35.6163C470.398 29.8324 483.08 45.0679 483.123 45.2619C483.95 46.0291 482.675 46.6783 482.185 46.3748C477.82 43.6177 479.078 49.9835 476.891 47.9431C470.997 42.4458 474.037 48.9801 475.439 52.0154C477.82 57.1754 480.269 56.4756 481.214 58.769C482.548 62.0151 479.011 64.3422 477.297 61.6104C473.961 56.307 473.058 63.6508 469.647 58.9292C466.379 54.4099 462.976 55.7 465.281 58.6004C471.842 66.88 463.635 67.2004 473.691 69.7804C482 71.9136 473.978 72.2002 477.06 73.153C486.61 76.1293 474.51 78.1359 478.935 79.4934C480.944 85.4881 475.262 80.3787 473.877 80.6063C470.381 81.1881 474.586 84.9401 474.586 85.0666C474.586 87.3768 476.891 87.4695 479.745 90.0411C479.745 90.3615 479.872 91.3733 479.585 91.525C472.965 94.9735 483.401 94.2905 481.577 99.2819C478.073 108.826 474.443 95.0241 473.345 99.2819C471.977 104.577 466.134 95.4372 467.096 101.238C468.076 107.064 461.515 101.187 458.746 100.69C457.614 100.488 460.747 108.059 462.841 108.835C467.907 110.706 464.867 114.13 469.545 113.86C484.778 112.983 477.584 118.43 484.051 123.725C489.911 128.522 485.673 128.699 484.778 127.679C479.171 121.279 481.409 131.111 477.904 127.426C470.491 119.627 474.671 129.433 474.063 129.517C470.077 130.031 480.801 137.906 474.941 137.679C467.747 137.392 475.202 138.513 478.141 141.768C473.987 146.388 482.329 143.108 484.499 147.636C488.121 155.157 484.541 152.037 481.831 150.005C477.102 146.464 477.102 150.84 476.68 152.046C473.243 153.235 471.259 148.606 471.209 148.564C464.766 143.876 469.697 154.322 461.625 149.069C452.784 143.311 460.071 151.54 455.182 149.896C442.534 145.638 459.489 154.938 458.323 157.762C456.196 162.922 462.756 160.772 460.992 163.757C457.217 170.14 464.116 164.929 464.791 168.234C465.965 173.993 472.382 167.796 474.029 176.826C475.38 184.212 470.035 175.612 467.088 176.826C459.894 179.785 461.515 170.561 455.697 170.561C455.697 177.584 455.866 175.35 449.626 171.758C439.882 166.143 441.672 171.581 445.742 173.714C464.504 183.562 448.157 178.942 450.209 181.539C452.388 184.296 459.126 186.134 455.385 188.933C451.568 191.791 461.904 189.903 463.483 193.444C467.958 203.494 455.225 193.225 455.343 196.159C455.52 200.602 447.389 190.442 448.208 197.044C448.841 202.162 437.045 191.108 435.762 190.695C428.458 188.318 439.215 197.98 439.697 198.452C444.51 203.258 434.082 197.44 433.626 197.626C431.498 198.503 439.975 202.584 441.098 208.418C441.174 209.194 438.548 211.529 441.808 212.55C446.848 214.135 439.705 220.357 449.154 217.608C457.369 215.214 452.084 220.155 452.117 220.332C452.193 220.72 464.099 224.219 458.366 224.918C452.345 225.652 465.712 227.414 467.088 232.751C469.106 240.601 459.556 228.738 458.222 231.689C456.331 235.854 451.281 227.448 450.716 227.111C441.14 221.529 448.655 231.276 443.775 231.874C436.902 232.726 435.889 234.345 443.192 234.345C449.854 234.345 444.45 235.736 446.443 237.717C449.719 240.989 456.457 241.006 453.19 243.358C448.748 246.562 467.451 247.439 458.171 249.622C452.717 250.904 462.545 256.882 455.25 255.086C440.887 251.553 459.962 258.45 457.074 259.884C454.608 261.115 469.351 266.081 466.877 270.768C464.58 275.136 460.806 266.156 458.72 266.325C448.774 267.143 447.963 250.921 445.953 254.993C443.032 260.895 442.01 256.578 437.248 254.53C428.12 250.609 439.511 258.113 438.92 260.145C436.598 268.104 439.266 265.912 447.152 270.583C446.933 270.827 446.967 271.232 446.975 271.468C447.009 272.362 434.495 268.205 440.389 271.873C443.539 273.829 450.141 281.62 446.08 283.441C437.822 287.151 457.639 293.618 452.312 294.056C448.166 294.402 447.684 290.49 447.684 297.656C447.684 301.535 449.525 304.907 449.238 305.59C446.409 312.445 442.238 305.388 442.196 305.379C441.225 302.563 445.979 301.965 444.628 295.489C442.719 295.102 444.163 298.719 442.297 300.017C435.576 304.713 442.981 292.285 439.367 294.613C431.717 299.536 439.502 291.754 439.68 291.366C440.11 291.366 440.575 291.392 440.938 291.029C445.362 286.611 441.934 287.286 439.502 287.286C439.502 286.636 439.426 283.93 439.545 283.508C440.837 279.073 437.991 280.633 439.08 278.399C439.393 277.767 440.853 276.148 440.938 275.751C441.622 272.396 435.23 276.198 434.512 276.493C428.838 278.837 440.862 263.281 433.845 267.253C427.141 271.047 437.788 261.722 434.158 261.873C425.773 262.236 432.427 258.905 428.644 259.369C424.414 259.892 432.84 263.475 420.453 263.475C420.453 255.179 429.176 260.684 429.176 249.083C428.787 247.953 427.259 247.101 426.685 247.354C415.522 252.262 427.698 241.225 422.59 241.444C415.176 241.764 421.703 237.473 424.194 236.41C429.429 234.168 429.505 229.455 427.394 229.539C421.99 229.75 425.596 224.033 420.985 228.831C414.078 236.023 415.607 228.342 417.785 223.679C419.896 219.126 412.246 219.615 414.94 219.059C414.864 218.14 418.326 212.221 419.018 211.42C426.651 202.575 414.171 212.499 416.232 207.508C419.693 199.11 414.771 197.499 414.762 200.889C414.754 203.772 413.065 209.894 412.432 206.816C410.448 197.103 418.52 194.329 419.018 190.274C419.989 182.416 414.813 193.022 412.449 193.309C408.016 193.857 414.374 188.916 414.357 188.899C411.309 184.633 414.391 187.989 413.884 184.574C413.394 181.261 413.411 171.396 411.393 169.887C405.93 165.789 413.107 182.07 408.886 184.726C406.2 186.412 408.261 189.262 405.491 188.697C395.992 186.766 403.076 191.699 405.863 192.415C409.257 193.284 410.904 202.17 409.603 204.498C409.434 204.97 404.824 200.214 403.355 200.569C397.714 201.951 406.428 207.432 406.454 207.465C410.988 214.371 400.535 204.869 402.966 211.42C403.735 213.494 392.589 212.381 399.454 214.927C415.159 220.762 397.402 216.47 405.145 220.602C412.863 224.716 407.357 223.687 406.791 224.084C401.261 228.021 401.59 222.305 398.576 219.598C394.523 215.956 395.131 219.64 394.776 220.484C392.471 226.057 402.443 227.836 407.087 232.557C411.419 236.967 404.503 236.512 404.478 236.528C402.35 238.038 398.01 230.188 397.478 234.53C396.963 238.695 386.071 232.709 388.891 235.82C392.91 240.264 387.852 238.948 389.533 241.596C391.255 244.302 395.021 239.538 399.572 245.601C402.215 249.117 406.682 249.53 406.935 250.356C408.278 254.816 404.655 256.157 404.621 256.224C404.469 255.777 403.895 255.668 403.76 255.339C400.416 246.95 399.462 258.644 396.549 252.068C391.871 241.503 394.329 249.125 390.934 250.187C385.995 251.73 388.046 254.496 389.364 254.454C400.248 254.108 392.631 261.485 397.461 265.355C402.814 269.647 393.501 270.043 394.531 271.645C396.718 275.06 391.39 272.278 391.044 271.704C386.256 263.813 385.691 272.067 383.208 267.969C380.287 263.146 378.817 272.876 378.817 273.289C388.207 272.488 385.834 282.277 379.172 278.399C367.106 271.367 381.747 286.468 381.781 286.535C387.388 298.263 370.906 290.296 373.346 296.214C377.931 307.327 370.433 306.088 370.45 306.526C370.779 314.089 362.513 307.083 368.668 301.948C376.495 295.422 370.137 295.852 370.847 294.79C380.202 280.878 371.421 287.867 371.412 287.918C370.483 288.196 369.487 289.891 368.297 289.646C365.206 289.022 363.762 293.415 363.864 290.296C364.066 283.829 363.332 282.733 371.412 280.271C371.522 279.95 372.882 278.449 372.358 277.185C369.943 271.325 381.165 265.954 376.808 267.101C363.171 270.684 391.382 256.932 378.277 258.543C372.991 259.192 368.905 266.156 368.297 263.163C367.148 257.565 366.295 269.175 365.333 267.548C363.408 264.293 357.117 270.6 359.709 266.334C362.344 261.991 353.875 262.919 362.437 256.393C362.69 256.393 362.935 256.427 363.163 256.275C367.241 253.611 370.627 259.057 371.353 255.516C371.944 252.624 379.206 242.523 374.005 242.523C373.312 242.523 370.12 235.205 367.376 245.086C366.895 246.832 363.197 242.776 362.42 247.489C361.694 251.924 360.824 245.112 358.384 246.84C353.199 250.516 349.805 246.882 353.706 246.604C357.32 246.343 363.104 240.896 362.023 239.378C358.789 234.834 372.67 227.498 366.16 227.777C358.502 228.105 364.353 226.664 361.905 226.158C360.596 225.888 357.657 231.2 350.675 232.051C343.151 232.97 349.83 227.743 351.924 225.812C358.51 219.758 350.387 221.79 348.547 223.485C341.336 230.112 347.559 221.672 345.524 221.057C340.551 219.556 356.501 213.384 350.506 212.642C344.654 211.926 352.093 207.794 354.246 206.968C355.775 206.968 361.677 205.105 361.145 203.41C360.849 202.466 350.835 201.681 350.624 202.162C348.268 207.651 344.73 205.729 344.62 204.826C344.063 200.332 338.229 203.654 344.857 195.392C348.133 191.311 343.81 191.353 343.793 191.361C340.314 193.832 339.385 191.201 338.406 191.623C332.056 194.363 335.197 187.534 335.265 187.449C339.166 182.593 341.598 174.524 334.8 182.07C329.996 187.399 331.33 177.112 331.288 175.612C331.22 173.495 335.788 158.58 332.664 161.396C328.248 165.376 331.001 162.492 330.232 157.358C328.223 143.901 326.061 159.921 325.605 160.039C322.54 160.798 326.779 167.492 324.896 168.538C322.093 170.097 327.218 172.374 326.483 176.21C326.399 176.556 326.399 176.379 326.129 176.505C321.535 178.672 325.47 178.133 326.441 180.831C328.121 185.527 320.032 176.598 318.512 176.952C318.116 178.866 316.579 183.115 316.511 183.672C316.326 185.19 330.139 189.667 323.824 190.442C315.903 191.412 326.804 196.294 320.927 196.294C316.765 196.294 322.354 203.005 314.747 197.365C305.492 190.501 312.467 202.39 312.965 202.516C323.967 205.341 320.497 211.226 319.374 211.226C313.269 211.209 318.386 215.99 311.724 211.808C304.707 207.406 314.502 217.836 315.101 218.519C315.608 218.637 315.287 220.045 318.529 219.775C327.142 219.067 323.714 231.132 321.214 225.981C318.149 219.683 321.366 229.202 317.947 227.288C308.844 222.17 313.32 229.218 316.3 230.601C326.981 235.567 322.599 239.193 322.447 239.083C320.801 237.911 318.284 239.539 317.018 236.461C313.345 227.591 315.371 240.744 310.542 237.009C305.889 233.417 302.841 234.724 306.666 237.523C312.568 241.857 306.193 242.371 311.546 244.69C318.892 247.877 308.532 250.061 315.11 250.862C319.154 251.359 316.283 261.797 314.333 258.416C311.065 252.742 308.304 260.179 307.274 254.707C305.239 243.864 304.369 255.971 302.334 254.53C293.587 248.324 298.923 255.499 298.746 256.368C297.26 263.644 305.442 260.566 309.005 266.662C312.171 272.075 315.523 274.301 308.827 274.301C301.22 274.301 315.169 282.783 308.515 280.035C304.715 278.466 312.551 290.591 306.058 285.97C300.021 281.679 299.886 288.12 296.415 287.985C288.807 287.69 300.654 279.748 298.146 277.741C296.061 276.072 307.992 269.976 304.893 266.544C301.617 262.91 300.24 266.064 300.325 263.821C300.477 259.968 285.118 268.475 291.602 259.378C300.418 247.009 287.516 259.943 297.116 246.048C298.872 243.493 294.701 244.201 294.22 244.8C291.602 248.096 294.363 239.041 290.353 244.15C289.576 245.137 281.757 251.781 283.994 246.031C287.085 238.08 281.909 241.773 278.962 243.602C275.872 245.525 273.592 236.621 283.505 236.621C288.664 236.621 289.095 229.53 287.507 229.025C276.1 225.407 290.547 225.863 290.665 225.736C296.483 219.472 301.853 222.018 303.381 219.025C307.088 211.791 298.357 215.703 298.307 215.762C295.41 219.151 296.508 207.55 293.426 212.448C290.218 217.549 291.822 214.295 289.702 215.146C285.337 216.892 284.822 210.534 281.276 215.298C280.541 215.576 280.06 216.049 279.139 216.479C274.158 218.797 273.288 215.973 273.735 215.593C280.592 209.759 273.035 209.287 273.972 206.589C274.014 206.589 276.235 206.133 277.467 206.218C280.321 206.411 285.455 205.737 285.734 202.322C286.376 194.321 292.464 201.859 295.216 194.65C298.247 186.699 291.324 194.506 286.257 194.506C286.257 181.328 281.444 197.348 281.63 192.904C281.841 188.031 279.494 187.289 278.65 189.886C274.918 201.336 261.087 181.505 281.276 179.026C288.36 178.158 288.419 172.812 284.881 174.642C281.276 176.514 282.103 172.365 279.899 173.934C275.331 177.18 277.299 167.77 273.491 172.29C266.271 180.856 267.74 167.155 275.585 167.492C285.81 167.93 279.595 165.848 283.42 164.001C291.915 159.878 290.201 156.455 281.495 158.428C278.016 159.212 275.416 156.835 275.205 157.138C269.37 165.721 266.305 159.044 265.621 159.12C258.663 159.98 268.652 151.7 268.07 150.073C266.803 146.515 273.491 145.596 276.48 142.611C275.238 137.004 271.472 143.134 269.758 142.029C264.92 138.91 267.225 143.893 263.502 145.048C254.399 147.872 265.258 138.184 265.461 135.849C266.077 128.75 265.325 132.67 272.047 130.208C279.291 127.544 270.003 127.224 268.813 126.667C260.538 122.806 262.404 127.966 260.327 126.735C257.557 125.099 259.592 127.493 256.012 127.493C255.531 127.493 253.209 119.214 256.012 118.017C263.797 114.678 264.506 106.213 260.69 109.071C252.651 115.091 254.678 107.309 257.143 104.256C260.572 100.015 250.785 104.467 257.794 98.54C264.861 92.5537 256.62 94.5603 256.417 94.2146C254.323 90.6987 255.134 95.2264 252.162 92.2417C251.816 91.896 253.42 82.6973 253.834 82.1409C260.816 72.8747 251.385 81.2471 251.908 77.0146C252.82 69.6371 250.929 62.7402 248.852 72.2592C246.825 81.5591 245.221 71.9641 246.243 80.2101C247.484 90.2772 243.659 86.9215 239.994 85.7664C233.079 83.5911 241.936 89.7966 243.262 90.8758C248.607 95.2433 234.658 93.6582 238.973 95.8082C244.866 98.7423 249.721 107.25 245.694 105.58C237.824 102.334 244.621 108.405 244.621 108.826C244.621 113.126 236.237 107.056 235.899 106.904C229.448 103.945 244.495 115.2 244.976 116.111C248.252 117.721 241.877 119.593 241.818 119.711C239.614 124.129 237.419 120.386 234.295 121.49C229.609 123.151 244.301 125.234 243.355 131.557C242.012 140.579 239.023 128.235 236.397 132.266C239.302 139.626 239.395 137.316 236.431 137.434C229.051 137.721 232.26 136.549 228.376 136.178C218.632 135.233 236.575 140.967 234.531 142.653C232.049 144.702 243.904 145.056 243.904 151.835C243.625 152.636 243.6 157.256 242.173 156.236C237.005 152.552 238.534 156.666 235.3 155.275C221.435 149.314 239.868 161.784 234.827 161.093C228.215 160.182 237.909 166.565 239.682 167.34C243.887 169.187 240.653 179.524 236.667 173.529C230.14 163.706 234.371 177.323 231.137 175.249C230.875 175.08 221.781 163.428 224.981 172.602C230.563 188.613 221.393 176.446 218.784 180.434C220.413 184.557 210.593 181.117 214.705 186.134C220.498 193.208 210.999 195.527 209.74 194.97C206.92 193.747 196.627 196.935 199.954 192.702C207.815 182.702 200.359 186.977 202.479 183.857C203.509 182.34 211.792 185.544 219.181 174.566C219.113 174.6 219.054 174.65 218.995 174.701C218.623 175.182 218.725 174.929 218.995 174.701C219.02 174.667 219.037 174.65 219.062 174.617C225.843 165.595 208.229 176.421 206.397 171.902C203.019 163.588 216.529 166.506 214.081 162.467C212.594 160.022 214.621 158.563 216.158 158.378C230.875 156.565 222.685 155.663 226.349 148.395C228.984 143.159 225.37 141.827 224.12 143.623C219.577 150.199 220.928 145.823 216.867 148.665C210.72 152.965 212.704 147.274 210.635 149.331C206.456 153.496 209.588 153.648 205.122 155.199C193.089 159.356 207.925 149.432 204.767 148.311C198.603 146.127 215.541 144.559 212.307 141.802C208.136 138.26 215.98 137.249 215.98 129.955C215.98 127.696 205.4 139.896 207.706 134.323C209.251 130.596 205.113 131.397 203.298 134.028C197.961 141.751 194.39 139.778 196.577 136.928C200.461 131.878 194.88 126.996 200.495 124.618L200.866 124.5C207.748 119.998 210.441 126.347 211.015 123.564C212.578 115.883 212.848 119.678 215.837 115.841C221.849 108.135 211.801 111.718 210.779 111.415C203.627 109.273 206.456 111.592 204.885 111.921C203.467 116.195 201.069 112.249 199.591 114.13C196.374 118.227 195.859 111.162 193.241 117.089C190.565 123.151 184.612 118.101 191.418 112.334C194.094 110.066 195.462 105.378 194.804 105.243C194.348 102.393 189.349 108.211 188.927 106.676C188.167 103.885 183.126 108.118 182.856 104.88C182.754 103.658 196.864 90.8168 198.713 89.628C203.636 86.4662 204.176 81.1291 199.068 83.8524C191.308 87.9838 200.25 74.9826 190.573 84.5607C186.613 88.4813 181.437 88.768 186.081 82.3938C193.334 72.4363 185.659 74.991 185.532 74.9067C180.111 71.3571 194.998 61.1551 195.158 60.8094C197.717 60.5733 195.403 59.1906 194.981 59.2074C189.188 59.4519 188.606 53.6511 186.242 56.5431C182.003 61.7453 180.441 53.6933 182.121 52.378C186.613 48.8705 185.642 44.3513 182.332 46.3495C174.623 51.0037 182.02 42.412 177.545 44.1489C170.773 46.7711 173.677 39.0732 173.981 38.7697C184.232 28.9471 182.053 23.0367 178.803 26.8645C172.917 33.7783 177.815 27.6233 174.513 27.7498C169.126 27.9606 174.598 12.2697 172.613 9.25129C169.008 3.75401 170.308 18.9474 170.123 19.2341C168.054 22.3959 171.322 21.1227 169.709 23.3065C169.81 23.1547 170.241 29.4445 166.635 25.8359C162.641 21.8478 164.93 33.382 165.242 33.4494C174.007 35.2285 171.068 46.7289 167.201 41.7881C160.091 32.7075 164.313 42.6734 162.945 42.6734C159.061 42.6903 161.366 46.7964 162.397 47.1168C172.571 50.2785 164.237 54.5364 162.574 52.8164C157.668 47.7491 156.841 51.2988 158.479 52.9935C164.406 59.1147 159.923 55.7421 159.365 58.4739C157.752 66.3826 167.691 60.1349 171.482 63.9965C171.482 63.8531 171.406 63.2208 171.718 63.5833C175.873 68.3133 170.519 70.1936 170.46 70.3959C168.603 76.0955 168.983 71.2812 161.29 71.2812C157.077 71.2812 172.749 79.7801 168.29 82.6889C163.756 80.893 164.406 84.1054 164.651 84.3162C170.401 89.2064 164.668 94.8976 161.907 90.1339C157.026 81.7109 154.299 96.1792 159.399 94.9313C166.019 93.3125 167.589 100.656 164.904 101.491C155.878 104.307 169.954 104.417 164.001 109.315C163.511 111.718 159.711 110.099 159.019 109.509C153.573 104.889 157.736 112.266 157.195 112.663C152.661 115.976 149.072 103.961 146.201 106.634C140.983 111.499 135.9 106.145 134.068 110.563C134.532 111.356 144.935 110.234 143.846 112.873C141.245 119.18 145.914 117.165 150.803 119.762C161.316 125.327 149.9 126.549 149.942 126.558C150.254 127.923 155.025 129.972 157.685 129.357C163.503 128.016 164.93 136.439 165.732 140.672C167.294 148.909 155.642 139.652 155.633 139.711C151.014 140.503 159.044 148.024 159.821 149.01C164.431 154.912 159.804 154.078 158.867 153.336C152.771 148.488 154.772 154.078 150.668 152.906C139.978 149.87 136.635 155.41 142.284 155.174C149.934 154.845 148.996 156.928 153.092 158.968C168.383 166.581 161.848 171.303 159.07 168.816C150.922 161.506 158.065 174.06 152.644 168.639C146.201 162.189 151.065 165.84 145.475 165.84C138.923 165.84 143.018 166.033 140.342 166.581C139.945 167.593 141.456 170.081 141.735 171.354C141.98 172.07 147.468 172.239 148.456 172.239C158.453 172.239 145.568 177.306 154.89 176.505C158.158 176.227 161.299 178.917 161.848 181.48C163.182 187.702 158.572 177.846 155.929 181.969C153.235 186.159 147.468 178.976 147.08 178.993C134.608 179.524 138.585 176.362 132.126 173.689C126.713 171.455 136.972 178.967 131.83 178.815C117.831 178.385 125.118 181.497 129.635 181.303C133.299 181.143 134.87 183.554 133.207 184.566C125.869 189.009 141.304 187.264 138.771 191.454C135.132 197.466 142.613 194.169 145.298 194.279C156.376 194.751 147.84 204.076 152.576 203.874C158.943 203.604 157.997 206.31 155.971 206.555C144.96 207.87 166.737 211.066 163.933 218.966C161.029 227.144 149.089 213.57 149.207 216.495C149.511 224.286 151.58 219.43 143.508 218.435C143.103 218.384 131.839 209.194 136.255 215.787C139.641 220.846 133.705 219.371 137.276 221.057C145.425 224.91 141.549 219.767 141.549 228.224C142.317 228.923 142.478 230.905 144.572 229.126C149.115 225.273 151.31 228.165 150.862 229.159C148.118 235.213 154.578 227.785 156.984 231.942C166.796 248.906 157.955 239.547 153.649 241.849C152.019 242.717 137.26 236.992 145.154 242.532C158.546 251.933 152.053 247.978 151.031 249.951C148.017 255.744 142.824 245.803 142.427 245.491C131.763 237.195 147.426 254.184 135.309 248.543C126.95 244.648 134.119 252.042 134.228 252.068C134.507 252.86 127.178 254.226 132.995 254.892C149.976 256.857 136.153 262.345 141.735 262.345C153.987 262.345 143.212 267.868 142.984 268.214C140.206 269.099 145.636 271.148 147.949 270.052C153.463 267.446 151.825 269.504 155.202 268.905C147.586 273.762 163.224 274.773 162 278.306C153.573 280.262 157.499 282.1 157.195 283.154C155.667 288.458 152.576 278.576 150.753 281.35C147.206 286.754 136.761 269.192 139.379 275.844C142.968 284.959 127.929 270.06 132.548 277.707C137.699 286.232 129.998 278.922 129.998 284.925C136.077 284.925 133.325 285.397 136.761 286.94C148.312 292.134 139.793 291.307 136.981 292.968C133.553 294.983 144.04 300.683 144.783 301.147C145.053 301.315 150.229 314.131 143.162 311.113C129.246 305.169 142.022 317.597 134.617 315.185C127.659 312.917 136.609 319.359 134.279 320.885C130.944 323.069 134.608 327.832 135.512 328.338C141.262 331.551 140.848 334.847 137.158 333.76C132.818 332.478 132.21 337.225 129.947 334.518C121.732 324.679 128.74 342.191 123.944 341.98C120.507 341.837 115.922 348.675 112.866 346.828C106.93 343.236 109.725 339.619 112.731 335.227C119.03 326.036 122.416 330.952 125.075 326.922C127.262 323.6 131.94 320.303 128.394 319.013C126.401 318.279 129.17 312.302 130.395 310.944C140.536 299.688 123.108 313.001 125.497 306.703C127.6 301.172 114.453 317.715 113.423 312.673C112.705 309.131 119.688 304.157 119.781 303.946C126.165 290.439 116.117 304.958 116.978 300.734C118.447 293.559 115.787 299.326 114.326 292.926C115.534 290.65 116.733 286.324 120.381 287.817C124.805 289.638 128.605 287.437 126.443 285.945C119.41 281.105 131.003 282.252 129.23 278.087C126.241 271.072 138.83 269.664 137.597 267.733C134.845 263.442 140.029 261.73 136.415 261.469C129.238 260.946 129.035 270.279 127.279 265.558C124.738 258.737 123.918 275.009 121.85 270.844C119.553 266.216 119.317 274.967 116.513 272.978C109.429 267.944 113.702 267.16 111 275.153C108.686 281.991 105.883 271.94 104.126 276.038C100.183 285.237 97.7936 272.084 101.517 271.755C109.429 271.072 106.001 267.784 106.296 267.624C111.202 264.858 108.247 266.215 110.763 264.369C115.956 260.55 113.431 257.051 118.979 254.858C127.068 260.145 126.055 249.774 128.216 247.413C136.584 238.282 126.376 247.363 125.337 244.749C130.032 237.574 118.363 247.439 116.581 245.356C115.981 244.656 115.585 244.117 115.331 243.712C114.841 243.586 114.225 243.392 113.44 243.113C112.283 242.709 114.073 236.039 111.363 239.648C107.791 244.403 98.4354 242.709 103.958 238.83C117.51 229.311 100.293 238.012 105.781 233.544C120.102 221.892 113.22 227.338 111.658 225.205C111.244 222.456 119.697 218.401 121.444 216.091C126.426 209.548 117.636 214.177 117.467 213.84C111.861 202.862 112.469 224.944 109.564 215.29C105.613 202.128 107.732 219.269 106.153 219.522C100.774 220.399 97.5994 225.171 96.0205 224.632C94.8299 221.183 94.6526 224.741 91.5706 224.101C88.362 214.834 98.0638 215.56 98.4945 212.044C99.1193 207.002 101.34 208.46 104.354 204.481C113.583 192.272 99.2628 204.506 99.3726 201.74C99.5753 196.513 92.6599 205.981 91.0555 202.761C87.7878 196.209 101.821 197.221 102.429 195.687C99.1446 190.645 108.787 194.557 109.353 187.576C109.885 181.075 106.119 186.378 102.395 188.183C86.9266 195.678 105.722 184.161 91.3595 188.646C87.1039 189.979 88.0496 186.024 85.888 187.399C79.9098 191.226 81.3706 184.835 81.4381 184.734C86.4368 176.843 78.7024 184.06 78.8966 179.532C79.209 172.197 85.2125 176.337 87.9567 177.998C96.7635 183.326 90.2787 174.288 90.2872 174.026C90.5574 167.281 87.7541 172.441 87.2643 172.779C85.3054 171.742 83.49 170.991 83.1522 167.45C82.73 162.99 80.0872 163.074 80.1378 164.431C80.4333 171.801 76.6421 164.179 76.3973 158.563C76.1693 153.226 97.1435 164.625 89.9832 158.698C86.7155 155.992 79.0908 152.838 80.0027 150.393C82.5443 143.547 75.1898 151.329 74.7761 148.1C73.9401 141.549 84.6637 142.198 84.9254 140.09C85.7191 133.632 67.9282 142.206 75.7471 133.564C87.239 120.858 74.5312 129.787 74.6156 127.654C74.9534 119.163 73.7375 124.998 70.5542 123.893C68.9921 117.19 75.2658 116.111 78.3731 113.7C81.759 111.069 77.2163 106.558 73.957 110.108C67.4216 117.216 74.6156 92.1405 69.8196 90.6903C63.1491 88.6752 71.711 106.55 65.9017 104.155C63.5712 103.194 68.2153 112.452 62.5242 109.416C54.3845 105.074 61.587 112.376 63.2842 113.556C66.9487 116.111 61.3506 116.895 58.657 121.836C55.6426 127.367 65.7582 119.315 64.8378 121.954C63.8077 124.922 57.6944 130.428 61.6461 129.627C68.9752 128.134 67.3034 128.421 68.9246 134.407C69.0343 136.001 66.459 136.178 65.7666 135.427C60.8608 130.149 65.2009 137.367 61.4519 136.911C52.0962 135.765 59.0032 140.275 59.4929 140.275C67.1767 140.275 66.003 147.198 65.3698 147.695C61.5616 150.688 64.652 149.887 64.137 152.375C62.9633 158.099 55.9044 147.965 54.8658 151.278C51.826 160.991 62.4651 157.298 64.0019 159.229C66.915 162.872 68.8655 165.157 62.6931 165.157C54.6378 165.157 65.564 169.499 65.5386 170.131C65.3275 175.51 56.3012 167.399 58.4544 171.489C61.0719 176.455 57.0358 173.217 56.3519 172.07C51.2012 163.386 45.679 174.279 53.6245 174.752C54.0805 175.679 53.1686 178.79 56.4701 178.664C61.7136 178.461 59.6027 187.542 56.9429 183.478C54.0974 179.127 49.1156 181.75 48.1024 178.841C44.8346 169.398 43.4836 179.515 41.8709 179.566C35.1835 179.768 36.9904 185.999 40.579 183.596C43.1206 181.893 47.0216 183.588 47.0216 184.481C39.684 186.749 54.8404 189.903 52.7464 190.99C47.925 193.495 59.7378 195.257 57.2469 197.39C52.5269 201.42 59.1214 200.771 59.3325 203.789C59.8645 211.403 54.9671 202.55 53.5063 204.489C50.3146 208.713 50.1542 200.383 48.2797 197.87C45.4088 194.009 45.7466 196.184 45.2062 196.935C39.5911 204.784 52.7971 207.061 49.3436 208.131C44.2351 209.717 55.7777 214.91 52.738 215.298C46.878 216.049 53.9876 218.839 52.3664 220.795C46.4389 220.795 45.7972 212.541 43.8721 213.907C39.836 216.774 40.3764 211.976 37.4211 210.602C29.4417 206.884 35.9941 213.536 35.9941 214.75C35.9941 217.01 29.7035 214.936 29.7626 214.927C29.4333 219.042 38.485 217.802 37.9699 219.919C37.0833 223.527 48.1952 221.689 46.1434 228.257C45.8057 229.244 44.2098 229.345 43.4583 228.746C37.3451 223.848 41.8709 230.374 42.2255 231.992C43.6694 238.485 51.7163 237.566 48.8285 239.252C41.6091 243.451 50.4919 242.102 51.902 244.243C55.6257 249.934 45.5608 243.67 46.3714 245.5C47.925 249.049 44.6827 247.911 44.48 247.692C41.6851 244.589 42.9855 242.27 40.5621 245.272C38.7552 247.515 35.2172 243.012 34.4066 241.958C27.0606 232.338 34.4826 244.901 28.1583 241.823C20.4914 238.088 21.2176 236.107 22.9992 243.004C23.2356 243.923 36.4163 249.294 29.408 251.182C21.6904 253.256 27.0184 254.454 28.0316 254.159C31.9495 253.02 40.6043 253.526 41.1701 258.113C42.0482 265.221 44.1591 258.973 44.7164 265.937C43.6947 266.696 41.1194 266.114 40.1315 265.583C35.5634 263.113 33.0134 264.192 35.5043 266.055C38.6792 268.441 33.8409 270.414 38.8396 270.204C43.6694 270.001 45.1724 274.816 44.3111 276.021C40.5199 281.35 43.205 276.114 41.8624 281.755C38.9916 283.508 37.2015 282.859 35.5888 279.976C33.0557 275.448 31.2994 285.152 25.8278 279.798C18.9631 273.079 21.1669 283.947 29.18 287.041C39.3969 290.979 34.8626 293.761 33.157 293.086C21.7495 288.542 27.2295 294.95 30.2946 295.751C33.7312 296.653 38.0881 299.874 38.1219 299.882C39.076 302.614 33.5454 303.592 38.3752 304.637C44.0409 305.868 42.1242 319.064 30.7843 311.256C18.6253 302.892 27.1873 312.555 27.7614 314.098C29.6866 319.283 21.8002 309.561 21.9353 312.85C22.3152 322.495 20.9642 319.3 29.7626 322.048C36.2812 324.089 29.3573 328.743 33.6805 330.05C46.4221 333.894 36.678 340.007 33.1316 340.564C30.0919 341.044 32.7855 331.222 24.8315 339.645C21.3949 343.287 19.8159 340.395 21.6313 337.393C28.1583 326.584 19.951 330.488 20.922 328.136C26.8664 313.71 13.424 332.554 14.2768 327.428C15.8474 318.01 11.4144 329.898 5.43625 326.492C0.310917 323.574 7.46275 319.443 9.82699 318.136C9.87765 318.111 24.5697 312.909 19.6301 312.302C11.2709 311.281 17.401 310.708 18.2032 307.698C18.8449 307.108 18.4142 307.276 18.6085 306.813C20.5083 302.201 17.5108 306.526 14.6315 305.936C11.1273 305.228 19.9003 297.024 20.3985 296.501C27.8121 288.736 12.2588 296.594 10.5869 292.943C10.2998 292.319 17.6628 280.785 13.7449 283.921C4.92963 290.979 10.8065 279.36 13.0525 278.053C14.8341 277.016 23.9449 268.728 16.0753 271.654C-2.23064 278.458 9.89454 269.613 5.92599 269.285C1.50148 268.914 4.55811 268.855 3.25777 268.593C3.25777 266.047 6.3144 262.767 3.06357 263.425C-4.49356 264.959 7.28543 257 4.32168 256.157C-4.46823 253.636 7.86804 249.15 8.77152 238.206C9.1346 233.763 2.0081 247.397 -0.0859375 246.579L-0.00150032 246.587ZM1048.01 307.951C1049.05 305.135 1049.34 304.115 1051.59 304.385C1056.7 305.017 1048.45 310.312 1049 311.054C1054.37 318.187 1042.8 315.565 1042.33 315.826C1036.25 319.19 1034.68 315.649 1038.86 313.6C1045.43 310.388 1037.84 311.686 1037.61 309.806C1037.25 306.821 1042.27 309.738 1042.58 309.519C1044.38 308.238 1047.51 309.275 1048.01 307.943V307.951ZM1028.1 298.078C1030.65 295.717 1031.11 292.665 1033.85 291.307C1034.16 291.147 1028.85 289.882 1030.58 288.221C1032.5 286.383 1039.29 281.148 1041.78 281.653C1043.01 281.906 1050.14 278.003 1046.96 281.738C1045.06 283.972 1033.91 290.051 1039.92 290.793C1042.1 291.063 1040.58 292.69 1040.08 293.559C1040.17 293.727 1051.57 301.214 1045.23 300.312C1042.26 299.891 1035.73 294.014 1037.84 299.157C1038.89 301.712 1029.65 301.391 1028.7 302.024C1026.26 303.651 1023.76 302.083 1028.08 298.086L1028.1 298.078ZM243.338 271.249C239.361 271.055 239.488 266.005 234.776 265.044C229.625 263.99 217.171 262.818 229.634 257.961C238.272 254.589 233.332 248.838 238.415 256.089C240.543 259.125 244.368 258.594 239.293 262.413C235.95 264.926 245.044 271.316 243.338 271.241V271.249ZM235.021 227.659C236.135 229.901 242.097 230.938 235.181 232.355C234.345 234.766 252.753 233.417 240.18 237.077C231.736 239.53 237.216 237.152 230.943 244.117C227.97 247.413 233.771 235.744 228.215 237.793C223.833 239.404 220.971 241.849 220.743 242.102C221.283 241.511 222.735 238.771 222.879 238.012C228.097 236.942 215.828 238.653 224.432 232.616C226.67 231.048 225.42 225.07 230.039 228.367C232.766 230.306 230.233 218.005 235.021 227.659ZM210.061 214.329C200.148 208.115 228.485 196.285 218.471 205.712C213.515 210.383 226.028 201.133 221.215 210.113C218.708 214.792 227.042 206.791 226.797 212.954C226.763 213.705 235.789 220.762 225.361 217.221C218.117 214.759 219.746 226.276 215.719 220.585C214.097 218.3 206.954 228.755 206.422 227.802C204.362 224.092 213.506 216.495 210.07 214.337L210.061 214.329Z" fill="#002C15"/>
<path d="M115.407 243.745C113.532 240.727 119.806 244.892 115.407 243.745V243.745Z" fill="#002C15"/>
<path d="M0 238.714C0.329305 234.843 0.270199 232.415 0 231.016V238.714Z" fill="#002C15"/>
<path d="M1270.69 217.882C1270.57 217.832 1270.4 217.798 1270.35 217.781C1270.47 217.832 1270.58 217.849 1270.69 217.882Z" fill="#002C15"/>
</svg>
