<svg width="200" height="45" viewBox="0 0 200 45" fill="none" xmlns="http://www.w3.org/2000/svg">
<path d="M43.75 22.9875C44.1144 23.7164 44.9904 24.5924 45.5787 24.9761C43.1425 24.3686 40.7255 23.9722 39.1397 23.7164V22.2841L37.8673 21.6703C36.9593 21.9004 27.1569 21.2035 26.1914 20.5449C28.4486 19.7776 29.8809 18.9591 30.7697 17.7186C30.0599 17.8465 30.9871 16.6892 29.6379 16.0817C30.8976 15.3975 31.537 14.368 32.5856 12.3858C32.1572 12.405 31.6137 12.4881 30.9423 12.2835C32.3618 10.864 34.0435 7.69248 34.408 5.60156C35.0666 8.447 36.8954 11.5546 37.8097 12.226C37.2534 12.469 36.7163 12.4626 36.1025 12.4306C36.3454 13.1787 37.4389 15.0011 38.5323 15.8451C39.1461 15.1673 40.425 12.5841 40.6296 11.4651C41.0964 13.4665 42.7205 16.9193 44.1017 18.0959C43.2896 18.3389 42.9059 18.2877 42.6182 18.2557C43.3471 20.449 44.8945 22.0923 46.0711 22.9044C45.259 23.2688 44.0377 23.0898 43.7564 22.9875" fill="white"/>
<path d="M39.1417 26.0859C40.6763 26.3929 43.2916 26.9811 45.7853 27.7037C49.0336 28.65 52.0389 30.0184 53.2793 30.6066C53.4584 31.1949 53.9891 32.1413 54.6989 32.9214C55.5045 33.8038 56.5084 34.4432 56.8921 34.6094C56.1823 34.8716 55.3255 35.1402 54.2705 34.8141C53.8612 34.5903 51.7064 33.3626 48.8673 32.1541C47.8187 31.7065 46.6933 31.278 45.5359 30.8752C44.5384 30.5235 43.5601 30.2038 42.5882 29.9225C41.4244 29.5772 39.909 29.1871 39.1289 28.9889V26.0859H39.1417Z" fill="white"/>
<path d="M2.07031 26.1435C3.68166 25.0693 4.58964 24.0207 5.32498 22.8505C4.66637 22.972 3.73281 22.972 3.01666 22.6139C4.1868 21.9745 5.36334 20.6637 6.33527 18.8158C5.86849 18.8349 5.60633 18.8797 4.96051 18.6687C6.45676 17.62 7.88906 14.0712 8.32387 12.4982C8.6308 14.0648 9.54517 15.6059 10.1718 16.3987C10.9647 16.111 12.0133 14.9792 12.3394 14.0457C12.1796 14.0648 11.2716 14.148 10.6578 13.9434C11.8727 12.8883 13.8037 9.35228 14.1298 7.24219C14.3536 8.54022 15.6708 12.0954 17.5444 13.8858C16.8921 14.1288 16.2144 14.1096 15.8307 14.0712C16.1824 15.3693 18.0559 17.1405 19.3347 17.7096C18.6825 17.9973 17.4996 18.2914 17.5508 18.317C18.0367 19.1674 19.5394 20.2672 20.4729 20.7532L21.7006 21.7763V23.2214C20.6839 23.2917 17.6595 23.6242 15.965 23.8608C14.3344 24.091 12.8638 24.3404 12.4993 24.4299C12.4993 24.4299 12.4993 23.9184 12.4993 23.7329L11.732 23.5539L10.6578 24.059V24.7752C9.7306 24.9606 8.55406 25.242 7.31358 25.5809C6.13065 25.907 5.01805 26.297 4.04613 26.6423C3.17012 26.7446 2.28132 26.3354 2.0767 26.1499" fill="white"/>
<path d="M14.6641 22.8144C15.3866 22.5394 19.9841 22.5586 21.5954 22.3412C21.5954 22.3412 22.7656 21.9064 23.0853 21.7849C23.0853 21.7849 23.648 22.0407 24.0124 22.1941V23.0701C28.4053 22.8463 34.1793 23.1597 36.1359 23.3579V22.175L38.5018 21.5419C39.1668 21.3885 40.2346 21.5611 40.5671 21.6826C38.2908 20.8577 32.0884 18.0507 31.4106 16.9573C32.1907 17.1171 33.9682 16.7526 35.0489 16.0429C32.6382 15.2244 31.1868 14.3228 30.234 12.9928C30.963 12.9928 31.8965 12.769 32.6638 12.3662C31.3146 11.6309 29.0255 10.0579 27.9065 7.935C28.482 8.01813 29.358 8.04369 30.0742 7.76234C28.3477 6.55383 26.276 2.97947 25.854 0.703125C25.2657 3.81072 22.9638 7.56412 21.7233 8.24191C22.318 8.49768 23.2643 8.53605 23.8206 8.3634C23.5009 9.17547 20.713 12.0849 19.3638 12.769C20.3869 13.0888 21.199 13.1271 22.1325 12.9928C20.4061 15.1029 17.7333 17.4304 16.1411 17.7885C17.4903 18.6198 19.0761 18.4535 20.0416 18.1977C19.4981 19.8027 15.636 22.3668 14.6705 22.8208" fill="white"/>
<path d="M51.5555 44.7904C40.7812 36.7529 24.2393 31.727 1.6293 32.5583L1.50781 32.5966C16.5471 32.8204 29.5401 38.0126 36.0559 44.784" fill="white"/>
<path d="M39.1367 31.0859C40.8823 31.6039 43.8812 32.5886 46.8226 33.7971C51.7909 35.8369 56.3884 38.9764 58.377 40.6837C57.4626 40.786 56.4907 40.8883 55.3717 40.6837C55.41 41.4958 56.5099 43.1199 57.7695 44.7249C54.7834 42.327 52.4623 40.5942 47.3533 38.126C44.4695 36.7321 41.2021 35.5683 39.1367 34.9033V31.0859Z" fill="white"/>
<path d="M12.5 31.2134V28.2273C12.5 28.2273 14.4758 28.1314 16.4708 28.125C18.3124 28.125 21.5606 28.2401 21.6949 28.2593C21.6949 28.3488 21.6949 31.4884 21.6949 31.4884C21.4072 31.4692 18.485 31.2838 16.3749 31.2134C14.9618 31.1687 13.4911 31.1942 12.5064 31.2134" fill="white"/>
<path d="M0 30.024C0.255769 29.9665 1.73284 29.634 3.114 29.3718C3.74063 29.2503 5.03227 29.0201 6.41982 28.8027C7.9864 28.5597 9.68727 28.3551 10.6656 28.3359V31.2389C10.6656 31.2389 8.48515 31.3157 6.33669 31.4819C4.5463 31.6226 2.7751 31.8464 2.31472 31.9295C2.60246 31.7249 3.04366 31.2773 3.1076 30.8936C2.84543 30.9128 2.19962 30.8681 1.5666 30.689C0.927172 30.51 0.300529 30.2222 0 30.0176" fill="white"/>
<path d="M1.20312 29.2689C1.81058 28.9428 3.41553 27.9262 3.84395 27.3571C4.4514 27.1908 5.73663 26.8136 7.05384 26.5066C8.60764 26.1422 10.2062 25.8416 10.6666 25.7969V27.4402C10.462 27.453 8.06414 27.7471 5.58957 28.2714C3.4475 28.7318 1.44611 29.1986 1.20312 29.2689Z" fill="white"/>
<path d="M55.1621 27.981C53.5188 26.7852 52.0993 25.6407 51.5877 23.7352C52.1057 23.8119 52.7259 23.7352 53.3078 23.5881C51.7604 22.5075 50.392 19.2464 49.9252 17.2578C49.3945 20.1224 47.4187 22.7441 46.3125 23.3515C46.8432 23.5817 47.4315 23.6776 48.0645 23.6712C47.9494 23.959 47.4507 24.5856 46.7985 25.3018C49.2155 25.954 52.809 27.2328 54.657 28.1472C54.7785 28.1088 55.0534 28.0321 55.1621 27.9873" fill="white"/>
<path d="M67.0273 29.3977C67.0273 33.0808 69.5914 35.6001 73.4919 35.6001C77.3924 35.6001 79.9373 33.0872 79.9373 29.3977C79.9373 25.7083 77.386 23.2145 73.4919 23.2145C69.5978 23.2145 67.0273 25.7146 67.0273 29.3977ZM69.7897 29.3977C69.7897 26.3221 71.2028 24.6148 73.4919 24.6148C75.781 24.6148 77.175 26.3285 77.175 29.3977C77.175 32.467 75.7746 34.1998 73.4919 34.1998C71.2092 34.1998 69.7897 32.4734 69.7897 29.3977ZM84.279 35.2676H86.4978L88.6079 29.2571C88.8509 28.5409 89.1833 28.1892 89.6757 28.1892H90.1105V27.0191H86.0438V28.1892H86.4658C87.0093 28.1892 87.2523 28.3299 87.2523 28.6624C87.2523 28.8031 87.2203 28.9949 87.1308 29.2187L85.7305 33.1831L84.4388 29.3721C84.3365 29.0396 84.279 28.7967 84.279 28.624C84.279 28.3299 84.5028 28.1892 84.9632 28.1892H85.2445V27.0191H80.7046V28.1892H81.2097C81.6829 28.1892 81.9451 28.5025 82.1561 29.078L84.2854 35.2612L84.279 35.2676ZM96.7989 32.3135C96.5175 33.6563 95.8909 34.1806 94.5481 34.1806C93.2053 34.1806 92.502 33.2023 92.438 31.316H98.3207C98.3207 28.2915 96.9396 26.7058 94.4266 26.7058C91.773 26.7058 90.0594 28.5025 90.0594 31.1434C90.0594 33.7842 91.7347 35.5809 94.4266 35.5809C96.5559 35.5809 98.0266 34.3405 98.2696 32.3135H96.8053H96.7989ZM96.0124 30.0819H92.5211C92.7322 28.6176 93.3972 27.8823 94.4075 27.8823C95.4177 27.8823 95.9101 28.5793 96.0124 30.0819ZM102.509 33.0488V30.83C102.509 28.9118 103.449 27.7224 104.536 27.7224C104.728 27.7224 104.971 27.7736 105.252 27.8951C104.555 28.0869 104.184 28.5089 104.184 29.0844C104.184 29.7111 104.657 30.165 105.393 30.165C106.25 30.165 106.806 29.5384 106.806 28.6816C106.806 27.5818 105.949 26.7953 104.696 26.7953C103.788 26.7953 103.052 27.2876 102.515 28.2596V27.0191H98.8323V28.1892H99.4077C100.297 28.1892 100.405 28.4322 100.405 29.2379V33.0488C100.405 33.8545 100.303 34.0975 99.4077 34.0975H98.8323V35.2676H104.389V34.0975H103.519C102.63 34.0975 102.522 33.8545 102.522 33.0488M108.309 25.7658V33.0488C108.309 33.8545 108.187 34.0975 107.298 34.0975H106.774V35.2676H111.979V34.0975H111.454C110.566 34.0975 110.444 33.8545 110.444 33.0488V23.547H106.774V24.7171H107.298C108.187 24.7171 108.309 24.9601 108.309 25.7658ZM120.541 34.1039C120.061 34.1039 119.78 33.944 119.78 33.522V29.8517C119.78 28.6496 119.709 27.8631 118.872 27.3004C118.296 26.9168 117.388 26.7058 116.199 26.7058C114.07 26.7058 112.81 27.6329 112.81 28.8862C112.81 29.6919 113.386 30.2482 114.204 30.2482C114.939 30.2482 115.425 29.7942 115.425 29.1292C115.425 28.5345 115.022 28.17 114.325 28.17H114.274C114.696 27.8056 115.221 27.6649 115.937 27.6649C117.088 27.6649 117.734 28.1381 117.734 28.9949C117.734 29.5192 117.58 29.8325 117.158 30.1139C116.755 30.376 116.007 30.4656 115.029 30.7597C113.264 31.3032 112.394 31.9682 112.394 33.3302C112.394 34.6922 113.392 35.5809 114.895 35.5809C116.116 35.5809 117.024 35.1781 117.727 34.2701C117.989 35.1589 118.603 35.5809 119.633 35.5809C120.771 35.5809 121.346 35.1589 121.609 34.0911M117.689 30.9515V31.949C117.689 33.343 116.941 34.1167 115.841 34.1167C115.144 34.1167 114.76 33.7522 114.76 33.1192C114.76 32.0194 115.86 31.8083 117.695 30.9515M144.666 35.2676H145.875L146.258 34.1678C147.55 35.127 148.829 35.6193 150.152 35.6193C152.774 35.6193 154.539 34.0463 154.539 31.8467C154.539 29.9796 153.298 28.7711 150.798 28.1956L148.439 27.6521C147.269 27.3899 146.712 26.9551 146.712 26.1303C146.712 25.2031 147.499 24.6276 148.931 24.6276C150.837 24.6276 152.199 25.817 152.601 27.9782H153.931V23.5406H152.883L152.269 24.3974C151.22 23.579 150.14 23.1953 148.861 23.1953C146.277 23.1953 144.634 24.6596 144.634 26.8464C144.634 28.7327 145.855 29.711 148.477 30.3249L150.383 30.7597C151.745 31.073 152.371 31.5973 152.371 32.5053C152.371 33.4836 151.534 34.0271 149.961 34.0271C147.812 34.0271 146.418 32.7675 146.028 30.4272H144.666V35.2676Z" fill="white"/>
<path d="M124.429 31.0217V23.5469H120.868V24.717H121.322C122.211 24.717 122.332 24.96 122.332 25.7657V33.0487C122.332 33.8544 122.211 34.0974 121.322 34.0974H119.973L120.452 35.2675H125.651V34.0974H125.44C124.551 34.0974 124.429 33.8544 124.429 33.0487V32.6459L126.086 31.3351L127.467 33.362C127.607 33.573 127.678 33.7457 127.678 33.8352C127.678 33.9759 127.486 34.0974 127.173 34.0974H126.578V35.2675H131.642V34.0974H131.239C130.593 34.0974 130.088 33.7649 129.615 33.0999L127.556 30.1841L129.18 28.8541C129.615 28.4896 129.967 28.1891 130.702 28.1891H131.054V27.019H125.83V28.1891H126.776C127.179 28.1891 127.403 28.2211 127.403 28.4321C127.403 28.5728 127.281 28.6942 127.089 28.8541L124.436 31.0217H124.429ZM138.452 32.3134C138.171 33.6562 137.544 34.1805 136.201 34.1805C134.858 34.1805 134.155 33.2022 134.085 31.3159H139.974C139.974 28.2914 138.593 26.7056 136.08 26.7056C133.426 26.7056 131.712 28.5024 131.712 31.1432C131.712 33.784 133.388 35.5808 136.08 35.5808C138.209 35.5808 139.68 34.3404 139.923 32.3134H138.458H138.452ZM137.672 30.0754H134.181C134.392 28.6047 135.057 27.8758 136.067 27.8758C137.077 27.8758 137.57 28.5728 137.672 30.0754Z" fill="white"/>
<path d="M165.316 25.7657V33.0487C165.316 33.8544 165.194 34.0974 164.306 34.0974H163.852V35.2675H168.775V34.0974H168.423C167.535 34.0974 167.413 33.8544 167.413 33.0487V30.9898C167.413 29.0715 168.302 28.106 169.562 28.106C170.54 28.106 170.853 28.6623 170.853 29.8004V33.0487C170.853 33.8544 170.732 34.0974 169.843 34.0974H169.491V35.2675H174.453V34.0974H173.961C173.072 34.0974 172.951 33.8544 172.951 33.0487V29.8004C172.951 27.7031 172.266 26.7632 170.297 26.7632C169.299 26.7632 168.321 27.3387 167.413 28.4768V23.5533H163.852V24.7234H164.306C165.194 24.7234 165.316 24.9664 165.316 25.7721M174.754 31.1432C174.754 33.7968 176.57 35.5616 179.396 35.5616C182.222 35.5616 184.057 33.7968 184.057 31.1432C184.057 28.4896 182.222 26.7056 179.396 26.7056C176.57 26.7056 174.754 28.4896 174.754 31.1432ZM177.132 31.1432C177.132 29.0139 177.881 27.9461 179.402 27.9461C180.924 27.9461 181.691 29.0139 181.691 31.1432C181.691 33.2725 180.924 34.3212 179.402 34.3212C177.881 34.3212 177.132 33.2725 177.132 31.1432ZM184.882 31.1432C184.882 33.7968 186.698 35.5616 189.531 35.5616C192.363 35.5616 194.192 33.7968 194.192 31.1432C194.192 28.4896 192.357 26.7056 189.531 26.7056C186.705 26.7056 184.882 28.4896 184.882 31.1432ZM187.261 31.1432C187.261 29.0139 188.009 27.9461 189.531 27.9461C191.053 27.9461 191.82 29.0139 191.82 31.1432C191.82 33.2725 191.053 34.3212 189.531 34.3212C188.009 34.3212 187.261 33.2725 187.261 31.1432ZM196.04 25.7657V33.0487C196.04 33.8544 195.919 34.0974 195.03 34.0974H194.506V35.2675H199.71V34.0974H199.186C198.297 34.0974 198.169 33.8544 198.169 33.0487V23.5469H194.499V24.717H195.023C195.912 24.717 196.034 24.96 196.034 25.7657" fill="white"/>
<path d="M161.973 31.8299C161.8 33.2814 161.155 33.9783 159.965 33.9783C158.514 33.9783 157.779 33.032 157.779 31.1137C157.779 29.0164 158.655 27.8463 160.048 27.8463C160.713 27.8463 161.238 28.0381 161.762 28.4729C161.148 28.5432 160.752 28.978 160.752 29.5216C160.752 30.2761 161.257 30.7301 162.011 30.7301C162.849 30.7301 163.405 30.1546 163.405 29.2466C163.405 27.8335 162.063 26.6953 159.965 26.6953C157.273 26.6953 155.406 28.4921 155.406 31.1329C155.406 33.7737 157.03 35.5513 159.633 35.5513C161.954 35.5513 163.194 34.3108 163.316 31.8299H161.973Z" fill="white"/>
<path d="M83.3872 14.4386V20.7049C83.3872 21.4722 83.2785 21.549 82.4856 21.549H81.6927V22.5848H87.0063V21.549H86.2262C85.4333 21.549 85.3118 21.4658 85.3118 20.7049V14.4386H85.5164C86.9935 14.4386 87.6074 15.3146 87.6201 17.2265H88.6688V13.4283H80.043V17.2265H81.0916C81.1044 15.289 81.7183 14.4386 83.2081 14.4386H83.3872ZM90.4784 15.1611V20.852C90.4784 21.4786 90.3825 21.6704 89.6855 21.6704H89.3338V22.5848H93.1831V21.6704H92.9082C92.2112 21.6704 92.1153 21.4786 92.1153 20.852V19.2406C92.1153 17.738 92.8123 16.9899 93.797 16.9899C94.5643 16.9899 94.8073 17.4247 94.8073 18.3135V20.852C94.8073 21.4786 94.7113 21.6704 94.0144 21.6704H93.7394V22.5848H97.6143V21.6704H97.2307C96.5337 21.6704 96.4378 21.4786 96.4378 20.852V18.3135C96.4378 16.6765 95.9071 15.9348 94.3597 15.9348C93.5796 15.9348 92.8187 16.3888 92.1089 17.2712V13.4219H89.3274V14.3362H89.6791C90.3761 14.3362 90.472 14.5281 90.472 15.1547" fill="white"/>
<path d="M103.144 20.2941C102.926 21.3428 102.434 21.7584 101.379 21.7584C100.324 21.7584 99.7805 20.9911 99.7293 19.5204H104.333C104.333 17.1609 103.253 15.9141 101.29 15.9141C99.2178 15.9141 97.875 17.3208 97.875 19.3797C97.875 21.4387 99.1858 22.8454 101.29 22.8454C102.952 22.8454 104.103 21.8735 104.295 20.2941H103.15H103.144ZM102.53 18.5485H99.7997C99.9659 17.4039 100.484 16.8284 101.27 16.8284C102.057 16.8284 102.447 17.3719 102.524 18.5485" fill="white"/>
<path d="M12.5 27.258V25.5315C12.5 25.5315 14.22 25.3077 16.0552 25.1287C18.0502 24.9305 21.0939 24.7642 21.7141 24.7578V26.9063C21.7141 26.9063 18.8942 26.9191 17.0527 26.9766C15.4605 27.0278 13.6637 27.1365 12.5064 27.258" fill="white"/>
<path d="M24.0039 24.7251C24.6817 24.7251 26.6064 24.7763 28.6909 24.8658C30.7115 24.9553 34.094 25.3006 36.121 25.582L36.1082 28.3571C34.5288 28.0757 31.0631 27.513 29.0937 27.334C26.9517 27.1294 24.8543 26.9823 24.0039 26.9631V24.7188V24.7251Z" fill="white"/>
<path d="M24.0025 28.3984C24.8657 28.4496 27.2188 28.7181 29.444 29.0123C31.2599 29.2553 34.3675 29.8563 36.1132 30.2975V34.0382C34.585 33.6481 31.3367 32.8616 29.0859 32.4652C27.4618 32.1774 25.4987 31.9089 23.9961 31.7426V28.3984H24.0025Z" fill="white"/>
<path d="M77.8855 40.6875H67.0664M200.003 40.7003H106.346" stroke="white" stroke-width="0.46"/>
<path d="M80.1445 43.3693H82.1907V42.7618H80.9118V42.084H82.0244V41.5213H80.9118V40.9203H82.1587V40.3128H80.1445V43.3757V43.3693ZM83.9683 43.4204C84.71 43.4204 85.1512 43.0751 85.1512 42.4741C85.1512 41.9561 84.7803 41.7195 84.3583 41.5341C83.9875 41.3806 83.7573 41.3295 83.7573 41.1121C83.7573 40.9394 83.9235 40.8563 84.1473 40.8563C84.4159 40.8563 84.6397 40.9586 84.7612 41.0354L85.0553 40.4918C84.8955 40.3959 84.6205 40.2489 84.1026 40.2489C83.5143 40.2489 83.0219 40.5622 83.0219 41.1505C83.0219 41.6364 83.2905 41.8794 83.6933 42.0584C84.109 42.2503 84.4031 42.3014 84.4031 42.538C84.4031 42.7107 84.2305 42.8194 83.9299 42.8194C83.5718 42.8194 83.3544 42.6595 83.2649 42.5956L82.9644 43.1391C83.1051 43.2478 83.4376 43.4204 83.9747 43.4204M86.6922 43.3693H87.4787V40.933H88.3867V40.3064H85.7906V40.933H86.6922V43.3693ZM89.2883 43.4268C89.576 43.4268 89.7998 43.203 89.7998 42.9217C89.7998 42.6403 89.5696 42.4229 89.2883 42.4229C89.007 42.4229 88.764 42.6403 88.764 42.9217C88.764 43.203 89.0006 43.4268 89.2883 43.4268ZM92.7987 43.3693H93.5724V40.5174H92.9778L91.9675 40.7796L92.1273 41.3934L92.8051 41.1888V43.3693H92.7987ZM94.8321 44.4499C96.4498 44.4499 97.3514 43.5483 97.3514 42.1608C97.3514 41.2847 96.9805 40.4535 95.9319 40.4535C95.1518 40.4535 94.5252 40.9458 94.5252 41.7131C94.5252 42.4805 95.0367 42.8961 95.7337 42.8961C96.0342 42.8961 96.2772 42.8194 96.4946 42.6659C96.4434 42.992 96.2964 43.2414 96.0406 43.4396C95.7145 43.6954 95.1518 43.836 94.6658 43.836L94.8321 44.4499ZM95.9255 42.295C95.5674 42.295 95.3628 42.0712 95.3628 41.6684C95.3628 41.2655 95.5994 41.0354 95.9127 41.0354C96.3667 41.0354 96.5521 41.4958 96.5394 42.0265V42.0904C96.3731 42.2247 96.1557 42.295 95.9255 42.295ZM99.6214 43.4396C100.414 43.4396 101.003 42.9345 101.003 42.1672C101.003 41.3998 100.497 40.9842 99.8068 40.9842C99.4935 40.9842 99.2313 41.0801 99.0523 41.2144C99.1098 40.8819 99.2505 40.6197 99.4935 40.4087C99.8004 40.1466 100.325 40.0187 100.817 40.0187L100.651 39.3984C99.129 39.3984 98.1955 40.3512 98.1955 41.7259C98.1955 42.6084 98.5919 43.4332 99.6214 43.4332M99.6406 42.8449C99.1866 42.8449 98.9883 42.3909 99.0075 41.8602V41.7899C99.1482 41.6748 99.34 41.5789 99.615 41.5789C99.9731 41.5789 100.178 41.7963 100.178 42.2247C100.178 42.57 99.9795 42.8449 99.6406 42.8449ZM102.371 44.5522L104.065 40.9395V40.5174H101.61V41.1569H103.164L101.725 44.2389L102.377 44.5522H102.371Z" fill="white"/>
</svg>
