<svg width="197" height="219" viewBox="0 0 197 219" fill="none" xmlns="http://www.w3.org/2000/svg">
<g clip-path="url(#clip0_30086_7071)">
<path d="M120.188 194.036C119.396 194.806 118.851 195.818 118.233 196.727C117.617 197.635 116.979 198.529 116.321 199.405C115.017 201.139 113.635 202.815 112.17 204.415C110.252 206.51 108.202 208.481 106.044 210.324C105.792 210.394 105.539 210.45 105.285 210.5C104.187 210.725 103.074 210.894 101.963 211.048C100.812 211.207 99.6587 211.323 98.5028 211.447C97.9148 211.51 97.3269 211.55 96.7389 211.616C96.2011 211.677 95.5679 211.772 95.1181 212.083C94.9247 212.217 94.9674 212.56 95.1558 212.671C95.4322 212.835 95.686 212.878 96.0001 212.908C96.3192 212.939 96.6233 212.984 96.9449 212.976C97.5505 212.964 98.1611 212.921 98.7667 212.88C100.016 212.8 101.262 212.646 102.501 212.472C102.865 212.421 103.234 212.368 103.601 212.315C103.212 212.621 102.82 212.921 102.423 213.219C101.453 213.943 100.465 214.645 99.4602 215.316C98.43 216.003 97.3294 216.608 96.3896 217.421C95.9222 217.825 96.4348 218.464 96.9525 218.274C98.0003 217.896 98.935 217.27 99.8698 216.667C100.81 216.061 101.737 215.432 102.646 214.784C103.94 213.86 105.199 212.888 106.426 211.873C106.044 212.61 105.632 213.332 105.192 214.036C104.752 214.741 104.255 215.412 103.815 216.116C103.589 216.477 103.345 216.823 103.109 217.179C102.867 217.542 102.669 217.964 102.47 218.353C102.249 218.782 102.697 219.18 103.094 218.903C103.443 218.658 103.835 218.385 104.129 218.077C104.448 217.744 104.762 217.381 105.056 217.025C105.609 216.359 106.089 215.609 106.536 214.869C107.446 213.363 108.418 211.712 108.762 209.97C108.772 209.922 108.772 209.877 108.77 209.834C111.753 207.121 114.502 204.147 116.974 200.959C117.74 199.97 118.479 198.96 119.19 197.931C119.891 196.916 120.736 195.846 121.108 194.66C121.271 194.135 120.615 193.617 120.185 194.036H120.188Z" fill="#A34E35"/>
<path d="M127.539 187.995C127.539 187.995 120.825 206.471 119.136 206.614C117.591 206.746 118.89 200.345 119.111 199.297C119.126 199.224 119.141 199.176 119.141 199.158C119.133 199.169 119.116 199.194 119.086 199.239C118.568 200.034 114.528 206.127 112.922 205.865C111.221 205.59 114.249 200.143 114.332 199.994C114.196 200.09 109.309 203.606 107.369 202.929C105.401 202.245 115.601 189.865 116.214 189.597L121.083 188.906L122.297 188.734L123.388 188.58L124.373 188.439L127.539 187.992V187.995Z" fill="#BB6A42"/>
<path d="M122.295 188.734C122.009 189.262 121.72 189.782 121.421 190.302C120.795 191.392 120.134 192.467 119.453 193.525C118.757 194.603 118.041 195.665 117.295 196.705C116.576 197.712 115.847 198.724 115.008 199.638C114.805 199.86 114.498 199.537 114.636 199.308C115.279 198.227 116.016 197.202 116.702 196.147C117.378 195.11 118.041 194.065 118.687 193.008C119.33 191.953 119.956 190.882 120.569 189.807C120.74 189.509 120.913 189.206 121.081 188.906L122.295 188.734Z" fill="#D4925C"/>
<path d="M124.37 188.44C124.171 189.268 123.849 190.078 123.553 190.866C123.186 191.832 122.804 192.791 122.392 193.738C121.563 195.654 120.636 197.496 119.658 199.334C119.535 199.566 119.211 199.483 119.105 199.293C119.095 199.276 119.085 199.255 119.08 199.235C119.065 199.18 119.065 199.117 119.095 199.051C119.955 197.183 120.746 195.27 121.515 193.364C121.902 192.405 122.279 191.446 122.651 190.482C122.892 189.853 123.113 189.202 123.38 188.579L124.365 188.438L124.37 188.44Z" fill="#D4925C"/>
<path d="M103.643 195.369C102.791 196.068 102.16 197.03 101.469 197.885C100.778 198.739 100.069 199.574 99.3383 200.392C97.8934 202.01 96.3757 203.562 94.7826 205.031C92.6945 206.957 90.4858 208.746 88.1816 210.4C87.9253 210.448 87.669 210.483 87.4102 210.513C86.2971 210.644 85.1739 210.718 84.0532 210.778C82.8923 210.839 81.7339 210.856 80.573 210.882C79.9825 210.894 79.392 210.884 78.8015 210.902C78.2613 210.917 77.623 210.957 77.1456 211.23C76.9421 211.346 76.9546 211.692 77.133 211.821C77.3944 212.007 77.6431 212.07 77.9547 212.128C78.2713 212.187 78.5703 212.257 78.892 212.277C79.4975 212.318 80.1081 212.325 80.7137 212.338C81.9651 212.363 83.2214 212.315 84.4703 212.247C84.8397 212.227 85.209 212.207 85.5809 212.184C85.1663 212.454 84.7517 212.722 84.3296 212.984C83.3019 213.625 82.2591 214.239 81.2012 214.822C80.1157 215.42 78.9674 215.93 77.9623 216.657C77.4622 217.02 77.9195 217.699 78.4522 217.555C79.5302 217.267 80.5127 216.722 81.4952 216.202C82.4827 215.677 83.4602 215.132 84.42 214.562C85.787 213.751 87.1238 212.888 88.4304 211.982C87.9881 212.684 87.5183 213.37 87.0182 214.034C86.5207 214.698 85.9679 215.324 85.4704 215.99C85.2141 216.331 84.9427 216.654 84.6788 216.987C84.4075 217.328 84.1763 217.732 83.9426 218.103C83.6863 218.512 84.0959 218.948 84.518 218.704C84.8874 218.489 85.2995 218.252 85.6186 217.969C85.9629 217.664 86.3071 217.328 86.6313 217C87.2393 216.384 87.7796 215.677 88.2872 214.976C89.3199 213.552 90.428 211.99 90.918 210.283C90.9306 210.235 90.9356 210.193 90.9381 210.147C94.1394 207.696 97.1295 204.968 99.8609 202C100.708 201.081 101.529 200.137 102.326 199.17C103.11 198.219 104.042 197.224 104.512 196.073C104.718 195.566 104.11 194.993 103.645 195.374L103.643 195.369Z" fill="#A34E35"/>
<path d="M111.471 189.977C111.471 189.977 103.225 207.816 101.531 207.816C99.9806 207.816 101.812 201.547 102.121 200.522C102.144 200.449 102.162 200.403 102.164 200.388C102.157 200.396 102.137 200.421 102.104 200.464C101.521 201.211 96.9829 206.941 95.4023 206.542C93.7314 206.125 97.2065 200.954 97.302 200.812C97.1588 200.896 91.9925 203.985 90.1155 203.147C88.2134 202.299 99.4202 190.83 100.053 190.615L104.963 190.34L106.187 190.272L107.285 190.211L108.278 190.156L111.469 189.979L111.471 189.977Z" fill="#BB6A42"/>
<path d="M106.192 190.266C105.863 190.768 105.531 191.26 105.187 191.755C104.473 192.79 103.722 193.804 102.956 194.799C102.172 195.813 101.368 196.81 100.536 197.782C99.7344 198.724 98.9227 199.67 98.0106 200.511C97.7895 200.715 97.5106 200.367 97.6663 200.15C98.3976 199.127 99.2167 198.168 99.9906 197.176C100.752 196.202 101.501 195.215 102.235 194.218C102.966 193.221 103.677 192.209 104.38 191.189C104.576 190.907 104.775 190.622 104.966 190.334L106.19 190.266H106.192Z" fill="#D4925C"/>
<path d="M108.282 190.148C108.014 190.956 107.627 191.736 107.265 192.496C106.818 193.43 106.355 194.351 105.868 195.26C104.88 197.097 103.8 198.854 102.674 200.603C102.531 200.825 102.217 200.712 102.126 200.517C102.119 200.497 102.109 200.477 102.106 200.459C102.096 200.404 102.101 200.338 102.136 200.277C103.149 198.49 104.101 196.65 105.026 194.815C105.491 193.894 105.948 192.968 106.4 192.041C106.694 191.436 106.968 190.805 107.287 190.207L108.28 190.151L108.282 190.148Z" fill="#D4925C"/>
<path d="M99.6327 164.278L97.7858 167.541L97.1727 168.629L95.9364 170.815L95.3258 171.893L89.3254 182.501L89.064 182.966C88.9937 183.069 88.6997 183.38 88.1971 183.836C85.6115 186.184 77.5933 192.408 67.4971 194.008C66.4266 194.18 65.4693 194.281 64.6149 194.324C58.1094 194.667 57.7074 191.651 60.4613 189.364C61.2654 188.698 62.3384 188.092 63.6048 187.65C63.8385 187.569 64.0797 187.494 64.3285 187.423C64.3285 187.423 64.0471 187.431 63.5671 187.431C62.7831 187.428 61.469 187.4 60.004 187.256C56.2726 186.893 51.5461 185.79 52.0637 182.537C52.5788 179.298 55.3755 177.721 57.4787 176.976C58.0793 176.769 58.6195 176.625 59.0391 176.534C59.4462 176.446 59.7326 176.401 59.8432 176.383C59.7402 176.393 59.4588 176.423 59.0542 176.438C58.617 176.456 58.034 176.459 57.3757 176.413C54.8102 176.239 51.1265 175.313 50.5862 171.491C50.1591 168.493 53.3377 166.898 56.5892 166.055C59.7879 165.222 63.0621 165.118 63.0621 165.118C63.0621 165.118 59.4261 163.992 55.8982 162.173C51.7697 160.045 47.7895 156.971 49.953 153.652C51.0008 152.041 54.1795 152.117 58.4838 153.074C70.6455 155.774 91.8306 165.525 99.6377 164.268L99.6327 164.278Z" fill="#DDA76E"/>
<path d="M57.3712 176.413C54.8056 176.239 51.1219 175.313 50.5817 171.491C50.1545 168.493 53.3332 166.898 56.5847 166.055C55.9414 167.794 55.4615 169.598 55.4514 171.454C55.4464 172.461 55.5318 173.483 55.8886 174.424C56.1876 175.209 56.6877 175.939 57.3712 176.411V176.413Z" fill="#BB6A42"/>
<path d="M49.9491 153.659C50.9969 152.049 54.1756 152.125 58.4799 153.081C57.2738 154.603 56.3616 156.358 55.9546 158.251C55.6782 159.538 55.648 160.888 55.8943 162.18C51.7658 160.053 47.7856 156.978 49.9491 153.659Z" fill="#BB6A42"/>
<path d="M60.0028 187.257C56.2714 186.893 51.5449 185.79 52.0625 182.537C52.5777 179.299 55.3744 177.721 57.4775 176.977C57.0051 177.534 56.784 178.347 56.7865 179.072C56.789 180.76 57.0001 182.474 57.6409 184.034C58.1509 185.281 58.9525 186.432 60.0028 187.254V187.257Z" fill="#BB6A42"/>
<path d="M64.6127 194.327C58.1072 194.67 57.7052 191.654 60.4591 189.367C60.4843 189.758 60.5873 190.152 60.7632 190.503C61.1853 191.341 61.8864 191.997 62.5824 192.623C63.2382 193.216 63.9016 193.804 64.6127 194.327Z" fill="#BB6A42"/>
<path d="M89.3806 172.693C91.5868 172.135 93.7704 171.504 95.9364 170.812L95.3258 171.89C89.9284 173.571 84.4053 174.846 78.817 175.696C75.578 176.189 72.319 176.537 69.0499 176.734C65.7984 176.928 62.5243 177.024 59.2728 176.825C59.1144 176.817 59.0391 176.676 59.0391 176.54C59.0391 176.509 59.0441 176.474 59.0541 176.444C59.0843 176.34 59.1647 176.254 59.2929 176.249C62.9313 176.191 66.5597 176.143 70.1882 175.853C76.661 175.336 83.0836 174.291 89.3806 172.693Z" fill="#BB6A42"/>
<path d="M97.7832 167.54L97.17 168.628C91.7701 168.959 86.3325 168.863 80.9427 168.398C77.9676 168.141 75.0126 167.745 72.0726 167.22C70.6152 166.96 69.1629 166.667 67.718 166.339C66.2431 166.006 64.8032 165.582 63.3433 165.198C63.0091 165.107 63.087 164.572 63.4288 164.658C65.0545 165.054 66.7205 165.339 68.3638 165.65C69.9921 165.96 71.6279 166.24 73.2687 166.483C79.1084 167.343 85.0083 167.823 90.9108 167.798C93.2074 167.79 95.4965 167.694 97.7857 167.543L97.7832 167.54Z" fill="#BB6A42"/>
<path d="M89.324 182.505L89.0627 182.969C88.9924 183.073 88.6984 183.383 88.1958 183.84C85.6328 184.658 83.0421 185.387 80.4239 186.001C77.7176 186.637 74.9662 187.139 72.2046 187.457C70.8226 187.614 69.4356 187.74 68.046 187.806C66.6439 187.866 65.2544 187.841 63.8497 187.806C63.7341 187.803 63.6487 187.737 63.6035 187.654C63.5633 187.586 63.5507 187.505 63.5633 187.434C63.5859 187.339 63.6613 187.26 63.7944 187.258C65.3574 187.238 66.9253 187.116 68.4807 186.998C70.0361 186.877 71.5915 186.695 73.1369 186.475C78.6297 185.69 84.0246 184.282 89.2813 182.515C89.2964 182.51 89.309 182.508 89.324 182.5V182.505Z" fill="#BB6A42"/>
<path d="M191.39 63.6125C191.39 63.6125 198.579 47.2593 196.677 43.862C194.775 40.4646 189.277 47.6859 189.277 47.6859C189.277 47.6859 188.43 44.7126 184.837 46.4113C181.244 48.1099 179.764 57.0299 179.764 57.0299C179.764 57.0299 179.552 51.2953 176.381 53.8445C173.21 56.3938 171.73 62.7644 171.73 62.7644C171.73 62.7644 170.25 58.0925 168.137 61.2778C166.024 64.4631 164.966 72.1084 164.966 72.1084C164.966 72.1084 163.908 67.8605 161.159 72.3204C158.41 76.7804 157.777 86.1243 157.777 86.1243C157.777 86.1243 156.297 80.1777 154.395 81.8764C152.493 83.5751 151.646 90.5843 151.646 90.5843C151.646 90.5843 151.224 82.515 148.475 85.0617C145.726 87.611 142.555 94.4057 142.555 94.4057C142.555 94.4057 142.133 89.3097 139.806 92.0684C137.479 94.8297 136.424 102.051 136.424 102.051C136.424 102.051 135.79 95.2538 134.097 96.955C132.406 98.6536 131.137 105.024 131.137 105.024C131.137 105.024 129.023 100.776 127.33 104.388C125.639 107.998 130.923 136.883 130.923 136.883L153.757 124.777L191.39 63.6125Z" fill="#A34E35"/>
<path d="M180.286 56.782C180.261 56.4766 179.769 56.4463 179.741 56.7644C179.6 58.463 179.57 60.1693 179.45 61.8705C179.326 63.5767 179.191 65.2804 179.01 66.9816C178.653 70.3411 178.118 73.6779 177.452 76.9894C177.07 78.885 176.685 80.7805 176.258 82.666C176.17 83.0496 176.806 83.2515 176.924 82.8654C177.944 79.5765 178.696 76.2373 179.238 72.8349C179.781 69.435 180.163 65.9947 180.301 62.5545C180.377 60.6362 180.447 58.6978 180.286 56.782Z" fill="#803923"/>
<path d="M188.904 47.856C188.454 51.0514 187.99 54.2544 187.422 57.4322C186.851 60.615 186.165 63.7725 185.411 66.9149C184.982 68.6994 184.507 70.4738 184.08 72.2583C183.987 72.6445 184.612 72.8363 184.746 72.4577C185.839 69.4087 186.635 66.2385 187.319 63.0734C188.007 59.8906 188.567 56.685 188.977 53.4543C189.211 51.6193 189.369 49.7894 189.467 47.9443C189.487 47.5834 188.957 47.4774 188.904 47.8509V47.856Z" fill="#803923"/>
<path d="M172.017 62.5236C171.984 62.2334 171.514 62.1955 171.489 62.506C171.323 64.6363 171.328 66.7842 171.233 68.9195C171.14 71.0195 171.032 73.1195 170.886 75.2145C170.587 79.4599 170.112 83.6876 169.562 87.9053C169.255 90.2653 168.951 92.6252 168.609 94.9801C168.554 95.3689 169.112 95.4521 169.202 95.0786C170.202 90.9341 170.929 86.7493 171.388 82.5089C171.848 78.2812 172.162 74.0256 172.208 69.7727C172.233 67.3647 172.278 64.919 172.014 62.5236H172.017Z" fill="#803923"/>
<path d="M165.079 71.8658C165.046 71.5881 164.601 71.5503 164.573 71.8481C164.398 73.7411 164.398 75.6543 164.297 77.5524C164.194 79.4606 164.066 81.3687 163.898 83.2719C163.558 87.1084 163.091 90.9272 162.49 94.7335C162.154 96.8713 161.809 99.0067 161.47 101.142C161.402 101.569 162 101.642 162.111 101.248C163.166 97.5175 163.855 93.6885 164.352 89.847C164.842 86.0533 165.141 82.2269 165.219 78.403C165.264 76.2374 165.327 74.0213 165.081 71.8658H165.079Z" fill="#803923"/>
<path d="M158.136 86.0935C158.131 85.7855 157.608 85.7628 157.591 86.0758C157.294 91.4116 156.656 96.7272 155.613 101.967C155.317 103.464 155.008 104.956 154.686 106.447C154.616 106.778 155.151 106.95 155.256 106.619C156.91 101.472 157.797 96.0281 158.066 90.6317C158.141 89.1198 158.159 87.6079 158.131 86.0935H158.136Z" fill="#803923"/>
<path d="M151.967 90.1319C151.967 89.7836 151.377 89.7609 151.354 90.1117C151.043 94.872 150.435 99.5995 149.796 104.325C149.613 105.675 149.359 107.015 149.191 108.368C149.141 108.762 149.673 108.825 149.781 108.464C150.467 106.162 150.892 103.757 151.231 101.382C151.573 98.9938 151.789 96.5909 151.91 94.183C151.977 92.8326 151.975 91.4823 151.967 90.1294V90.1319Z" fill="#803923"/>
<path d="M142.424 94.3713C142.324 95.7141 142.128 97.0594 141.987 98.3972C141.846 99.7425 141.713 101.088 141.57 102.433C141.281 105.149 140.939 107.86 140.587 110.568C140.389 112.093 140.183 113.62 140.022 115.149C139.977 115.586 140.592 115.684 140.688 115.258C141.283 112.62 141.67 109.924 141.999 107.241C142.334 104.531 142.608 101.81 142.778 99.0812C142.826 98.324 142.861 97.5642 142.886 96.8045C142.914 96.0195 142.899 95.2346 142.932 94.4521C142.947 94.124 142.444 94.0306 142.419 94.3688L142.424 94.3713Z" fill="#803923"/>
<path d="M136.719 100.967C136.701 100.692 136.249 100.669 136.231 100.952C135.942 105.538 135.658 110.112 135.055 114.672C134.884 115.965 134.713 117.26 134.558 118.554C134.51 118.956 135.073 119.039 135.168 118.655C136.274 114.188 136.673 109.523 136.791 104.932C136.824 103.61 136.799 102.287 136.719 100.967Z" fill="#803923"/>
<path d="M131.265 104.039C131.17 103.767 130.778 103.928 130.853 104.198C131.258 105.632 130.976 107.212 130.843 108.668C130.7 110.223 130.577 111.77 130.574 113.333C130.574 113.668 131.099 113.671 131.15 113.35C131.403 111.722 131.511 110.087 131.617 108.444C131.712 106.947 131.773 105.475 131.263 104.039H131.265Z" fill="#803923"/>
<path d="M187.315 81.4271C187.205 81.8057 187.089 82.1818 186.978 82.5553C184.978 89.1885 183.058 95.0897 182.302 96.5258C180.4 100.138 172.364 106.508 167.924 113.094C163.487 119.676 159.891 131.994 159.891 131.994L141.621 135.928L140.884 136.085L130.293 138.367C130.293 138.367 129.869 112.031 132.62 108.21C135.369 104.388 137.057 107.361 137.271 107.998C137.482 108.634 145.093 94.1936 149.322 93.3456C153.551 92.4924 154.395 99.2922 154.395 99.2922C154.395 99.2922 165.602 80.1777 168.773 80.3897C171.942 80.6017 172.791 85.2762 172.791 85.2762C172.791 85.2762 187.167 54.266 192.876 60.4272C193.208 60.7881 190.24 71.6566 187.315 81.4296V81.4271Z" fill="#BB6A42"/>
<path d="M187.314 81.4219C187.204 81.8005 187.088 82.1766 186.978 82.5501C185.998 82.9565 185.073 83.4966 184.193 84.0948C182.605 85.1776 181.178 86.4775 179.897 87.9086C177.271 90.8441 175.233 94.2616 173.394 97.7372C173.195 98.1158 172.62 98.0502 172.567 97.6034C172.391 96.1597 172.077 94.0622 170.283 93.8679C168.79 93.7063 167.378 95.0289 166.506 96.0865C165.411 97.4242 164.476 98.9311 163.654 100.451C161.976 103.558 160.873 106.889 160.259 110.367C160.167 110.882 159.38 110.87 159.337 110.337C159.232 109.02 157.913 108.303 156.714 108.217C155.37 108.119 154.189 108.949 153.344 109.923C152.314 111.104 151.603 112.548 150.935 113.957C149.419 117.142 148.367 120.512 147.769 123.992C147.693 124.421 146.987 124.558 146.861 124.086C146.628 123.2 145.542 122.978 144.768 123.263C143.808 123.616 143.293 124.684 142.969 125.582C142.547 126.759 142.281 128.008 142.062 129.237C141.668 131.448 141.55 133.692 141.617 135.931L140.881 136.087C140.766 134.81 140.76 133.525 140.833 132.233C140.924 130.701 141.14 129.174 141.474 127.672C141.758 126.398 142.065 125.042 142.751 123.914C143.334 122.962 144.261 122.218 145.414 122.22C145.995 122.22 146.595 122.392 147.045 122.738C147.417 120.968 147.904 119.229 148.497 117.526C149.133 115.708 149.899 113.934 150.796 112.228C151.558 110.779 152.44 109.305 153.769 108.308C154.95 107.422 156.38 107.076 157.805 107.513C158.521 107.732 159.176 108.146 159.631 108.714C159.996 107.091 160.496 105.499 161.099 103.949C161.802 102.144 162.649 100.4 163.649 98.7418C164.579 97.2046 165.592 95.6044 166.951 94.4131C168.144 93.3681 169.903 92.4998 171.436 93.3555C172.509 93.9562 172.982 95.0794 173.225 96.2379C174.155 94.5594 175.125 92.8986 176.193 91.3035C178.469 87.9011 181.246 84.7157 184.799 82.6183C185.598 82.1437 186.435 81.7348 187.304 81.4244L187.314 81.4219Z" fill="#D4925C"/>
<path d="M156.13 117.128C155.927 117.004 155.625 117.035 155.477 117.239C155.331 117.443 155.193 117.645 155.088 117.873C154.98 118.105 154.902 118.345 154.831 118.592C154.698 119.059 154.64 119.523 154.625 120.005C154.623 120.099 154.635 120.177 154.66 120.27C154.66 120.27 154.66 120.273 154.66 120.275C154.668 120.306 154.701 120.424 154.696 120.414C154.733 120.543 154.796 120.704 154.889 120.8C155.045 120.962 155.286 121.002 155.475 120.871C155.55 120.818 155.608 120.752 155.651 120.669C155.666 120.636 155.676 120.596 155.686 120.563C155.703 120.498 155.708 120.482 155.701 120.518C155.696 120.54 155.701 120.538 155.711 120.51C155.731 120.46 155.749 120.407 155.764 120.354C155.764 120.354 155.769 120.339 155.771 120.326C155.776 120.316 155.779 120.303 155.781 120.301C155.801 120.243 155.819 120.185 155.826 120.124C155.841 120.01 155.844 119.894 155.859 119.781C155.887 119.561 155.922 119.342 155.965 119.127C155.99 119.006 156.017 118.885 156.048 118.766C156.055 118.738 156.08 118.645 156.078 118.65C156.1 118.569 156.125 118.491 156.148 118.41C156.156 118.377 156.201 118.228 156.171 118.327C156.193 118.254 156.218 118.178 156.241 118.105C156.264 118.032 156.284 117.958 156.301 117.885C156.301 117.885 156.304 117.87 156.306 117.857C156.309 117.852 156.331 117.761 156.331 117.761C156.409 117.519 156.362 117.267 156.13 117.128Z" fill="#EAC08A"/>
<path d="M159.185 118.243C159.2 118.076 159.127 117.892 158.961 117.826C158.813 117.768 158.597 117.791 158.504 117.937C158.471 117.978 158.471 117.985 158.504 117.963C158.461 117.993 158.426 118.033 158.398 118.076C158.358 118.132 158.328 118.195 158.295 118.258C158.245 118.354 158.19 118.45 158.14 118.546C158.037 118.743 157.956 118.962 157.876 119.169C157.788 119.399 157.702 119.644 157.65 119.886C157.624 120 157.559 120.179 157.592 120.29C157.592 120.292 157.592 120.29 157.592 120.295C157.589 120.32 157.587 120.343 157.582 120.368C157.572 120.477 157.582 120.573 157.627 120.674C157.74 120.936 158.006 120.979 158.235 120.853C158.328 120.8 158.388 120.716 158.444 120.626C158.449 120.615 158.451 120.61 158.456 120.605C158.461 120.6 158.469 120.595 158.484 120.578C158.572 120.477 158.622 120.34 158.68 120.219C158.773 120.022 158.843 119.813 158.908 119.606C158.981 119.369 159.052 119.129 159.107 118.887C159.132 118.783 159.145 118.674 159.165 118.568C159.172 118.523 159.185 118.478 159.19 118.432C159.195 118.379 159.195 118.326 159.197 118.273C159.182 118.306 159.182 118.296 159.192 118.245L159.185 118.243Z" fill="#EAC08A"/>
<path d="M150.495 124.218C150.317 124.137 150.093 124.223 150.015 124.402C149.822 124.846 149.598 125.278 149.394 125.717C149.294 125.932 149.201 126.154 149.121 126.376C149.075 126.497 149.038 126.623 149 126.747C148.955 126.896 148.925 127.095 148.995 127.237C149.083 127.413 149.256 127.509 149.452 127.441C149.714 127.35 149.852 127.012 149.955 126.777C150.053 126.553 150.143 126.318 150.221 126.086C150.379 125.616 150.513 125.165 150.683 124.698C150.751 124.513 150.686 124.299 150.5 124.215L150.495 124.218Z" fill="#EAC08A"/>
<path d="M169.087 99.5852C169.092 99.6104 169.094 99.6003 169.097 99.5574C169.125 99.3908 169.019 99.2268 168.861 99.1788C168.697 99.1283 168.532 99.2116 168.456 99.3631C168.441 99.3908 168.436 99.4035 168.439 99.4009C168.421 99.4211 168.398 99.4363 168.386 99.4615C168.368 99.4868 168.353 99.512 168.343 99.5423C168.32 99.5852 168.318 99.5928 168.343 99.565C168.298 99.6584 168.235 99.7442 168.187 99.8376C168.104 100.007 168.024 100.173 167.954 100.347C167.886 100.514 167.818 100.681 167.758 100.852C167.727 100.938 167.702 101.026 167.677 101.112C167.64 101.201 167.624 101.291 167.632 101.385V101.327C167.624 101.355 167.619 101.38 167.617 101.408C167.607 101.466 167.607 101.521 167.617 101.577C167.65 101.776 167.768 101.938 167.966 101.996C168.17 102.056 168.343 101.98 168.486 101.837C168.542 101.784 168.582 101.713 168.609 101.642C168.637 101.602 168.662 101.562 168.675 101.514C168.715 101.405 168.75 101.294 168.783 101.183C168.836 101.004 168.881 100.822 168.926 100.64C168.969 100.464 169.001 100.292 169.032 100.113C169.047 100.024 169.052 99.936 169.064 99.8452C169.069 99.8048 169.084 99.7644 169.089 99.724C169.099 99.6761 169.097 99.6306 169.084 99.5852H169.087Z" fill="#EAC08A"/>
<path d="M175.311 98.2054C175.233 98.1751 175.15 98.16 175.065 98.165C174.954 98.1701 174.793 98.2508 174.733 98.3467C174.675 98.4376 174.61 98.526 174.56 98.6219C174.524 98.69 174.492 98.7607 174.457 98.8288C174.394 98.9576 174.328 99.0838 174.268 99.215C174.208 99.3463 174.155 99.4775 174.102 99.6088C174.075 99.6794 174.044 99.7501 174.017 99.8233C173.977 99.9344 173.959 100.018 173.967 100.136C173.967 100.164 173.972 100.187 173.977 100.212C173.977 100.29 173.987 100.366 174.014 100.454C174.082 100.666 174.379 100.813 174.582 100.709C174.665 100.666 174.73 100.616 174.793 100.558C174.836 100.53 174.879 100.497 174.921 100.452C174.969 100.399 175.002 100.351 175.037 100.28C175.07 100.212 175.1 100.139 175.13 100.068C175.188 99.9369 175.243 99.8056 175.293 99.6719C175.409 99.3639 175.519 99.051 175.592 98.7304C175.638 98.5285 175.502 98.2811 175.311 98.2054Z" fill="#EAC08A"/>
<path d="M180.644 93.6418C180.448 93.4979 180.224 93.5408 180.061 93.7074C179.943 93.8261 179.847 93.9674 179.729 94.0835C179.588 94.2223 179.478 94.399 179.382 94.5707C179.284 94.7473 179.206 94.924 179.149 95.1184C179.083 95.3455 179.013 95.5979 179.111 95.8251C179.179 95.9841 179.312 96.1027 179.485 96.1305C179.671 96.1608 179.815 96.08 179.943 95.9538C180.043 95.8554 180.081 95.7191 180.119 95.5878C180.161 95.4515 180.209 95.3203 180.249 95.184C180.237 95.2269 180.224 95.2723 180.209 95.3152C180.239 95.2143 180.274 95.1133 180.312 95.0149C180.332 94.9619 180.355 94.9089 180.377 94.8559C180.387 94.8332 180.395 94.813 180.405 94.7902C180.41 94.7776 180.415 94.7625 180.42 94.7499C180.458 94.6186 180.468 94.5883 180.448 94.6615C180.435 94.7019 180.435 94.7044 180.45 94.6691C180.455 94.6615 180.458 94.6514 180.463 94.6439C180.475 94.6186 180.485 94.5934 180.496 94.5656C180.506 94.5404 180.516 94.5151 180.528 94.4899C180.586 94.399 180.646 94.3107 180.712 94.2249C180.842 94.0507 180.832 93.7756 180.646 93.6393L180.644 93.6418Z" fill="#EAC08A"/>
<path d="M74.2621 31.752C74.2621 31.752 66.2288 21.5574 48.4686 11.7894C30.7085 2.01888 21.6148 -2.01452 15.9084 0.958786C10.1994 3.93209 13.5815 12.0014 13.5815 12.0014C13.5815 12.0014 7.02828 9.45215 4.4904 15.1867C1.95251 20.9213 4.06825 24.9573 4.06825 24.9573C4.06825 24.9573 -1.21858 28.5666 0.261429 32.6026C1.74144 36.6385 4.70147 38.5492 4.70147 38.5492C4.70147 38.5492 1.95251 41.3105 3.22145 45.3464C4.4904 49.3823 10.6215 53.6302 10.6215 53.6302C10.6215 53.6302 4.06825 54.2663 7.66149 60.2129C11.2547 66.1595 16.3305 67.4342 16.3305 67.4342C16.3305 67.4342 9.9883 68.4968 15.9084 72.7447C21.8284 76.9927 26.4795 76.9927 26.4795 76.9927C26.4795 76.9927 22.0395 78.4793 27.7485 82.9393C33.4574 87.3992 38.7418 88.0353 38.7418 88.0353C38.7418 88.0353 31.7638 88.2473 36.6285 91.6447C41.4907 95.042 48.4686 95.4686 48.4686 95.4686C48.4686 95.4686 40.2218 95.2566 46.9886 99.2925C53.7555 103.328 60.942 103.964 60.942 103.964C60.942 103.964 54.5998 104.601 59.0398 108.636C63.4798 112.672 68.9777 113.732 68.9777 113.732C68.9777 113.732 64.9598 114.583 67.7088 119.043C70.4577 123.503 77.4357 127.963 77.4357 127.963C77.4357 127.963 69.8245 128.599 73.6288 133.91C77.4357 139.22 82.2979 143.041 82.2979 143.041C82.2979 143.041 77.6467 144.74 79.971 148.138C82.2979 151.535 87.16 154.72 87.16 154.72C87.16 154.72 81.0289 152.809 85.2579 157.057C89.4868 161.305 104.709 164.491 104.709 164.491L115.491 159.18L74.2621 31.752Z" fill="#A34E35"/>
<path d="M79.9838 45.6091C78.5616 43.5823 76.9283 41.6615 75.2573 39.8392C73.5662 37.9941 71.7973 36.2323 69.9403 34.5564C66.2466 31.2196 62.2739 28.1958 58.0826 25.5128C53.8813 22.8221 49.4714 20.4672 44.8932 18.4859C40.3225 16.5095 35.586 14.9017 30.7514 13.7079C25.937 12.5191 20.9969 11.6786 16.0417 11.4211C15.4211 11.3883 14.8004 11.3858 14.1798 11.3959C13.7602 11.4034 13.7426 12.0824 14.1572 12.1329C16.6021 12.4332 19.0571 12.6301 21.4944 12.9936C23.9343 13.357 26.3591 13.7962 28.7638 14.3515C33.5431 15.4545 38.2319 16.9462 42.7699 18.8089C47.308 20.6717 51.7078 22.8928 55.8915 25.4623C60.0979 28.0469 64.0982 30.9722 67.8321 34.2106C71.5359 37.4211 75.0437 40.9245 78.2249 44.6575C78.6169 45.1194 79.0089 45.5813 79.4084 46.0357C79.7074 46.3739 80.2477 45.9927 79.9813 45.6116L79.9838 45.6091Z" fill="#803923"/>
<path d="M86.2762 53.4017C82.1854 49.2395 77.6097 45.5595 72.7802 42.3035C67.9481 39.0475 62.8045 36.2307 57.4976 33.8379C52.1806 31.4426 46.6676 29.489 41.0365 27.9847C35.4105 26.4829 29.6613 25.4379 23.8644 24.8978C18.075 24.3576 12.2203 24.2592 6.42836 24.8322C5.70469 24.9028 4.98604 24.9912 4.26991 25.1098C3.84525 25.1805 3.90556 25.7888 4.33524 25.7762C7.23747 25.6853 10.1322 25.4985 13.0369 25.4834C15.9115 25.4707 18.7886 25.5692 21.6557 25.7913C27.4149 26.2406 33.1389 27.1618 38.7499 28.54C44.3408 29.9105 49.8186 31.743 55.113 34.007C60.4275 36.2761 65.5635 38.9718 70.4333 42.0864C75.298 45.196 79.9792 48.654 84.3238 52.4678C84.8514 52.9322 85.3791 53.3991 85.9043 53.8661C86.1958 54.1261 86.5375 53.6667 86.2762 53.4017Z" fill="#803923"/>
<path d="M81.4106 53.8037C79.5235 52.2565 77.4329 50.9162 75.3348 49.6794C73.2215 48.4351 71.043 47.3018 68.8242 46.2669C64.349 44.1796 59.6904 42.5036 54.9387 41.181C50.0364 39.818 45.0335 38.8438 39.9904 38.1926C34.505 37.4858 28.977 37.1678 23.4464 37.1224C20.6874 37.0997 17.9284 37.1527 15.1719 37.2612C12.4204 37.3722 9.64885 37.4934 6.91246 37.8089C6.22145 37.8897 5.53044 37.973 4.84195 38.0739C4.47508 38.1269 4.53288 38.6519 4.89723 38.6444C7.63362 38.5939 10.3675 38.4121 13.1014 38.2935C15.8352 38.1724 18.5716 38.1093 21.3055 38.1042C26.7733 38.0916 32.2435 38.344 37.6811 38.9472C42.767 39.5126 47.8201 40.396 52.7803 41.6656C57.4992 42.8746 62.1302 44.4345 66.5954 46.3856C71.0656 48.3366 75.3825 50.6916 79.4381 53.4074C79.9356 53.7406 80.4332 54.0738 80.9382 54.3968C81.3403 54.6543 81.8001 54.1192 81.4131 53.8012L81.4106 53.8037Z" fill="#803923"/>
<path d="M82.0679 60.6092C78.53 57.5374 74.2884 55.445 69.9313 53.8195C65.4109 52.131 60.7045 50.8942 55.9679 49.9956C51.1711 49.087 46.3064 48.5645 41.4291 48.4181C36.5318 48.2692 31.6194 48.5064 26.7597 49.1248C21.9201 49.7407 17.0529 50.6695 12.4119 52.1966C11.8339 52.3859 11.266 52.6105 10.6931 52.8124C10.3263 52.9412 10.5449 53.4662 10.9067 53.3677C13.2411 52.7266 15.6131 52.1587 17.9751 51.6362C20.3371 51.1138 22.7142 50.6721 25.1063 50.3288C29.873 49.6448 34.6899 49.3318 39.5044 49.3899C44.3364 49.4479 49.1709 49.8871 53.9351 50.6923C58.6541 51.4898 63.3278 52.6433 67.8583 54.1981C72.1953 55.6873 76.3791 57.6106 80.2236 60.1271C80.7085 60.4451 81.186 60.7783 81.6609 61.1165C82.0026 61.3613 82.3896 60.8818 82.0704 60.6041L82.0679 60.6092Z" fill="#803923"/>
<path d="M84.0652 68.0867C80.3438 65.6965 76.2455 64.0457 72.0165 62.8039C67.7976 61.5671 63.4506 60.7822 59.0733 60.401C54.5554 60.0073 50.0073 60.0325 45.4894 60.4187C40.7654 60.8226 36.0716 61.605 31.4531 62.6777C26.8623 63.7454 22.259 65.0125 17.8466 66.6859C17.2862 66.8979 16.7334 67.1124 16.1882 67.3547C15.8263 67.5138 16.0349 68.016 16.4043 67.9176C18.6733 67.327 20.8971 66.5572 23.1485 65.8933C25.3974 65.2295 27.6639 64.6212 29.9455 64.071C34.4911 62.973 39.102 62.1351 43.7531 61.6555C48.2308 61.1911 52.7462 61.0522 57.239 61.345C61.5836 61.6277 65.9105 62.2915 70.1244 63.3996C72.2201 63.9498 74.2831 64.6137 76.3058 65.386C78.3236 66.1558 80.3438 67.0064 82.2837 67.9605C82.7611 68.1953 83.241 68.4224 83.7184 68.6572C84.0526 68.8212 84.3894 68.2962 84.0652 68.0867Z" fill="#803923"/>
<path d="M82.8079 71.2067C81.059 70.5782 79.3026 70.033 77.4783 69.6544C75.6993 69.2859 73.9027 69.0158 72.096 68.8366C68.4249 68.4731 64.7236 68.458 61.0449 68.7079C53.5243 69.2203 46.1041 70.8659 38.8724 72.9483C34.7439 74.1371 30.6356 75.4168 26.5699 76.81C26.2081 76.9337 26.4217 77.4637 26.781 77.3628C34.063 75.2906 41.2721 72.9735 48.6973 71.4439C55.8963 69.9623 63.2938 69.142 70.6411 69.7124C72.6438 69.8689 74.644 70.1213 76.6215 70.4848C78.6317 70.8558 80.652 71.2824 82.6194 71.8402C82.9813 71.9437 83.1647 71.3304 82.8079 71.2042V71.2067Z" fill="#803923"/>
<path d="M91.5302 81.912C86.1127 77.3839 78.4236 76.9598 71.7322 77.8054C67.9806 78.2799 64.2794 79.1254 60.6107 80.0265C56.9974 80.915 53.4192 81.9347 49.8762 83.0756C47.9163 83.7066 45.9664 84.3729 44.0316 85.0847C42.049 85.8116 40.1217 86.6395 38.1794 87.4623C37.8703 87.5936 38.0512 88.0731 38.3678 87.952C40.0865 87.3033 41.8404 86.7303 43.5742 86.1195C45.2879 85.5163 47.0117 84.9358 48.743 84.383C52.2282 83.2699 55.7485 82.2754 59.294 81.387C62.8571 80.4935 66.4529 79.6732 70.0838 79.1229C73.6243 78.5853 77.2427 78.3405 80.8032 78.7998C84.4518 79.2693 87.9947 80.4632 91.1156 82.4294C91.4648 82.649 91.8619 82.1921 91.5277 81.9145L91.5302 81.912Z" fill="#803923"/>
<path d="M92.6895 88.4946C89.8426 87.5153 86.7921 87.0812 83.7969 86.9121C80.7816 86.743 77.7562 86.8338 74.7535 87.1443C68.7304 87.7677 62.8078 89.2518 57.0637 91.1474C53.7971 92.2252 50.6084 93.4846 47.4072 94.7441C47.0654 94.8779 47.2665 95.4054 47.6107 95.2792C50.4451 94.2545 53.3147 93.3054 56.1817 92.3766C59.0262 91.4553 61.8957 90.6047 64.8005 89.9005C70.6024 88.4921 76.5978 87.6541 82.5757 87.8763C85.9277 88.0025 89.2094 88.5148 92.5036 89.113C92.8579 89.1787 93.0438 88.6158 92.687 88.4921L92.6895 88.4946Z" fill="#803923"/>
<path d="M97.8928 100.248C95.6539 99.0921 93.1789 98.4233 90.7038 98.0093C88.2086 97.5929 85.6657 97.4364 83.1379 97.5096C78.0094 97.6585 72.9411 98.759 68.0789 100.362C65.2973 101.278 62.6162 102.449 59.9527 103.661C59.6135 103.815 59.812 104.355 60.1613 104.208C62.5157 103.221 64.9254 102.341 67.3503 101.545C69.7575 100.755 72.1848 100.046 74.6674 99.5313C79.5472 98.5167 84.5953 98.1683 89.5429 98.8498C92.3044 99.2309 94.9855 99.973 97.639 100.819C98.0159 100.94 98.2571 100.435 97.8928 100.246V100.248Z" fill="#803923"/>
<path d="M96.2335 109.71C94.5374 108.963 92.5699 108.705 90.7406 108.549C88.8661 108.39 86.974 108.39 85.0995 108.549C81.3404 108.867 77.6366 109.76 74.0811 111.007C72.0608 111.717 70.0506 112.542 68.1736 113.577C67.8871 113.736 68.1535 114.188 68.445 114.077C70.1913 113.405 71.9176 112.691 73.6816 112.067C75.4304 111.452 77.212 110.916 79.0186 110.497C82.5918 109.667 86.3006 109.243 89.9667 109.49C90.9668 109.559 91.9568 109.682 92.9443 109.836C93.9771 109.998 94.9972 110.245 96.0275 110.389C96.422 110.444 96.6054 109.877 96.2285 109.71H96.2335Z" fill="#803923"/>
<path d="M101.034 125.033C100.551 124.561 99.8905 124.225 99.2774 123.953C98.6291 123.663 97.9255 123.476 97.227 123.365C95.8173 123.138 94.3574 123.191 92.9427 123.34C91.3572 123.506 89.7842 123.806 88.2238 124.122C86.5553 124.458 84.8918 124.831 83.251 125.281C81.3891 125.788 79.5598 126.384 77.7405 127.03C77.3435 127.171 77.5772 127.759 77.9742 127.638C81.1554 126.671 84.3993 125.864 87.6584 125.205C89.1811 124.897 90.7114 124.617 92.2492 124.415C93.6061 124.236 94.9881 124.132 96.355 124.258C97.1189 124.329 97.8778 124.465 98.6165 124.677C99.3653 124.892 100.006 125.25 100.7 125.593C101.056 125.77 101.293 125.281 101.039 125.033H101.034Z" fill="#803923"/>
<path d="M105.365 142.527C104.141 141.77 102.666 141.3 101.269 140.982C99.8341 140.657 98.3717 140.5 96.9017 140.447C93.7834 140.339 90.6701 140.747 87.6196 141.378C86.7275 141.563 85.8405 141.76 84.9561 141.972C84.1017 142.176 83.1871 142.363 82.378 142.709C82.1016 142.827 82.1996 143.234 82.4986 143.218C83.2574 143.186 84.0263 142.991 84.7701 142.85C85.5491 142.704 86.3255 142.54 87.107 142.393C88.6423 142.105 90.1901 141.853 91.743 141.676C94.6402 141.346 97.555 141.333 100.435 141.818C101.219 141.949 101.99 142.121 102.761 142.312C103.566 142.512 104.339 142.815 105.133 143.052C105.412 143.135 105.613 142.678 105.367 142.524L105.365 142.527Z" fill="#803923"/>
<path d="M103.209 156.195C102.32 155.63 101.309 155.249 100.317 154.905C99.3093 154.56 98.269 154.295 97.2212 154.095C95.108 153.694 92.9319 153.555 90.786 153.732C89.5874 153.83 88.414 154.052 87.2456 154.337C86.9415 154.413 87.0646 154.928 87.3737 154.878C89.9669 154.459 92.6379 154.406 95.2437 154.726C96.5478 154.888 97.8419 155.15 99.1083 155.509C100.382 155.867 101.596 156.382 102.852 156.783C103.192 156.892 103.573 156.425 103.209 156.193V156.195Z" fill="#803923"/>
<path d="M141.919 135.814L111.449 155.62L110.726 156.087L102.381 161.511C102.381 161.511 95.1919 155.138 94.134 148.344C93.0761 141.549 98.7851 140.06 98.7851 140.06C98.7851 140.06 92.0208 133.05 90.1186 122.856C88.2165 112.661 92.654 112.661 92.654 112.661C92.654 112.661 84.6207 108.204 81.8718 98.6454C79.1228 89.0894 86.3118 88.2414 86.3118 88.2414C86.3118 88.2414 70.6649 74.6469 68.9738 67.6402C67.3053 60.7194 73.6752 62.9127 73.8335 62.9657C73.748 62.7335 69.8055 52.4102 68.5491 39.1818C67.2827 25.8019 73.836 29.8353 79.9671 35.9965C82.412 38.4524 89.1462 44.8785 96.5412 52.1023C96.9207 52.4759 97.3026 52.8469 97.6845 53.2205C108.562 63.8693 120.443 75.8661 122.041 79.3189C124.79 85.2681 127.539 105.867 131.765 116.488C135.994 127.106 141.914 135.812 141.914 135.812L141.919 135.814Z" fill="#BB6A42"/>
<path d="M114.733 146.81C113.042 146.711 111.012 146.845 109.64 147.956C107.964 149.313 108.537 151.504 109.542 153.092C110.1 153.978 110.753 154.818 111.447 155.619L110.723 156.085C109.492 154.697 108.268 153.145 107.828 151.373C107.374 149.543 108.102 147.771 109.738 146.848C110.929 146.179 112.316 145.954 113.683 145.939C111.989 144.389 110.273 142.857 108.642 141.242C106.115 138.74 103.67 135.28 105.24 131.6C105.846 130.181 107.007 128.899 108.542 128.538C109.404 128.336 110.238 128.493 111.062 128.788C111.693 129.013 112.311 129.318 112.957 129.449C110.796 127.448 108.806 125.259 107.027 122.91C105.248 120.552 103.627 118.028 102.338 115.363C101.129 112.874 100.345 110.042 101.18 107.309C101.938 104.82 103.974 103.124 106.552 102.854C108.509 102.647 110.479 103.111 112.349 103.76C110.427 101.771 108.524 99.7617 106.72 97.6643C102.77 93.0806 99.2121 87.9846 97.3276 82.1718C96.5888 79.9027 96.1365 76.6769 98.599 75.2711C100.122 74.4028 101.891 74.7991 103.476 75.5537C102.069 73.8929 100.697 72.2018 99.4157 70.4426C96.3551 66.2476 93.7419 61.5328 93.0031 56.3156C92.8498 55.2176 92.6664 53.9077 93.3474 52.9435C93.9881 52.0348 95.1113 51.8581 96.1365 52.0247C96.2722 52.0475 96.4129 52.0727 96.5461 52.103C96.9255 52.4765 97.3075 52.8476 97.6894 53.2211C96.8828 52.9056 96.0285 52.6759 95.2018 52.792C93.8775 52.9839 93.6464 54.1626 93.7569 55.3236C93.8675 56.5251 94.1112 57.724 94.4303 58.885C95.0585 61.1668 96.0209 63.3501 97.1843 65.4021C99.584 69.6324 102.748 73.3629 105.909 77.0303C106.258 77.4367 105.66 77.9112 105.275 77.6411C103.386 76.3286 99.3302 74.1554 97.9281 77.2701C97.4256 78.3908 97.5914 79.7335 97.8753 80.887C98.1945 82.1743 98.6895 83.4312 99.2121 84.6453C100.298 87.1744 101.692 89.5571 103.263 91.8135C106.479 96.43 110.396 100.494 114.304 104.512C114.64 104.86 114.339 105.453 113.851 105.257C111.407 104.285 108.587 103.263 105.929 103.841C103.424 104.388 101.954 106.572 101.717 109.045C101.448 111.837 102.77 114.52 104.097 116.877C106.786 121.648 110.271 125.943 114.367 129.563C114.661 129.82 114.507 130.255 114.14 130.323C112.173 130.696 110.499 128.816 108.547 129.417C107.147 129.848 106.188 131.216 105.785 132.574C105.293 134.26 105.733 135.971 106.612 137.451C107.552 139.031 108.874 140.333 110.208 141.575C111.824 143.077 113.449 144.566 115.073 146.055C115.399 146.355 115.163 146.827 114.743 146.802L114.733 146.81Z" fill="#D4925C"/>
<path d="M106.376 69.6819C106.341 69.5911 106.288 69.5128 106.225 69.4396C106.11 69.2655 105.926 69.1191 105.773 68.9904C105.64 68.8793 105.504 68.7708 105.366 68.6648C105.057 68.4275 104.728 68.1978 104.368 68.0464C104.104 67.9353 103.8 68.0287 103.652 68.2735C103.589 68.377 103.549 68.5032 103.567 68.6244C103.589 68.7859 103.662 68.902 103.778 69.0156C104.026 69.2579 104.305 69.4623 104.577 69.6769C104.707 69.7804 104.838 69.8864 104.966 69.9949C105.034 70.053 105.099 70.1135 105.17 70.1691C105.205 70.1968 105.24 70.2246 105.275 70.2524C105.333 70.2978 105.388 70.3281 105.446 70.3533C105.512 70.3937 105.579 70.4291 105.655 70.4518C105.841 70.5073 106.037 70.4795 106.195 70.3634C106.185 70.3685 106.175 70.371 106.165 70.376C106.28 70.3079 106.371 70.2044 106.391 70.058C106.383 70.0858 106.376 70.1161 106.368 70.1438C106.401 70.0757 106.416 70.005 106.414 69.9293C106.416 69.8334 106.414 69.7753 106.376 69.6744V69.6819Z" fill="#EAC08A"/>
<path d="M109.759 69.6948C109.754 69.6771 109.736 69.6317 109.716 69.5888C109.704 69.5358 109.683 69.4827 109.656 69.4297C109.626 69.3742 109.59 69.3237 109.553 69.2733C109.472 69.1647 109.367 69.0587 109.269 68.9704C109.126 68.8416 108.967 68.7281 108.812 68.6145C108.636 68.4883 108.44 68.3621 108.244 68.2662C108.201 68.246 108.156 68.2233 108.113 68.2031C108.093 68.193 108.073 68.1854 108.055 68.1753C108.035 68.1677 107.975 68.1349 107.932 68.1248C107.93 68.1248 107.927 68.1223 107.922 68.1173C107.904 68.1046 107.884 68.0945 107.864 68.087C107.816 68.0642 107.761 68.0491 107.711 68.0289C107.553 67.9709 107.352 67.9961 107.246 68.1425C107.151 68.2737 107.118 68.4908 107.236 68.6221C107.306 68.7003 107.379 68.7785 107.455 68.8517C107.45 68.8492 107.455 68.8517 107.475 68.877C107.487 68.8921 107.502 68.9073 107.517 68.9249C107.545 68.9552 107.575 68.988 107.603 69.0183C107.756 69.1849 107.919 69.3465 108.088 69.4979C108.229 69.6241 108.364 69.7528 108.505 69.8765C108.575 69.9371 108.651 69.9951 108.731 70.0456C108.859 70.1264 108.992 70.2172 109.143 70.24C109.224 70.2652 109.304 70.2803 109.397 70.2677C109.57 70.2425 109.756 70.1062 109.771 69.9144C109.779 69.8386 109.781 69.768 109.764 69.6922L109.759 69.6948Z" fill="#EAC08A"/>
<path d="M114.809 91.1719V91.1761C114.809 91.1761 114.809 91.1761 114.811 91.1782C114.811 91.1782 114.811 91.1761 114.811 91.174C114.811 91.174 114.811 91.1719 114.809 91.1719Z" fill="#EAC08A"/>
<path d="M117.797 92.8807C117.774 92.8025 117.741 92.7293 117.704 92.6586C117.681 92.598 117.653 92.54 117.608 92.4819C117.57 92.4314 117.53 92.386 117.493 92.3355C117.397 92.2043 117.276 92.0932 117.156 91.9822C116.972 91.8156 116.784 91.6591 116.596 91.4975C116.41 91.336 116.211 91.1896 116.008 91.0483C115.955 91.0129 115.902 90.9751 115.849 90.9397C115.726 90.859 115.698 90.8438 115.764 90.8943C115.714 90.864 115.663 90.8337 115.616 90.8034C115.502 90.7454 115.392 90.6898 115.269 90.6747C115.264 90.6747 115.261 90.6722 115.256 90.6722C115.251 90.6671 115.241 90.6596 115.229 90.6495C115.09 90.5359 114.872 90.5611 114.759 90.7025C114.641 90.8514 114.678 91.0457 114.806 91.1694C114.806 91.1618 114.806 91.1517 114.804 91.1442C114.804 91.1543 114.809 91.1644 114.809 91.1745C114.847 91.2098 114.842 91.2123 114.809 91.1795C114.816 91.2249 114.832 91.2704 114.857 91.3082C114.892 91.3739 114.937 91.4319 114.977 91.495C115.05 91.6086 115.133 91.707 115.221 91.808C115.43 92.0402 115.646 92.2648 115.879 92.4718C116.08 92.651 116.279 92.8378 116.487 93.0094C116.565 93.0725 116.643 93.1281 116.731 93.176C116.749 93.1861 116.769 93.1962 116.786 93.2063C116.802 93.2139 116.817 93.224 116.829 93.2315C116.879 93.2618 116.932 93.3047 116.988 93.3275C117.005 93.335 117.189 93.3906 117.075 93.3552C117.171 93.388 117.256 93.4108 117.354 93.4234C117.674 93.4688 117.872 93.1735 117.792 92.8832L117.797 92.8807Z" fill="#EAC08A"/>
<path d="M111.801 91.0625C111.801 91.0625 111.808 91.0625 111.811 91.065C111.826 91.07 111.843 91.0776 111.858 91.0776C111.838 91.0725 111.821 91.0675 111.801 91.0625Z" fill="#EAC08A"/>
<path d="M113.411 92.331C113.353 92.2527 113.298 92.1694 113.237 92.0912C113.16 91.9902 113.054 91.8943 112.966 91.8034C112.898 91.7328 112.823 91.6646 112.742 91.604C112.559 91.4677 112.371 91.339 112.172 91.2254C112.089 91.1775 112.001 91.127 111.911 91.0917C111.876 91.0816 111.843 91.0715 111.808 91.0614C111.772 91.0488 111.735 91.0336 111.707 91.026C111.659 91.0134 111.612 91.0109 111.564 91.0109C111.413 90.9756 111.257 91.026 111.172 91.1649C111.089 91.3012 111.114 91.4476 111.2 91.5662C111.22 91.6167 111.245 91.6646 111.277 91.705C111.298 91.7302 111.328 91.7757 111.358 91.7984C111.358 91.7984 111.358 91.8009 111.36 91.8034C111.438 91.8968 111.539 91.9852 111.627 92.0685C111.767 92.2022 111.913 92.331 112.054 92.4673C112.187 92.596 112.333 92.7298 112.486 92.8358C112.707 92.9872 112.906 93.232 113.2 93.1917C113.393 93.1664 113.529 93.0301 113.569 92.8433C113.614 92.6439 113.521 92.4849 113.408 92.331H113.411Z" fill="#EAC08A"/>
<path d="M125.932 119.729C125.914 119.681 125.889 119.638 125.856 119.6C125.849 119.59 125.844 119.585 125.844 119.583C125.839 119.575 125.836 119.57 125.831 119.56C125.819 119.53 125.804 119.504 125.784 119.482C125.686 119.351 125.563 119.232 125.444 119.116C125.251 118.926 125.027 118.765 124.819 118.596C124.613 118.429 124.407 118.268 124.196 118.111C123.972 117.947 123.723 117.75 123.444 117.69C123.429 117.685 123.414 117.68 123.402 117.672C123.296 117.659 123.268 117.649 123.316 117.639C122.979 117.468 122.623 117.922 122.856 118.212C122.849 118.157 122.866 118.184 122.907 118.29C122.917 118.303 122.922 118.316 122.929 118.328C123.042 118.583 123.276 118.785 123.477 118.969C123.678 119.154 123.881 119.328 124.093 119.502C124.294 119.669 124.49 119.85 124.706 119.999C124.841 120.093 124.982 120.183 125.13 120.257C125.176 120.279 125.226 120.292 125.274 120.307C125.294 120.315 125.346 120.337 125.359 120.342C125.482 120.38 125.588 120.38 125.713 120.34C125.844 120.297 125.954 120.158 125.97 120.022C125.982 119.916 125.97 119.822 125.929 119.727L125.932 119.729Z" fill="#EAC08A"/>
<path d="M122.611 120.033C122.545 119.922 122.445 119.77 122.337 119.7C122.294 119.659 122.289 119.659 122.319 119.695C122.287 119.647 122.246 119.604 122.201 119.564C122.153 119.523 122.101 119.485 122.053 119.447C121.839 119.286 121.608 119.152 121.379 119.013C121.176 118.89 120.972 118.773 120.756 118.675C120.497 118.556 120.329 118.488 120.07 118.365C119.688 118.183 119.369 118.726 119.691 118.991C119.914 119.175 120.048 119.301 120.266 119.485C120.447 119.639 120.638 119.778 120.837 119.909C121.058 120.058 121.279 120.21 121.515 120.333C121.57 120.361 121.626 120.396 121.683 120.419C121.746 120.439 121.784 120.452 121.802 120.457C121.822 120.467 121.842 120.475 121.862 120.485C121.988 120.538 122.138 120.573 122.274 120.586C122.596 120.616 122.769 120.295 122.613 120.028L122.611 120.033Z" fill="#EAC08A"/>
<path d="M121.586 103.078C121.586 103.078 121.584 103.078 121.582 103.078C121.594 103.086 121.599 103.088 121.586 103.078Z" fill="#EAC08A"/>
<path d="M123.11 104.371C123.09 104.296 123.049 104.237 122.999 104.182C122.954 104.101 122.899 104.041 122.823 103.965C122.853 103.998 122.884 104.028 122.916 104.061C122.848 103.975 122.775 103.904 122.69 103.839C122.723 103.874 122.755 103.907 122.791 103.942C122.703 103.844 122.612 103.763 122.504 103.692C122.426 103.642 122.348 103.589 122.273 103.533C122.2 103.48 122.127 103.43 122.054 103.379C122.019 103.354 121.981 103.329 121.946 103.301C121.896 103.263 121.843 103.238 121.788 103.21C121.773 103.2 121.755 103.187 121.74 103.177C121.695 103.145 121.61 103.102 121.569 103.069C121.532 103.054 121.491 103.026 121.459 103.001C121.474 103.013 121.529 103.046 121.484 103.013C121.449 102.988 121.409 102.968 121.366 102.95C121.243 102.882 121.079 102.875 120.964 102.968C120.848 103.061 120.76 103.253 120.838 103.4C120.841 103.407 120.846 103.412 120.848 103.42C120.858 103.468 120.876 103.513 120.901 103.553C120.901 103.556 120.901 103.556 120.901 103.564C120.903 103.589 120.961 103.672 120.984 103.71C120.964 103.675 120.946 103.639 120.926 103.606C120.979 103.735 121.064 103.839 121.14 103.952C121.228 104.096 121.353 104.222 121.474 104.338C121.569 104.429 121.677 104.51 121.783 104.591C121.868 104.654 121.964 104.725 122.064 104.765C122.152 104.803 122.25 104.851 122.343 104.869C122.376 104.874 122.409 104.879 122.441 104.886C122.487 104.894 122.534 104.891 122.579 104.891C122.585 104.891 122.585 104.891 122.592 104.891C122.637 104.899 122.683 104.901 122.728 104.899C122.786 104.894 122.838 104.881 122.891 104.858C122.977 104.823 123.064 104.75 123.1 104.659C123.137 104.561 123.132 104.472 123.107 104.371H123.11Z" fill="#EAC08A"/>
<path d="M121.572 103.07C121.572 103.07 121.565 103.065 121.562 103.062C121.562 103.062 121.567 103.067 121.572 103.07C121.577 103.07 121.579 103.075 121.584 103.075C121.579 103.072 121.579 103.072 121.575 103.067L121.572 103.07Z" fill="#EAC08A"/>
<path d="M121.558 103.056C121.558 103.056 121.554 103.053 121.554 103.051C121.542 103.043 121.546 103.047 121.558 103.056Z" fill="#EAC08A"/>
<path d="M108.998 110.94C108.952 110.847 108.907 110.764 108.829 110.69C108.807 110.67 108.781 110.65 108.759 110.63C108.711 110.572 108.661 110.519 108.601 110.468C108.563 110.43 108.525 110.398 108.48 110.367C108.435 110.337 108.389 110.307 108.342 110.276C108.216 110.196 108.08 110.122 107.947 110.057C107.849 110.011 107.749 109.963 107.648 109.923C107.621 109.913 107.59 109.905 107.563 109.895C107.525 109.883 107.497 109.875 107.477 109.868C107.477 109.868 107.322 109.82 107.306 109.815C107.296 109.815 107.286 109.815 107.276 109.815C107.178 109.784 107.08 109.762 106.98 109.807C106.899 109.842 106.837 109.895 106.791 109.971C106.683 110.148 106.739 110.337 106.877 110.476L106.889 110.488C106.904 110.509 106.917 110.529 106.937 110.549C106.972 110.584 107.007 110.617 107.043 110.647C107.015 110.62 106.99 110.592 106.962 110.564C107.118 110.731 107.289 110.877 107.48 111.006C107.588 111.079 107.696 111.155 107.809 111.218C107.852 111.243 107.897 111.266 107.94 111.289C107.992 111.316 108.045 111.337 108.1 111.352C108.166 111.377 108.231 111.397 108.299 111.41C108.324 111.42 108.352 111.43 108.377 111.44C108.475 111.473 108.568 111.478 108.671 111.475C108.91 111.468 109.108 111.165 109 110.943L108.998 110.94Z" fill="#EAC08A"/>
<path d="M127.445 131.998C127.425 131.93 127.382 131.869 127.332 131.816C127.325 131.801 127.325 131.786 127.315 131.773C127.282 131.715 127.242 131.675 127.196 131.629C127.196 131.627 127.196 131.624 127.191 131.617C127.171 131.571 127.106 131.521 127.068 131.488C127.021 131.448 126.975 131.402 126.925 131.367C126.83 131.299 126.724 131.238 126.624 131.175C126.561 131.135 126.5 131.094 126.438 131.057C126.402 131.036 126.367 131.014 126.332 130.993C126.327 130.991 126.325 130.988 126.32 130.986C126.093 130.844 125.867 130.708 125.639 130.574C125.586 130.542 125.531 130.514 125.475 130.484C125.407 130.448 125.34 130.426 125.272 130.398C125.284 130.403 125.279 130.398 125.252 130.383C125.221 130.367 125.189 130.355 125.159 130.34C125.103 130.312 125.048 130.284 124.993 130.256C124.649 130.082 124.262 130.552 124.515 130.855C124.691 131.062 124.855 131.274 125.058 131.455C125.242 131.619 125.438 131.768 125.641 131.907C125.862 132.061 126.098 132.22 126.342 132.336C126.39 132.359 126.438 132.372 126.488 132.387C126.566 132.409 126.578 132.412 126.528 132.399C126.493 132.389 126.49 132.389 126.521 132.399C126.598 132.442 126.701 132.45 126.787 132.462C126.84 132.47 126.892 132.483 126.948 132.478L126.988 132.467C127.026 132.47 127.071 132.475 127.073 132.475C127.134 132.475 127.189 132.462 127.244 132.445C127.43 132.387 127.49 132.17 127.44 132.001L127.445 131.998Z" fill="#EAC08A"/>
<path d="M116.637 138.068C116.577 138.01 116.524 137.973 116.451 137.93C116.426 137.914 116.399 137.899 116.373 137.884C116.406 137.904 116.401 137.899 116.361 137.869C116.303 137.819 116.233 137.786 116.165 137.75C116.147 137.74 116.13 137.733 116.11 137.723C116.105 137.72 116.105 137.718 116.1 137.715C115.886 137.581 115.65 137.48 115.416 137.387C115.318 137.349 115.22 137.309 115.125 137.268C115.069 137.246 115.014 137.22 114.959 137.198C114.931 137.185 114.68 137.092 114.79 137.135C114.554 137.041 114.386 137.021 114.147 136.925C113.989 136.862 113.805 136.912 113.717 137.061C113.632 137.205 113.657 137.4 113.793 137.508C113.815 137.526 113.841 137.543 113.863 137.564C113.893 137.599 113.903 137.604 113.896 137.579C113.956 137.624 113.999 137.695 114.062 137.74C114.102 137.776 114.107 137.778 114.079 137.748C114.112 137.793 114.15 137.829 114.197 137.856C114.245 137.892 114.295 137.922 114.346 137.955C114.554 138.094 114.775 138.215 114.996 138.333C115.102 138.389 115.213 138.442 115.323 138.485C115.439 138.53 115.579 138.604 115.7 138.614C115.753 138.626 115.758 138.624 115.71 138.606C115.763 138.621 115.818 138.639 115.871 138.654C115.931 138.672 115.984 138.677 116.044 138.684C116.182 138.702 116.303 138.73 116.446 138.72C116.59 138.71 116.718 138.596 116.758 138.46C116.801 138.308 116.75 138.177 116.64 138.071L116.637 138.068Z" fill="#EAC08A"/>
<path d="M134.433 132.526C134.413 132.473 134.388 132.425 134.35 132.38C134.305 132.327 134.252 132.276 134.202 132.226C134.137 132.16 134.071 132.089 133.996 132.034C133.828 131.905 133.652 131.794 133.468 131.691C133.315 131.602 133.159 131.524 132.999 131.453C132.828 131.38 132.659 131.294 132.486 131.224C132.302 131.15 132.064 131.221 131.986 131.415C131.91 131.607 131.986 131.832 132.177 131.918C132.262 131.956 132.348 131.996 132.431 132.039C132.473 132.062 132.514 132.082 132.554 132.104C132.566 132.112 132.579 132.12 132.591 132.125C132.599 132.132 132.607 132.137 132.612 132.142C132.77 132.251 132.923 132.364 133.071 132.486C133.217 132.604 133.353 132.733 133.501 132.849C133.574 132.907 133.644 132.97 133.72 133.026C133.762 133.059 133.808 133.081 133.858 133.099C133.936 133.152 134.014 133.187 134.109 133.197C134.345 133.22 134.546 133.048 134.531 132.801C134.524 132.693 134.481 132.609 134.431 132.523L134.433 132.526Z" fill="#EAC08A"/>
<path d="M139.298 131.458C139.102 130.825 138.848 130.204 138.602 129.588C138.102 128.331 137.597 127.074 137.089 125.82C136.079 123.331 135.051 120.852 133.991 118.386C133.702 117.712 133.4 117.039 133.076 116.38C132.729 115.676 132.302 115.007 131.963 114.303C131.77 113.904 131.149 114.126 131.312 114.552C131.548 115.168 131.699 115.83 131.925 116.453C132.152 117.079 132.398 117.695 132.644 118.313C133.142 119.573 133.667 120.82 134.184 122.069C135.21 124.55 136.217 127.039 137.205 129.535C137.474 130.217 137.73 130.908 138.026 131.58C138.325 132.256 138.599 133.043 139.129 133.571C139.318 133.76 139.722 133.609 139.735 133.339C139.765 132.672 139.494 132.084 139.3 131.458H139.298Z" fill="#D4925C"/>
<path d="M170.674 178.294C165.309 180.225 160.513 181.737 156.198 182.948C140.117 187.469 130.784 187.799 123.947 189.975C115.281 192.736 94.1357 200.594 86.9467 189.336C79.7577 178.082 101.114 158.543 111.049 151.749C111.049 151.749 118.741 145.411 128.766 139.507C134.418 136.178 140.815 132.987 146.991 131.147C164.118 126.051 177.65 126.899 185.261 135.607C192.874 144.313 196.043 169.162 170.674 178.294Z" fill="#EAC08A"/>
<path d="M170.675 178.289C167.607 179.392 164.723 180.363 162.009 181.214C161.828 181.27 161.647 181.33 161.469 181.383C159.637 181.954 157.88 182.474 156.202 182.943C155.875 182.357 155.702 181.696 155.75 181.007C155.069 181.398 154.39 181.79 153.709 182.181C153.079 182.544 152.315 183.153 151.536 183.069C150.694 182.978 150.566 182.135 150.794 181.461C150.955 180.994 151.141 180.53 151.332 180.071C150.872 180.386 150.372 180.639 149.817 180.772C148.945 180.982 147.988 180.843 147.249 180.313C146.563 179.823 146.204 179 146.352 178.163C146.422 177.774 146.586 177.418 146.832 177.138C146.724 177.173 146.618 177.216 146.52 177.256C146.136 177.415 145.761 177.615 145.362 177.738C144.578 177.981 143.806 177.855 143.246 177.224C142.708 176.615 142.515 175.734 142.683 174.952C142.816 174.321 143.121 173.761 143.482 173.238C142.198 173.498 140.748 173.279 139.99 172.138C139.477 171.358 139.399 170.28 139.821 169.475C138.432 169.606 136.932 169.248 136.175 168.011C135.61 167.09 135.585 165.82 136.158 164.937C135.019 164.863 133.926 164.169 133.484 163.074C132.992 161.832 133.467 160.386 134.469 159.57C133.921 159.427 133.333 159.422 132.773 159.386C132.162 159.343 131.489 159.29 130.971 158.927C130.471 158.573 130.23 157.91 130.356 157.311C130.587 156.196 131.821 155.575 132.233 154.575C130.615 154.878 128.898 153.619 128.579 151.998C128.248 150.327 129.346 148.775 130.8 148.061C130.235 147.879 129.687 147.647 129.207 147.284C128.516 146.756 128.006 145.91 128.024 145.019C128.046 144.043 128.765 143.417 129.469 142.849C130.22 142.243 130.971 141.637 131.725 141.037C130.609 140.835 129.574 140.294 128.77 139.504C130.439 138.523 132.17 137.551 133.941 136.627C134.125 136.529 134.313 136.43 134.499 136.339C138.567 134.239 142.829 132.387 146.995 131.147C164.122 126.051 177.653 126.899 185.264 135.607C192.878 144.313 196.047 169.162 170.678 178.294L170.675 178.289Z" fill="#DDA76E"/>
<path d="M96.9244 172.329V172.339C96.9017 172.263 96.8716 172.193 96.8188 172.129C96.7686 172.079 96.7208 172.026 96.6706 171.975C96.653 171.96 96.6329 171.953 96.6153 171.943C96.5751 171.915 96.5374 171.892 96.4997 171.872C96.4972 171.872 96.4922 171.867 96.4896 171.867C96.4067 171.824 96.3238 171.794 96.2158 171.776C96.1152 171.761 96.0248 171.763 95.9368 171.776C95.9268 171.776 95.9192 171.776 95.9092 171.776C95.8212 171.796 95.7358 171.816 95.6479 171.839C95.5725 171.882 95.4946 171.922 95.4192 171.965C95.4092 171.973 95.4016 171.98 95.3916 171.991C95.2911 172.079 95.1956 172.172 95.1026 172.268C95.0222 172.352 94.9518 172.44 94.8865 172.533C94.8111 172.642 94.7383 172.755 94.693 172.879C94.6478 173 94.6126 173.126 94.5774 173.25C94.5624 173.303 94.5473 173.354 94.5423 173.409C94.5423 173.422 94.5423 173.434 94.5397 173.444C94.5347 173.525 94.5222 173.621 94.5297 173.699C94.5372 173.765 94.5674 173.881 94.5875 173.944C94.5925 173.957 94.5975 173.967 94.6026 173.977L94.6176 174.04C94.6528 174.103 94.6855 174.166 94.7207 174.227C94.7684 174.277 94.8161 174.325 94.8639 174.376C94.9443 174.444 95.0348 174.489 95.1353 174.512C95.1981 174.54 95.2659 174.552 95.3363 174.545C95.4066 174.558 95.4745 174.55 95.5423 174.525C95.6152 174.517 95.6805 174.492 95.7383 174.449C95.8011 174.421 95.8564 174.381 95.9067 174.333C95.9821 174.28 96.0549 174.217 96.1127 174.139C96.1379 174.106 96.163 174.07 96.1856 174.038C96.2333 173.967 96.2861 173.901 96.3439 173.838C96.4017 173.773 96.4469 173.699 96.4997 173.631C96.5449 173.576 96.5952 173.523 96.6454 173.472C96.653 173.465 96.6605 173.46 96.6655 173.452C96.7635 173.371 96.8364 173.27 96.8867 173.152C96.8967 173.126 96.9042 173.099 96.9118 173.071C96.9394 173.02 96.952 173.013 96.9821 172.846C97.0123 172.662 96.9897 172.513 96.9294 172.339L96.9244 172.329Z" fill="#BB6A42"/>
<path d="M101.198 172.673C101.198 172.673 101.198 172.66 101.198 172.652C101.183 172.587 101.167 172.524 101.152 172.458C101.12 172.362 101.064 172.279 100.989 172.213C100.949 172.16 100.901 172.12 100.841 172.095C100.791 172.054 100.733 172.029 100.67 172.019C100.585 171.994 100.489 171.981 100.394 171.986C100.311 171.981 100.23 171.986 100.152 172.014C100.064 172.026 99.9865 172.062 99.9111 172.107C99.7905 172.165 99.6548 172.223 99.5619 172.302C99.4287 172.415 99.2905 172.534 99.1724 172.66C99.1096 172.726 99.0291 172.794 98.9789 172.87C98.9538 172.91 98.9286 172.95 98.901 172.988C98.8507 173.061 98.7955 173.137 98.7603 173.218C98.7276 173.294 98.71 173.369 98.7 173.445C98.7 173.445 98.7 173.445 98.7 173.442C98.6924 173.47 98.6874 173.498 98.6799 173.526C98.6598 173.627 98.6648 173.723 98.6975 173.819C98.7125 173.92 98.7527 174.013 98.8181 174.094C98.9387 174.245 99.1045 174.361 99.3005 174.389C99.3282 174.394 99.3558 174.397 99.3834 174.402C99.4613 174.417 99.5418 174.424 99.6247 174.417C99.7202 174.409 99.8131 174.374 99.9061 174.349C99.9564 174.333 100.009 174.321 100.059 174.303C100.167 174.265 100.298 174.174 100.404 174.106C100.449 174.076 100.499 174.048 100.539 174.013C100.637 173.925 100.73 173.831 100.823 173.738C100.916 173.644 100.979 173.538 101.039 173.42C101.157 173.188 101.253 172.93 101.198 172.678V172.673Z" fill="#BB6A42"/>
<path d="M121.104 153.915C121.097 153.787 121.057 153.668 120.989 153.564C120.939 153.451 120.863 153.357 120.763 153.282C120.695 153.241 120.627 153.198 120.562 153.158C120.413 153.092 120.258 153.067 120.094 153.082C119.906 153.113 119.702 153.156 119.554 153.289C119.526 153.315 119.499 153.342 119.469 153.368C119.456 153.38 119.444 153.39 119.433 153.4C119.426 153.408 119.418 153.416 119.408 153.423C119.346 153.484 119.285 153.544 119.222 153.602C119.197 153.633 119.177 153.668 119.155 153.701C119.069 153.824 118.981 153.948 118.916 154.084C118.883 154.153 118.853 154.223 118.818 154.291C118.712 154.508 118.717 154.761 118.8 154.983C118.808 155.016 118.81 155.046 118.823 155.079C118.873 155.208 118.948 155.314 119.057 155.399C119.16 155.483 119.275 155.533 119.406 155.556C119.433 155.561 119.464 155.556 119.491 155.558C119.732 155.599 119.986 155.546 120.185 155.397C120.245 155.351 120.308 155.306 120.371 155.261C120.489 155.17 120.592 155.051 120.697 154.943C120.722 154.917 120.753 154.892 120.775 154.864C120.798 154.837 120.815 154.801 120.836 154.771C120.856 154.738 120.878 154.703 120.898 154.67C120.981 154.572 121.037 154.461 121.062 154.339C121.082 154.296 121.094 154.251 121.099 154.206C121.117 154.117 121.109 154.014 121.107 153.92L121.104 153.915Z" fill="#BB6A42"/>
<path d="M120.421 158.516C120.353 158.339 120.225 158.21 120.064 158.132C120.001 158.094 119.933 158.061 119.86 158.039C119.742 158.003 119.669 157.978 119.529 158.001C119.516 158.001 119.504 158.006 119.491 158.008C119.463 158.008 119.436 158.008 119.408 158.006C119.363 158.016 119.32 158.026 119.277 158.036C119.207 158.054 119.149 158.066 119.086 158.094C118.988 158.135 118.885 158.18 118.805 158.241C118.725 158.301 118.654 158.382 118.581 158.455C118.541 158.496 118.501 158.538 118.463 158.584C118.446 158.604 118.428 158.624 118.413 158.644C118.31 158.773 118.24 158.927 118.212 159.091L118.272 158.887C118.257 158.917 118.242 158.945 118.23 158.975C118.227 158.983 118.222 158.988 118.22 158.995C118.174 159.089 118.154 159.187 118.159 159.291C118.152 159.359 118.159 159.424 118.174 159.49C118.184 159.672 118.262 159.843 118.408 159.962C118.496 160.03 118.594 160.076 118.702 160.093C118.747 160.101 118.792 160.098 118.838 160.098C118.895 160.108 118.953 160.111 119.016 160.103C119.134 160.091 119.172 160.076 119.247 160.043C119.26 160.038 119.27 160.033 119.282 160.028C119.338 160.01 119.39 159.987 119.446 159.959C119.519 159.922 119.594 159.886 119.669 159.853C119.787 159.803 119.883 159.737 119.981 159.659C119.988 159.652 119.999 159.647 120.006 159.639C120.064 159.594 120.139 159.523 120.187 159.467C120.205 159.447 120.217 159.422 120.232 159.399C120.3 159.334 120.345 159.281 120.391 159.167C120.411 159.099 120.431 159.031 120.451 158.963C120.451 158.957 120.451 158.955 120.451 158.95C120.456 158.93 120.463 158.912 120.468 158.892C120.489 158.763 120.476 158.637 120.431 158.513L120.421 158.516Z" fill="#BB6A42"/>
<path d="M97.2922 190.591C97.2872 190.501 97.2595 190.417 97.2093 190.342C97.1741 190.261 97.1213 190.195 97.0485 190.142C96.9052 190.036 96.7519 189.993 96.5761 190.001C96.4856 190.003 96.4002 190.029 96.3122 190.051C96.2821 190.056 96.2519 190.064 96.2218 190.069C96.0358 190.097 95.8574 190.137 95.7066 190.256C95.679 190.276 95.6539 190.299 95.6262 190.319C95.5735 190.359 95.5182 190.397 95.4604 190.435C95.3775 190.488 95.3096 190.574 95.2393 190.644C95.184 190.7 95.1413 190.768 95.1061 190.841C94.9402 191.018 94.9176 191.316 94.998 191.533C95.086 191.76 95.277 191.909 95.5081 191.965C95.5106 191.965 95.5132 191.97 95.5182 191.97C95.6539 192.03 95.7921 192.053 95.9403 192.038C95.9629 192.038 95.9881 192.038 96.0107 192.035C96.1313 192.028 96.2494 191.99 96.36 191.944C96.5786 191.856 96.8097 191.745 96.958 191.561C97.051 191.447 97.1213 191.296 97.1791 191.157C97.1967 191.114 97.2118 191.074 97.2269 191.028C97.2846 190.851 97.2922 190.819 97.2947 190.637C97.2947 190.622 97.2947 190.604 97.2947 190.589L97.2922 190.591Z" fill="#BB6A42"/>
<path d="M100.562 191.192C100.547 191.093 100.509 191.005 100.446 190.924C100.326 190.773 100.17 190.677 99.9788 190.636C99.9562 190.631 99.931 190.631 99.9084 190.631C99.8582 190.616 99.8054 190.609 99.7501 190.614C99.637 190.601 99.529 190.616 99.4209 190.662C99.333 190.679 99.2501 190.707 99.1747 190.758C99.1119 190.79 99.0591 190.823 99.0013 190.861C98.9511 190.896 98.9058 190.934 98.8581 190.975C98.7651 191.055 98.6747 191.139 98.5817 191.219C98.4912 191.283 98.4209 191.361 98.3731 191.459C98.3103 191.545 98.2726 191.643 98.2575 191.752C98.2575 191.823 98.2525 191.896 98.25 191.967C98.2575 192.083 98.2927 192.186 98.353 192.28C98.3807 192.35 98.4234 192.408 98.4812 192.454C98.549 192.537 98.6344 192.6 98.735 192.64C98.8028 192.661 98.8707 192.681 98.936 192.701C99.0817 192.724 99.2249 192.709 99.3657 192.656C99.4737 192.603 99.5818 192.552 99.6873 192.499C99.8079 192.439 99.9285 192.38 100.042 192.307C100.064 192.292 100.089 192.277 100.112 192.262C100.15 192.239 100.182 192.209 100.21 192.173C100.248 192.148 100.278 192.118 100.303 192.08C100.313 192.062 100.323 192.045 100.336 192.027C100.351 192.012 100.366 191.994 100.381 191.979C100.471 191.863 100.529 191.734 100.554 191.588C100.554 191.583 100.554 191.575 100.554 191.57C100.564 191.54 100.572 191.512 100.579 191.477C100.599 191.378 100.594 191.285 100.564 191.192H100.562Z" fill="#BB6A42"/>
<path d="M135.785 179.996C135.624 179.779 135.355 179.658 135.089 179.683C134.943 179.698 134.79 179.708 134.657 179.774C134.579 179.812 134.503 179.85 134.423 179.877C134.35 179.918 134.28 179.956 134.207 179.996C134.199 180.001 134.194 180.009 134.187 180.014C134.167 180.031 134.146 180.049 134.129 180.067L134.041 180.147C134.026 180.163 134.008 180.178 133.993 180.193C133.958 180.223 133.925 180.256 133.893 180.289C133.832 180.334 133.785 180.392 133.754 180.463C133.749 180.47 133.744 180.481 133.739 180.488C133.621 180.635 133.518 180.794 133.486 180.978C133.483 180.985 133.478 180.99 133.476 180.998C133.378 181.177 133.423 181.427 133.538 181.586C133.659 181.75 133.863 181.844 134.066 181.821C134.066 181.821 134.081 181.823 134.089 181.823C134.089 181.823 134.086 181.823 134.084 181.823C134.154 181.841 134.227 181.851 134.3 181.841C134.38 181.833 134.458 181.813 134.533 181.791C134.533 181.791 134.538 181.791 134.541 181.791C134.629 181.778 134.719 181.765 134.8 181.732C134.842 181.715 134.885 181.692 134.928 181.672C134.971 181.652 135.013 181.632 135.056 181.611C135.222 181.531 135.335 181.467 135.456 181.329C135.533 181.263 135.611 181.197 135.667 181.124C135.75 181.018 135.81 180.897 135.87 180.778C135.996 180.539 135.941 180.213 135.787 180.001L135.785 179.996Z" fill="#BB6A42"/>
<path d="M131.317 178.924C131.219 178.846 131.108 178.798 130.985 178.775C130.857 178.755 130.734 178.767 130.613 178.813C130.555 178.828 130.5 178.848 130.445 178.871C130.43 178.871 130.415 178.873 130.4 178.876C130.163 178.906 129.972 179.012 129.779 179.138C129.613 179.244 129.482 179.403 129.344 179.542C129.266 179.615 129.206 179.684 129.136 179.762C129.108 179.792 129.08 179.822 129.053 179.853C128.975 179.944 128.91 180.067 128.872 180.198C128.847 180.239 128.824 180.282 128.807 180.327C128.731 180.522 128.734 180.711 128.834 180.895C128.869 180.973 128.92 181.039 128.99 181.092C129.078 181.163 129.176 181.206 129.286 181.226C129.337 181.241 129.39 181.246 129.442 181.249H129.447C129.49 181.261 129.533 181.271 129.573 181.276C129.648 181.276 129.724 181.281 129.799 181.284C129.885 181.266 129.967 181.246 130.05 181.223C130.098 181.211 130.143 181.198 130.189 181.185C130.276 181.16 130.362 181.127 130.447 181.082C130.601 181.004 130.754 180.928 130.895 180.83C131.028 180.736 131.146 180.612 131.246 180.484C131.375 180.325 131.43 180.135 131.473 179.941C131.515 179.827 131.555 179.716 131.576 179.595C131.618 179.343 131.515 179.078 131.317 178.919V178.924Z" fill="#BB6A42"/>
<path d="M113.689 171.652C113.643 171.515 113.555 171.409 113.435 171.334C113.415 171.318 113.392 171.306 113.369 171.293C113.274 171.25 113.176 171.235 113.073 171.245C113.06 171.245 113.048 171.245 113.035 171.245C113.03 171.245 113.025 171.245 113.02 171.245C112.955 171.248 112.905 171.263 112.854 171.283C112.784 171.301 112.716 171.316 112.646 171.334C112.638 171.334 112.633 171.339 112.626 171.341C112.618 171.344 112.611 171.349 112.603 171.351C112.528 171.369 112.457 171.397 112.392 171.44C112.329 171.475 112.281 171.503 112.224 171.543C112.113 171.621 112.025 171.672 111.93 171.793C111.897 171.836 111.862 171.876 111.827 171.917C111.744 172.01 111.681 172.129 111.643 172.257C111.641 172.262 111.636 172.27 111.633 172.275C111.616 172.336 111.595 172.396 111.578 172.459L111.57 172.654C111.578 172.757 111.608 172.853 111.663 172.936C111.688 172.999 111.726 173.052 111.779 173.095C111.819 173.148 111.867 173.189 111.927 173.214C111.977 173.254 112.035 173.28 112.101 173.292C112.163 173.317 112.226 173.325 112.291 173.328C112.302 173.33 112.312 173.333 112.322 173.338C112.435 173.36 112.548 173.355 112.656 173.317C112.709 173.305 112.749 173.297 112.797 173.28C112.852 173.259 112.905 173.237 112.96 173.211C113.035 173.176 113.111 173.136 113.181 173.09C113.236 173.035 113.294 172.982 113.349 172.926C113.359 172.916 113.372 172.903 113.382 172.893C113.402 172.873 113.422 172.85 113.44 172.83C113.46 172.808 113.477 172.787 113.495 172.765C113.57 172.676 113.621 172.575 113.643 172.462C113.643 172.459 113.643 172.454 113.646 172.449C113.648 172.442 113.651 172.434 113.656 172.426C113.704 172.293 113.744 172.164 113.726 172.02C113.749 171.896 113.726 171.773 113.689 171.654V171.652Z" fill="#BB6A42"/>
<path d="M128.316 165.454C128.309 165.416 128.299 165.381 128.291 165.343C128.276 165.237 128.233 165.141 128.165 165.055C128.118 165.007 128.072 164.956 128.025 164.909C127.997 164.888 127.964 164.868 127.934 164.853C127.851 164.792 127.756 164.755 127.653 164.742C127.585 164.742 127.515 164.737 127.447 164.734C127.434 164.734 127.419 164.739 127.404 164.742C127.381 164.742 127.359 164.739 127.336 164.742C127.158 164.752 127.02 164.838 126.871 164.924C126.826 164.951 126.781 164.977 126.741 165.012C126.703 165.045 126.665 165.078 126.628 165.11C126.607 165.128 126.59 165.143 126.57 165.161C126.517 165.211 126.464 165.262 126.414 165.312C126.396 165.343 126.379 165.373 126.361 165.401C126.296 165.454 126.241 165.517 126.203 165.593C126.145 165.673 126.11 165.764 126.097 165.865L126.09 166.065C126.097 166.171 126.128 166.269 126.185 166.355C126.21 166.42 126.248 166.473 126.303 166.516C126.366 166.595 126.444 166.653 126.54 166.69C126.602 166.708 126.665 166.728 126.726 166.746C126.861 166.769 126.994 166.754 127.123 166.706C127.14 166.696 127.16 166.688 127.178 166.678C127.238 166.673 127.296 166.663 127.371 166.627C127.394 166.617 127.414 166.605 127.437 166.595C127.482 166.572 127.53 166.547 127.575 166.524C127.685 166.468 127.791 166.413 127.889 166.337C127.899 166.33 127.912 166.319 127.922 166.312C127.954 166.287 127.982 166.261 128.01 166.229C128.098 166.158 128.163 166.067 128.206 165.961C128.213 165.943 128.221 165.921 128.228 165.898C128.271 165.827 128.301 165.749 128.314 165.663C128.314 165.595 128.319 165.524 128.321 165.456L128.316 165.454Z" fill="#BB6A42"/>
<path d="M168.275 136.529C168.275 136.529 165.033 130.299 154.181 135.113C143.328 139.926 143.047 149.979 145.864 159.606C147.854 166.398 158.126 175.464 172.504 173.763C186.882 172.064 189.983 158.046 189.136 150.118C188.289 142.19 179.409 125.908 168.275 136.526V136.529Z" fill="#FEE6C7"/>
<path d="M162.32 155.064C164.353 153.031 164.353 149.735 162.32 147.702C160.287 145.669 156.991 145.669 154.958 147.702C152.925 149.735 152.925 153.031 154.958 155.064C156.991 157.097 160.287 157.097 162.32 155.064Z" fill="#A04A30"/>
<path d="M162.036 154.447C163.914 152.569 163.914 149.525 162.036 147.647C160.158 145.769 157.114 145.769 155.236 147.647C153.358 149.525 153.358 152.569 155.236 154.447C157.114 156.325 160.158 156.325 162.036 154.447Z" fill="#FDBF2B"/>
<path d="M160.964 153.035C162.062 151.937 162.062 150.157 160.964 149.059C159.866 147.961 158.086 147.961 156.988 149.059C155.89 150.157 155.89 151.937 156.988 153.035C158.086 154.133 159.866 154.133 160.964 153.035Z" fill="#21201F"/>
<path d="M158.083 149.897C158.505 149.475 158.505 148.791 158.083 148.368C157.66 147.946 156.976 147.946 156.554 148.368C156.131 148.791 156.131 149.475 156.554 149.897C156.976 150.32 157.66 150.32 158.083 149.897Z" fill="white"/>
<path d="M183.043 155.064C185.076 153.031 185.076 149.735 183.043 147.702C181.01 145.669 177.714 145.669 175.681 147.702C173.648 149.735 173.648 153.031 175.681 155.064C177.714 157.097 181.01 157.097 183.043 155.064Z" fill="#A04A30"/>
<path d="M182.759 154.447C184.636 152.569 184.636 149.525 182.759 147.647C180.881 145.769 177.836 145.769 175.959 147.647C174.081 149.525 174.081 152.569 175.959 154.447C177.836 156.325 180.881 156.325 182.759 154.447Z" fill="#FDBF2B"/>
<path d="M181.686 153.035C182.784 151.937 182.784 150.157 181.686 149.059C180.588 147.961 178.808 147.961 177.711 149.059C176.613 150.157 176.613 151.937 177.711 153.035C178.808 154.133 180.588 154.133 181.686 153.035Z" fill="#21201F"/>
<path d="M178.805 149.897C179.228 149.475 179.228 148.791 178.805 148.368C178.383 147.946 177.698 147.946 177.276 148.368C176.854 148.791 176.854 149.475 177.276 149.897C177.698 150.32 178.383 150.32 178.805 149.897Z" fill="white"/>
<path d="M169.545 150.258L165.176 155.212L169.968 163.708L173.774 155.071L169.545 150.258Z" fill="#DD4D5D"/>
<path d="M162.911 178.664C162.368 179.421 162.071 180.31 162.006 181.221C161.825 181.277 161.644 181.337 161.466 181.39C161.501 180.534 161.725 179.689 162.129 178.932C161.26 179.164 160.378 179.363 159.491 179.517C158.589 179.676 157.614 179.868 156.712 179.601C155.923 179.368 155.362 178.722 155.269 177.894C155.189 177.185 155.4 176.473 155.669 175.812C154.566 175.986 153.453 176.075 152.337 176.062C151.44 176.052 150.51 175.991 149.671 175.63C148.869 175.282 148.259 174.633 148.06 173.768C147.857 172.866 148.078 171.938 148.339 171.067C146.804 170.845 144.98 171.38 143.665 170.39C142.113 169.224 142.784 167.137 143.57 165.691C142.814 165.461 142.002 165.461 141.243 165.229C140.467 164.991 139.856 164.487 139.527 163.732C138.818 162.101 139.627 160.448 140.522 159.073C139.886 158.896 139.205 158.901 138.572 158.707C137.891 158.495 137.353 158.02 137.127 157.334C136.647 155.87 137.497 154.577 138.401 153.497C137.082 153.159 135.637 152.588 135.27 151.142C134.833 149.398 136.077 147.987 137.278 146.889C135.735 146.314 134.157 145.37 134.343 143.472C134.449 142.394 135.024 141.346 135.544 140.42C136.042 139.537 136.615 138.709 137.255 137.924C136.147 137.497 135.037 137.066 133.934 136.631C134.117 136.533 134.305 136.435 134.491 136.344C135.587 136.753 136.685 137.164 137.778 137.581C137.931 137.639 137.974 137.853 137.874 137.977C137.233 138.742 136.652 139.559 136.15 140.423C135.652 141.276 135.122 142.217 134.924 143.191C134.73 144.128 135.017 144.953 135.763 145.536C136.389 146.023 137.155 146.301 137.894 146.551C138.1 146.622 138.077 146.889 137.944 147.008C136.828 147.992 135.321 149.388 135.801 151.066C136.185 152.404 137.75 152.803 138.934 153.076C139.12 153.118 139.243 153.351 139.102 153.512C138.235 154.504 137.122 155.809 137.663 157.233C138.178 158.586 139.947 158.242 141.052 158.684C141.226 158.752 141.248 158.964 141.155 159.1C140.278 160.39 139.303 162.054 140.07 163.631C140.803 165.135 142.748 164.774 144.07 165.294C144.193 165.342 144.276 165.529 144.206 165.65C143.472 166.912 142.49 169.197 144.233 170.12C144.889 170.469 145.683 170.459 146.407 170.456C147.181 170.451 147.962 170.421 148.726 170.587C148.907 170.63 148.98 170.794 148.927 170.966C148.653 171.834 148.349 172.839 148.603 173.747C148.827 174.55 149.485 175.037 150.249 175.274C151.098 175.534 152.015 175.539 152.892 175.527C153.96 175.507 155.021 175.396 156.071 175.204C156.274 175.168 156.42 175.408 156.342 175.58C156.031 176.276 155.709 177.061 155.795 177.841C155.885 178.647 156.523 179.086 157.28 179.174C158.099 179.27 158.958 179.076 159.762 178.927C160.72 178.747 161.667 178.52 162.604 178.248C162.855 178.175 163.064 178.442 162.906 178.662L162.911 178.664Z" fill="#BB6A42"/>
<path d="M160.559 142.652C160.557 142.635 160.511 142.493 160.534 142.562C160.519 142.511 160.514 142.458 160.494 142.408C160.439 142.261 160.356 142.12 160.273 141.986C160.114 141.734 159.913 141.502 159.697 141.3C159.486 141.1 159.242 140.931 158.986 140.795C158.72 140.653 158.433 140.59 158.152 140.507C158.034 140.472 157.903 140.575 157.873 140.684C157.84 140.797 157.891 140.941 158.009 140.984C158.25 141.075 158.428 141.211 158.639 141.363C158.848 141.514 159.047 141.676 159.225 141.86C159.237 141.873 159.25 141.885 159.263 141.898C159.263 141.898 159.298 141.936 159.305 141.943C159.351 141.991 159.393 142.042 159.433 142.092C159.516 142.193 159.592 142.302 159.665 142.41C159.738 142.519 159.798 142.635 159.873 142.743C159.954 142.862 160.049 143.013 160.187 143.069C160.32 143.122 160.466 143.069 160.529 142.938C160.569 142.854 160.572 142.741 160.559 142.647V142.652Z" fill="#DDA76E"/>
<path d="M164.171 142.864C163.867 142.084 163.472 141.329 162.995 140.64C162.603 140.072 162.048 139.184 161.301 139.081C161.065 139.048 160.982 139.363 161.186 139.469C161.532 139.653 161.733 140.025 161.95 140.34C162.168 140.658 162.382 140.976 162.573 141.309C162.95 141.963 163.269 142.647 163.525 143.359C164.043 144.802 164.191 146.314 164.306 147.834C164.329 148.142 164.781 148.147 164.837 147.852C165.138 146.183 164.779 144.429 164.171 142.864Z" fill="#DDA76E"/>
<path d="M166.464 145.443C166.434 144.716 166.344 143.972 166.125 143.275C166.047 143.023 165.685 143.136 165.696 143.379C165.721 144.088 165.791 144.797 165.804 145.509C165.819 146.218 165.773 146.925 165.783 147.632C165.788 147.955 166.251 147.932 166.316 147.649C166.485 146.925 166.497 146.183 166.464 145.443Z" fill="#DDA76E"/>
<path d="M173.327 143.962C173.309 143.642 172.832 143.639 172.776 143.945C172.661 144.583 172.656 145.232 172.653 145.881C172.653 146.502 172.608 147.191 172.799 147.789C172.872 148.019 173.181 147.945 173.231 147.743C173.304 147.438 173.299 147.115 173.301 146.799C173.304 146.484 173.306 146.166 173.311 145.85C173.324 145.219 173.362 144.591 173.327 143.96V143.962Z" fill="#DDA76E"/>
<path d="M181.106 139.153C180.267 139.259 179.485 139.675 178.774 140.119C178.048 140.574 177.385 141.119 176.784 141.73C175.573 142.956 174.686 144.45 174.191 146.104C174.108 146.384 174.51 146.583 174.618 146.293C175.186 144.771 176.106 143.375 177.259 142.237C177.834 141.669 178.485 141.167 179.171 140.738C179.85 140.314 180.596 140.011 181.279 139.602C181.495 139.473 181.34 139.122 181.106 139.15V139.153Z" fill="#DDA76E"/>
<path d="M180.999 141.697C180.748 141.722 180.504 141.828 180.273 141.927C180.029 142.03 179.795 142.159 179.564 142.29C179.132 142.537 178.735 142.843 178.35 143.161C178.112 143.358 178.381 143.734 178.637 143.552C179.024 143.277 179.433 143.042 179.853 142.823C180.064 142.712 180.28 142.611 180.494 142.507C180.72 142.396 180.966 142.305 181.175 142.159C181.383 142.012 181.245 141.669 180.999 141.697Z" fill="#DDA76E"/>
<path d="M153.484 144.033C153.215 143.806 152.808 143.773 152.471 143.783C152.149 143.793 151.823 143.889 151.536 144.035C151.411 144.101 151.315 144.242 151.381 144.389C151.438 144.52 151.594 144.608 151.732 144.545C151.803 144.515 151.873 144.487 151.943 144.462C151.971 144.454 151.999 144.444 152.026 144.437C152.044 144.432 152.064 144.426 152.082 144.421C152.054 144.432 152.056 144.434 152.092 144.424C152.23 144.414 152.363 144.386 152.501 144.381C152.529 144.381 152.557 144.381 152.587 144.381C152.597 144.381 152.657 144.386 152.665 144.386C152.73 144.391 152.795 144.401 152.863 144.414C153.001 144.437 153.139 144.477 153.28 144.487C153.396 144.495 153.509 144.449 153.559 144.336C153.607 144.23 153.572 144.101 153.484 144.025V144.033Z" fill="#DDA76E"/>
<path d="M183.576 145.04C183.556 144.946 183.488 144.868 183.418 144.797C183.358 144.739 183.29 144.699 183.219 144.659C183.096 144.585 182.968 144.535 182.83 144.5C182.581 144.436 182.315 144.419 182.061 144.459C181.915 144.482 181.785 144.611 181.807 144.77C181.83 144.924 181.958 145.037 182.116 145.025C182.144 145.025 182.169 145.019 182.197 145.019C182.214 145.019 182.239 145.019 182.26 145.019C182.234 145.017 182.247 145.019 182.26 145.019C182.262 145.019 182.267 145.019 182.27 145.019C182.27 145.019 182.272 145.019 182.275 145.019H182.272C182.285 145.019 182.297 145.019 182.31 145.022C182.337 145.022 182.363 145.03 182.388 145.035C182.44 145.045 182.493 145.057 182.543 145.07C182.549 145.07 182.561 145.075 182.566 145.078C182.594 145.088 182.619 145.098 182.647 145.108C182.694 145.128 182.745 145.151 182.792 145.173C182.817 145.186 182.84 145.196 182.863 145.209C182.87 145.214 182.878 145.219 182.885 145.221C182.943 145.267 183.011 145.305 183.074 145.337C183.089 145.345 183.081 145.34 183.074 145.335C183.106 145.355 183.136 145.375 183.172 145.385C183.184 145.39 183.199 145.388 183.212 145.391C183.222 145.396 183.232 145.401 183.245 145.406C183.343 145.456 183.491 145.418 183.556 145.33C183.624 145.237 183.621 145.136 183.574 145.037L183.576 145.04Z" fill="#DDA76E"/>
<path d="M182.058 164.066C181.603 164.951 180.163 165.007 179.638 164.172C179.47 163.904 179.128 164.159 179.193 164.416C179.477 165.552 179.844 167.435 178.432 168.011C177.274 168.483 176.545 167.016 176.246 166.148C176.17 165.928 175.809 165.956 175.786 166.196C175.718 166.915 175.598 167.627 175.402 168.321C175.238 168.904 175.045 169.896 174.417 170.164C173.869 170.396 173.215 170.088 172.854 169.664C172.434 169.169 172.236 168.531 172.045 167.92C171.959 167.647 171.567 167.72 171.519 167.973C171.293 169.154 170.66 170.434 169.381 170.709C168.823 170.83 168.22 170.709 167.833 170.265C167.489 169.868 167.353 169.318 167.587 168.833C167.69 168.619 167.451 168.346 167.225 168.45C166.753 168.669 166.386 169.01 166.016 169.371C165.632 169.747 165.235 170.126 164.682 170.206C163.24 170.421 163.614 167.922 163.878 167.15C163.966 166.89 163.692 166.622 163.446 166.802C162.865 167.228 162.257 167.612 161.634 167.97C161.107 168.273 160.302 168.866 159.672 168.573C159.182 168.346 158.93 167.741 158.943 167.226C158.961 166.481 159.378 165.8 159.757 165.186C159.905 164.944 159.717 164.591 159.41 164.709C158.838 164.929 158.255 165.118 157.657 165.257C157.408 165.315 157.156 165.365 156.903 165.411C156.729 165.441 156.342 165.555 156.171 165.446C155.837 165.232 156.589 164.295 156.747 164.071C157.084 163.594 157.476 163.157 157.908 162.766C158.114 162.579 157.865 162.226 157.646 162.412C157.081 162.894 156.553 163.429 156.111 164.025C155.78 164.472 155.181 165.194 155.601 165.762C155.978 166.269 156.762 166.075 157.277 165.974C157.81 165.87 158.332 165.729 158.848 165.56C158.569 166.09 158.348 166.653 158.342 167.258C158.337 167.935 158.662 168.649 159.24 169.018C159.968 169.485 160.735 169.139 161.421 168.77C162.016 168.452 162.589 168.099 163.144 167.718C163.051 168.228 163.031 168.748 163.102 169.265C163.19 169.906 163.428 170.567 164.107 170.762C165.348 171.115 166.049 170.01 166.901 169.323C166.901 169.737 167.037 170.148 167.288 170.492C167.713 171.075 168.396 171.355 169.105 171.317C170.499 171.241 171.384 170.164 171.818 168.942C172.004 169.406 172.243 169.848 172.61 170.201C173.08 170.656 173.801 170.906 174.439 170.731C175.221 170.519 175.51 169.745 175.733 169.04C175.927 168.43 176.065 167.801 176.155 167.168C176.655 168.114 177.475 168.962 178.615 168.508C179.239 168.26 179.696 167.665 179.882 167.031C180.07 166.388 180.002 165.721 179.867 165.07C180.774 165.557 182.07 165.28 182.553 164.293C182.709 163.972 182.214 163.758 182.053 164.068L182.058 164.066Z" fill="#DDA76E"/>
</g>
<defs>
<clipPath id="clip0_30086_7071">
<rect width="197" height="219" fill="white"/>
</clipPath>
</defs>
</svg>
