<svg width="180" height="180" viewBox="0 0 180 180" fill="none" xmlns="http://www.w3.org/2000/svg">
<g clip-path="url(#clip0_12044_4649)">
<path d="M89.9982 179.496C139.427 179.496 179.496 139.427 179.496 89.9982C179.496 40.5697 139.427 0.5 89.9982 0.5C40.5697 0.5 0.5 40.5697 0.5 89.9982C0.5 139.427 40.5697 179.496 89.9982 179.496Z" fill="white"/>
<path d="M109.488 19.9492L111.592 12.8984L112.442 13.1513L110.561 19.4434L113.838 20.4247L113.616 21.1834L109.488 19.9492Z" fill="#231F20"/>
<path d="M119.169 15.3995L116.58 22.2885L115.75 21.9749L118.34 15.0859L119.169 15.3995Z" fill="#231F20"/>
<path d="M125.006 19.9358C125.118 19.5919 125.077 19.2581 124.885 18.9445C124.693 18.6309 124.389 18.3881 123.985 18.1959C123.691 18.0543 123.408 17.9835 123.145 17.9835C122.882 17.9835 122.649 18.0239 122.447 18.1352C122.245 18.2465 122.093 18.4083 122.002 18.6208C121.921 18.8028 121.891 18.9748 121.921 19.1367C121.951 19.2985 122.012 19.4604 122.103 19.602C122.194 19.7436 122.305 19.8852 122.427 20.0066C122.548 20.128 122.67 20.2292 122.771 20.3202L123.368 20.8159C123.519 20.9373 123.681 21.0992 123.863 21.2711C124.035 21.4532 124.197 21.6555 124.329 21.8882C124.46 22.1209 124.541 22.3738 124.571 22.6469C124.602 22.92 124.541 23.2134 124.399 23.527C124.228 23.8912 123.985 24.1744 123.661 24.3767C123.337 24.579 122.953 24.6802 122.518 24.6903C122.083 24.6903 121.607 24.579 121.092 24.3363C120.616 24.1137 120.232 23.8406 119.959 23.527C119.685 23.2134 119.503 22.8694 119.433 22.5053C119.362 22.1411 119.402 21.7668 119.544 21.3824L120.373 21.7668C120.282 22.0298 120.262 22.2726 120.343 22.5053C120.424 22.7379 120.545 22.9504 120.738 23.1325C120.93 23.3145 121.162 23.4764 121.425 23.5978C121.729 23.7394 122.032 23.8203 122.326 23.8305C122.619 23.8406 122.882 23.79 123.105 23.6787C123.327 23.5674 123.499 23.3854 123.621 23.1426C123.722 22.92 123.742 22.7076 123.681 22.5154C123.621 22.3232 123.509 22.131 123.347 21.9489C123.186 21.7668 123.003 21.5948 122.801 21.4128L122.093 20.7957C121.638 20.4012 121.324 19.9965 121.152 19.5818C120.98 19.1569 120.99 18.732 121.203 18.2768C121.375 17.9025 121.628 17.6294 121.962 17.4372C122.295 17.2551 122.67 17.1641 123.084 17.1641C123.499 17.1641 123.924 17.2652 124.349 17.4675C124.784 17.6699 125.128 17.9228 125.391 18.2262C125.654 18.5297 125.826 18.8635 125.897 19.2277C125.967 19.5818 125.937 19.9358 125.785 20.2697L125.006 19.9055V19.9358Z" fill="#231F20"/>
<path d="M128.596 20.584L129.001 19.9062L133.745 22.7185L133.34 23.3962L131.348 22.2127L127.999 27.8574L127.23 27.4022L130.579 21.7575L128.586 20.5739L128.596 20.584Z" fill="#231F20"/>
<path d="M131.832 30.2896L136.182 24.3516L139.763 26.9817L139.298 27.619L136.435 25.525L134.968 27.528L137.649 29.4905L137.183 30.1278L134.503 28.1653L133.026 30.1783L135.939 32.3128L135.474 32.9501L131.842 30.2896H131.832Z" fill="#231F20"/>
<path d="M146.571 32.9015L141.624 38.3439L140.987 37.7673L141.897 30.7974L141.847 30.7468L137.962 35.0259L137.305 34.429L142.251 28.9766L142.889 29.5532L141.978 36.5433L142.029 36.5939L145.923 32.3047L146.571 32.8914V32.9015Z" fill="#231F20"/>
<path d="M155.345 43.02L149.568 47.5722L149.032 46.8944L151.086 40.1673L151.045 40.1066L146.513 43.6877L145.957 42.9897L151.733 38.4375L152.269 39.1153L150.216 45.8626L150.256 45.9233L154.798 42.3321L155.345 43.02Z" fill="#231F20"/>
<path d="M157.457 53.061C156.799 53.4657 156.152 53.6983 155.525 53.759C154.898 53.8197 154.321 53.7186 153.805 53.4657C153.289 53.2128 152.864 52.8183 152.541 52.2821C152.217 51.746 152.045 51.1896 152.055 50.613C152.055 50.0364 152.227 49.48 152.561 48.9439C152.895 48.4077 153.39 47.9424 154.058 47.5276C154.716 47.123 155.363 46.8903 155.99 46.8296C156.617 46.7689 157.194 46.8701 157.71 47.123C158.226 47.3759 158.651 47.7704 158.974 48.3066C159.298 48.8427 159.47 49.3991 159.46 49.9757C159.46 50.5523 159.288 51.1087 158.954 51.6448C158.62 52.181 158.125 52.6463 157.457 53.061ZM157.002 52.3226C157.548 51.9888 157.943 51.6145 158.206 51.2098C158.469 50.7951 158.6 50.3803 158.6 49.9555C158.6 49.5306 158.489 49.126 158.256 48.7517C158.023 48.3673 157.72 48.084 157.336 47.9019C156.951 47.7198 156.526 47.6389 156.041 47.6895C155.555 47.7401 155.039 47.9323 154.503 48.2661C153.967 48.5999 153.562 48.9742 153.299 49.3788C153.036 49.7936 152.905 50.2084 152.905 50.6332C152.905 51.0581 153.016 51.4627 153.249 51.837C153.481 52.2113 153.785 52.5047 154.169 52.6868C154.554 52.879 154.979 52.9397 155.464 52.8992C155.95 52.8486 156.466 52.6564 157.002 52.3226Z" fill="#231F20"/>
<path d="M155.969 58.1916L161.856 53.3359L162.231 54.1654L157.395 58.0297L157.425 58.1005L163.535 57.0687L163.95 57.9893L159.125 61.8738L159.155 61.9345L165.255 60.8824L165.629 61.7119L158.093 62.8955L157.719 62.0559L162.402 58.1714L162.382 58.1208L156.373 59.0413L155.999 58.2017L155.969 58.1916Z" fill="#231F20"/>
<path d="M19.9531 71.3967L12.9023 69.2926L13.1552 68.4429L19.4473 70.3244L20.4286 67.0469L21.1873 67.2694L19.9531 71.3967Z" fill="#231F20"/>
<path d="M15.3995 61.7109L22.2885 64.3006L21.9749 65.1301L15.0859 62.5404L15.3995 61.7109Z" fill="#231F20"/>
<path d="M19.9335 55.8719C19.5896 55.7606 19.2558 55.8011 18.9422 55.9933C18.6286 56.1855 18.3858 56.4889 18.1936 56.8936C18.052 57.1869 17.9811 57.4702 17.9811 57.7332C17.9811 57.9962 18.0216 58.2289 18.1329 58.4312C18.2442 58.6335 18.406 58.7853 18.6185 58.8763C18.8005 58.9572 18.9725 58.9876 19.1344 58.9572C19.2962 58.9269 19.4581 58.8662 19.5997 58.7751C19.7413 58.6841 19.8829 58.5728 20.0043 58.4514C20.1257 58.33 20.237 58.2086 20.3179 58.1075L20.8136 57.5106C20.935 57.3589 21.0969 57.1971 21.2688 57.015C21.4509 56.843 21.6532 56.6811 21.8859 56.5496C22.1186 56.4181 22.3715 56.3372 22.6446 56.3069C22.9177 56.2765 23.2111 56.3372 23.5247 56.4788C23.8888 56.6508 24.1721 56.8936 24.3744 57.2173C24.5767 57.541 24.6779 57.9254 24.688 58.3604C24.688 58.7954 24.5767 59.2809 24.3339 59.7867C24.1114 60.2622 23.8383 60.6466 23.5247 60.9197C23.2111 61.1928 22.8671 61.3749 22.503 61.4457C22.1388 61.5165 21.7645 61.4761 21.3902 61.3345L21.7746 60.4948C22.0376 60.5859 22.2804 60.6061 22.5131 60.5252C22.7457 60.4443 22.9582 60.3229 23.1403 60.1307C23.3224 59.9385 23.4842 59.7058 23.6056 59.4428C23.7472 59.1393 23.8282 58.8358 23.8383 58.5425C23.8484 58.2491 23.7978 57.9962 23.6865 57.7635C23.5753 57.5309 23.3932 57.369 23.1504 57.2577C22.9278 57.1566 22.7154 57.1364 22.5232 57.1971C22.331 57.2577 22.1388 57.369 21.9567 57.5309C21.7746 57.6927 21.6026 57.8748 21.4206 58.0771L20.8035 58.7853C20.409 59.2405 20.0043 59.5541 19.5896 59.726C19.1748 59.898 18.7398 59.8879 18.2846 59.6755C17.9103 59.5035 17.6271 59.2506 17.445 58.9168C17.2629 58.5829 17.1719 58.2086 17.1719 57.7939C17.1719 57.3791 17.273 56.9543 17.4754 56.5294C17.6777 56.0944 17.9306 55.7505 18.234 55.4875C18.5375 55.2244 18.8713 55.0525 19.2355 54.9817C19.5896 54.9109 19.9436 54.9412 20.2775 55.0929L19.9133 55.8719H19.9335Z" fill="#231F20"/>
<path d="M20.5801 52.2818L19.9023 51.8772L22.7146 47.1328L23.3923 47.5374L22.2088 49.5303L27.8535 52.8787L27.3982 53.6475L21.7536 50.2991L20.57 52.2919L20.5801 52.2818Z" fill="#231F20"/>
<path d="M30.2912 49.0481L24.3633 44.6982L26.9934 41.1172L27.6307 41.5825L25.5367 44.4453L27.5397 45.9121L29.5022 43.2314L30.1395 43.6967L28.177 46.3775L30.1901 47.8544L32.3245 44.941L32.9618 45.4063L30.3013 49.038L30.2912 49.0481Z" fill="#231F20"/>
<path d="M32.9031 34.3125L38.3556 39.2592L37.779 39.8965L30.8091 38.9861L30.7586 39.0366L35.0376 42.9211L34.4408 43.5787L28.9883 38.632L29.5649 37.9947L36.555 38.9051L36.6056 38.8545L32.3164 34.9599L32.9031 34.3125Z" fill="#231F20"/>
<path d="M43.0044 25.5414L47.5566 31.3176L46.8788 31.8537L40.1517 29.8002L40.091 29.8406L43.672 34.3726L42.974 34.9188L38.4219 29.1426L39.0996 28.6065L45.847 30.66L45.9077 30.6196L42.3165 26.0775L43.0044 25.5312V25.5414Z" fill="#231F20"/>
<path d="M53.061 23.4253C53.4657 24.0828 53.6983 24.7302 53.759 25.3574C53.8197 25.9846 53.7186 26.5612 53.4657 27.0771C53.2128 27.593 52.8183 28.0179 52.2821 28.3416C51.746 28.6653 51.1896 28.8373 50.613 28.8272C50.0364 28.8272 49.48 28.6552 48.9439 28.3214C48.4077 27.9876 47.9424 27.4919 47.5276 26.8242C47.123 26.1667 46.8903 25.5193 46.8296 24.8921C46.7689 24.2649 46.8701 23.6883 47.123 23.1724C47.3759 22.6565 47.7704 22.2316 48.3066 21.9079C48.8427 21.5741 49.3991 21.4122 49.9757 21.4223C50.5523 21.4223 51.1087 21.5943 51.6448 21.9281C52.181 22.2619 52.6463 22.7576 53.061 23.4253ZM52.3226 23.8805C51.9888 23.3342 51.6145 22.9397 51.2098 22.6767C50.7951 22.4137 50.3803 22.2822 49.9555 22.2822C49.5306 22.2822 49.126 22.3935 48.7517 22.6261C48.3673 22.8588 48.084 23.1623 47.9019 23.5467C47.7097 23.9311 47.6389 24.3559 47.6895 24.8415C47.7401 25.3271 47.9323 25.843 48.2661 26.3791C48.5999 26.9153 48.9742 27.3199 49.3788 27.5829C49.7936 27.8459 50.2084 27.9774 50.6332 27.9774C51.0581 27.9774 51.4627 27.8662 51.837 27.6335C52.2214 27.4008 52.5047 27.0872 52.6868 26.713C52.879 26.3285 52.9498 25.9037 52.8992 25.4181C52.8486 24.9325 52.6564 24.4166 52.3226 23.8805Z" fill="#231F20"/>
<path d="M58.1916 24.9107L53.3359 19.0232L54.1654 18.6489L58.0297 23.4844L58.0904 23.454L57.0586 17.344L57.9791 16.9292L61.8637 21.7545L61.9244 21.7242L60.8723 15.6243L61.7018 15.25L62.8854 22.7864L62.0457 23.1607L58.1612 18.477L58.1107 18.4972L59.0312 24.5061L58.1916 24.8804V24.9107Z" fill="#231F20"/>
<path d="M71.3889 160.929L69.2848 167.98L68.4351 167.727L70.3166 161.435L67.0391 160.454L67.2616 159.695L71.3889 160.929Z" fill="#231F20"/>
<path d="M61.7109 165.483L64.3006 158.594L65.1301 158.907L62.5404 165.796L61.7109 165.483Z" fill="#231F20"/>
<path d="M55.8758 160.942C55.7645 161.286 55.805 161.62 55.9972 161.933C56.1894 162.247 56.4928 162.49 56.8975 162.682C57.1908 162.824 57.4741 162.894 57.7371 162.894C58.0001 162.894 58.2328 162.854 58.4351 162.743C58.6374 162.631 58.7892 162.469 58.8802 162.257C58.9611 162.075 58.9915 161.903 58.9611 161.741C58.9308 161.579 58.8701 161.417 58.779 161.276C58.688 161.134 58.5767 160.993 58.4553 160.871C58.3339 160.75 58.2125 160.649 58.1114 160.558L57.5146 160.062C57.3628 159.941 57.201 159.779 57.0189 159.607C56.8469 159.425 56.685 159.222 56.5535 158.99C56.422 158.757 56.3411 158.504 56.3108 158.231C56.2804 157.958 56.3411 157.664 56.4827 157.351C56.6547 156.987 56.8975 156.714 57.2212 156.501C57.5449 156.289 57.9293 156.198 58.3643 156.188C58.7993 156.188 59.2747 156.299 59.7906 156.542C60.2661 156.764 60.6505 157.037 60.9236 157.351C61.1967 157.664 61.3788 158.008 61.4496 158.373C61.5205 158.737 61.48 159.111 61.3384 159.495L60.5089 159.111C60.5999 158.848 60.6201 158.605 60.5392 158.373C60.4583 158.14 60.3369 157.927 60.1447 157.745C59.9525 157.563 59.7198 157.401 59.4568 157.28C59.1533 157.138 58.8499 157.057 58.5565 157.047C58.2631 157.037 58.0001 157.088 57.7776 157.199C57.555 157.31 57.383 157.492 57.2617 157.735C57.1605 157.958 57.1403 158.17 57.201 158.362C57.2617 158.555 57.3729 158.747 57.5348 158.929C57.6966 159.111 57.8787 159.283 58.081 159.465L58.7892 160.082C59.2444 160.477 59.558 160.881 59.7299 161.296C59.9019 161.721 59.8918 162.146 59.6794 162.601C59.5074 162.975 59.2545 163.259 58.9207 163.441C58.5868 163.623 58.2125 163.714 57.7978 163.714C57.383 163.714 56.9582 163.602 56.5333 163.41C56.0983 163.208 55.7544 162.955 55.4914 162.652C55.2284 162.348 55.0564 162.014 54.9856 161.65C54.9148 161.296 54.9451 160.942 55.0968 160.608L55.8758 160.972V160.942Z" fill="#231F20"/>
<path d="M52.2818 160.305L51.8772 160.982L47.1328 158.17L47.5374 157.492L49.5303 158.676L52.8787 153.031L53.6475 153.486L50.2991 159.131L52.2919 160.315L52.2818 160.305Z" fill="#231F20"/>
<path d="M49.0442 150.585L44.6943 156.513L41.1133 153.882L41.5786 153.245L44.4414 155.339L45.9082 153.336L43.2275 151.374L43.6928 150.736L46.3736 152.699L47.8505 150.686L44.9371 148.551L45.4024 147.914L49.034 150.575L49.0442 150.585Z" fill="#231F20"/>
<path d="M34.3047 147.974L39.2514 142.531L39.8887 143.108L38.9782 150.078L39.0288 150.128L42.9133 145.849L43.5709 146.446L38.6242 151.899L37.9869 151.322L38.8973 144.332L38.8467 144.281L34.9521 148.57L34.3047 147.984V147.974Z" fill="#231F20"/>
<path d="M25.5391 137.865L31.3153 133.312L31.8514 133.99L29.7979 140.717L29.8383 140.778L34.3703 137.197L34.9266 137.895L29.1504 142.447L28.6143 141.769L30.6678 135.022L30.6274 134.961L26.0853 138.542L25.5391 137.855V137.865Z" fill="#231F20"/>
<path d="M23.4253 127.817C24.0828 127.412 24.7302 127.179 25.3574 127.119C25.9846 127.058 26.5612 127.159 27.0771 127.412C27.593 127.665 28.0179 128.059 28.3416 128.596C28.6754 129.132 28.8373 129.688 28.8272 130.265C28.8272 130.841 28.6552 131.398 28.3214 131.934C27.9876 132.47 27.4919 132.935 26.8242 133.35C26.1667 133.755 25.5193 133.987 24.8921 134.048C24.2649 134.109 23.6883 134.008 23.1724 133.755C22.6565 133.502 22.2316 133.107 21.9079 132.571C21.5741 132.035 21.4122 131.479 21.4223 130.902C21.4223 130.325 21.5943 129.769 21.9281 129.233C22.2619 128.697 22.7576 128.231 23.4253 127.817ZM23.8805 128.555C23.3342 128.889 22.9397 129.263 22.6767 129.668C22.4137 130.083 22.2822 130.497 22.2822 130.922C22.2822 131.347 22.3935 131.752 22.6261 132.126C22.8588 132.51 23.1623 132.794 23.5467 132.976C23.9311 133.158 24.3559 133.229 24.8415 133.188C25.3271 133.138 25.843 132.945 26.3791 132.612C26.9153 132.278 27.3199 131.904 27.5829 131.499C27.8459 131.084 27.9774 130.669 27.9774 130.245C27.9774 129.82 27.8662 129.415 27.6335 129.041C27.4008 128.666 27.0974 128.373 26.713 128.191C26.3285 127.999 25.9037 127.928 25.4181 127.979C24.9325 128.029 24.4166 128.221 23.8805 128.555Z" fill="#231F20"/>
<path d="M24.9068 122.688L19.0193 127.544L18.645 126.714L23.4805 122.85L23.4501 122.779L17.3401 123.811L16.9253 122.891L21.7506 119.006L21.7203 118.945L15.6204 119.997L15.2461 119.168L22.7825 117.984L23.1567 118.824L18.4731 122.709L18.4933 122.759L24.5022 121.839L24.8765 122.678L24.9068 122.688Z" fill="#231F20"/>
<path d="M160.926 109.492L167.976 111.596L167.723 112.446L161.431 110.564L160.45 113.842L159.691 113.619L160.926 109.492Z" fill="#231F20"/>
<path d="M165.479 119.169L158.59 116.58L158.903 115.75L165.792 118.34L165.479 119.169Z" fill="#231F20"/>
<path d="M160.95 125.01C161.294 125.121 161.628 125.08 161.941 124.888C162.255 124.696 162.498 124.393 162.69 123.988C162.831 123.695 162.902 123.411 162.902 123.148C162.902 122.885 162.862 122.653 162.75 122.45C162.639 122.248 162.477 122.096 162.265 122.005C162.083 121.924 161.911 121.894 161.749 121.924C161.587 121.955 161.425 122.015 161.284 122.106C161.142 122.197 161 122.309 160.879 122.44C160.758 122.562 160.646 122.683 160.565 122.784L160.07 123.381C159.948 123.533 159.786 123.695 159.614 123.877C159.432 124.049 159.23 124.21 158.997 124.342C158.765 124.473 158.512 124.554 158.239 124.585C157.966 124.615 157.672 124.554 157.359 124.413C156.994 124.241 156.711 123.998 156.509 123.674C156.307 123.351 156.205 122.966 156.195 122.531C156.195 122.096 156.307 121.611 156.549 121.105C156.772 120.629 157.045 120.255 157.359 119.972C157.672 119.699 158.016 119.517 158.38 119.456C158.745 119.385 159.119 119.426 159.493 119.567L159.109 120.407C158.846 120.316 158.603 120.296 158.37 120.377C158.138 120.447 157.925 120.579 157.743 120.771C157.561 120.963 157.399 121.196 157.278 121.459C157.136 121.762 157.055 122.066 157.045 122.359C157.035 122.653 157.086 122.916 157.197 123.138C157.308 123.371 157.49 123.533 157.733 123.654C157.955 123.755 158.168 123.776 158.36 123.715C158.552 123.654 158.745 123.543 158.927 123.381C159.109 123.219 159.281 123.037 159.463 122.835L160.08 122.127C160.474 121.671 160.879 121.358 161.294 121.186C161.708 121.014 162.143 121.024 162.599 121.236C162.973 121.408 163.256 121.661 163.438 121.995C163.62 122.329 163.711 122.703 163.711 123.118C163.711 123.533 163.61 123.958 163.408 124.382C163.206 124.817 162.953 125.161 162.649 125.424C162.346 125.687 162.012 125.859 161.648 125.93C161.294 126.001 160.94 125.971 160.606 125.819L160.97 125.04L160.95 125.01Z" fill="#231F20"/>
<path d="M160.301 128.6L160.978 129.005L158.166 133.749L157.488 133.344L158.672 131.352L153.027 128.003L153.483 127.234L159.127 130.583L160.311 128.59L160.301 128.6Z" fill="#231F20"/>
<path d="M150.592 131.836L156.52 136.186L153.89 139.767L153.253 139.301L155.347 136.439L153.344 134.972L151.382 137.653L150.744 137.187L152.707 134.507L150.694 133.03L148.559 135.943L147.922 135.478L150.582 131.846L150.592 131.836Z" fill="#231F20"/>
<path d="M147.98 146.579L142.527 141.632L143.104 140.995L150.074 141.905L150.124 141.855L145.845 137.97L146.442 137.312L151.895 142.259L151.318 142.896L144.328 141.986L144.277 142.037L148.567 145.931L147.98 146.579Z" fill="#231F20"/>
<path d="M137.865 155.338L133.312 149.562L133.99 149.026L140.717 151.08L140.778 151.039L137.197 146.507L137.895 145.961L142.447 151.737L141.769 152.273L135.022 150.22L134.961 150.26L138.553 154.802L137.865 155.349V155.338Z" fill="#231F20"/>
<path d="M127.821 157.457C127.416 156.799 127.183 156.152 127.123 155.525C127.062 154.898 127.163 154.321 127.416 153.805C127.669 153.289 128.063 152.864 128.6 152.541C129.136 152.217 129.692 152.045 130.269 152.055C130.845 152.055 131.402 152.227 131.938 152.561C132.474 152.895 132.939 153.39 133.354 154.058C133.759 154.716 133.991 155.363 134.052 155.99C134.113 156.617 134.012 157.194 133.759 157.71C133.506 158.226 133.111 158.651 132.575 158.974C132.039 159.308 131.483 159.47 130.906 159.46C130.329 159.46 129.773 159.288 129.237 158.954C128.701 158.62 128.235 158.125 127.821 157.457ZM128.559 157.002C128.893 157.548 129.267 157.943 129.672 158.206C130.087 158.469 130.501 158.6 130.926 158.6C131.351 158.6 131.756 158.489 132.13 158.256C132.514 158.023 132.798 157.72 132.98 157.336C133.172 156.951 133.243 156.526 133.192 156.041C133.142 155.555 132.949 155.039 132.616 154.503C132.282 153.967 131.907 153.562 131.503 153.299C131.088 153.036 130.673 152.905 130.248 152.905C129.824 152.905 129.419 153.016 129.045 153.249C128.66 153.481 128.377 153.785 128.195 154.169C128.003 154.554 127.932 154.979 127.982 155.464C128.033 155.95 128.225 156.466 128.559 157.002Z" fill="#231F20"/>
<path d="M122.69 155.969L127.546 161.856L126.716 162.231L122.852 157.395L122.791 157.425L123.823 163.535L122.902 163.95L119.018 159.125L118.957 159.155L120.009 165.255L119.18 165.629L117.996 158.093L118.836 157.719L122.72 162.402L122.771 162.382L121.85 156.373L122.69 155.999V155.969Z" fill="#231F20"/>
</g>
<defs>
<clipPath id="clip0_12044_4649">
<rect width="180" height="180" fill="white"/>
</clipPath>
</defs>
</svg>
