<svg width="241" height="64" viewBox="0 0 241 64" fill="none" xmlns="http://www.w3.org/2000/svg">
<path d="M52.5477 27.2818C52.9855 28.1574 54.0378 29.2096 54.7444 29.6704C51.8181 28.9408 48.9149 28.4646 47.0101 28.1573V26.4369L45.4817 25.6996C44.391 25.9761 32.6168 25.1389 31.457 24.3478C34.1683 23.4261 35.8887 22.443 36.9563 20.953C36.1037 21.1066 37.2174 19.7164 35.5968 18.9868C37.1099 18.165 37.8779 16.9284 39.1376 14.5475C38.623 14.5705 37.9701 14.6703 37.1637 14.4246C38.8687 12.7195 40.8887 8.90997 41.3265 6.39844C42.1176 9.81627 44.3142 13.549 45.4125 14.3554C44.7443 14.6473 44.0992 14.6396 43.3618 14.6012C43.6537 15.4998 44.9671 17.6888 46.2804 18.7026C47.0178 17.8885 48.5539 14.7856 48.7996 13.4415C49.3603 15.8455 51.3112 19.9929 52.9702 21.4062C51.9947 21.698 51.5339 21.6366 51.1883 21.5982C52.0639 24.2326 53.9225 26.2065 55.3358 27.1819C54.3603 27.6197 52.8934 27.4047 52.5554 27.2818" fill="white"/>
<path d="M47.0115 31.0078C48.8548 31.3765 51.9961 32.0831 54.9915 32.951C58.8932 34.0877 62.5031 35.7313 63.9931 36.4379C64.2081 37.1445 64.8456 38.2813 65.6982 39.2183C66.6659 40.2782 67.8717 41.0462 68.3326 41.2459C67.48 41.5608 66.4509 41.8834 65.1836 41.4917C64.692 41.2229 62.1037 39.7482 58.6935 38.2966C57.4339 37.759 56.0822 37.2444 54.692 36.7605C53.4938 36.3381 52.3187 35.9541 51.1513 35.6161C49.7534 35.2014 47.9331 34.7328 46.9961 34.4948V31.0078H47.0115Z" fill="white"/>
<path d="M2.49219 31.0786C4.42768 29.7883 5.51831 28.5287 6.40157 27.1231C5.61048 27.2691 4.48912 27.2691 3.6289 26.839C5.03444 26.0709 6.44765 24.4964 7.61509 22.2767C7.05441 22.2998 6.73952 22.3536 5.96379 22.1001C7.76103 20.8405 9.48146 16.5778 10.0037 14.6884C10.3724 16.5701 11.4707 18.4211 12.2234 19.3735C13.1758 19.0279 14.4354 17.6684 14.8271 16.5471C14.6351 16.5701 13.5444 16.67 12.8071 16.4242C14.2664 15.1569 16.5859 10.9096 16.9776 8.375C17.2465 9.93415 18.8286 14.2045 21.079 16.3551C20.2956 16.6469 19.4815 16.6239 19.0207 16.5778C19.4431 18.137 21.6935 20.2645 23.2296 20.948C22.4462 21.2937 21.0253 21.6469 21.0867 21.6777C21.6704 22.6992 23.4754 24.0202 24.5967 24.6039L26.0714 25.8328V27.5686C24.8502 27.6531 21.2173 28.0525 19.182 28.3367C17.2234 28.6132 15.4569 28.9127 15.0191 29.0202C15.0191 29.0202 15.0191 28.4058 15.0191 28.1831L14.0975 27.968L12.8071 28.5748V29.435C11.6934 29.6577 10.2802 29.9957 8.79021 30.4027C7.36931 30.7945 6.0329 31.2629 4.86547 31.6777C3.81323 31.8006 2.74564 31.309 2.49986 31.0863" fill="white"/>
<path d="M17.6094 27.0827C18.4773 26.7524 23.9996 26.7754 25.9351 26.5143C25.9351 26.5143 27.3406 25.992 27.7246 25.8461C27.7246 25.8461 28.4005 26.1533 28.8383 26.3377V27.3899C34.1148 27.1211 41.0503 27.4974 43.4006 27.7355V26.3146L46.2423 25.5542C47.0411 25.3699 48.3238 25.5773 48.7232 25.7232C45.9889 24.7324 38.5388 21.3607 37.7247 20.0473C38.6617 20.2393 40.7969 19.8015 42.0949 18.949C39.1993 17.9659 37.4558 16.8829 36.3114 15.2854C37.187 15.2854 38.3084 15.0166 39.23 14.5327C37.6094 13.6494 34.8598 11.76 33.5157 9.2101C34.207 9.30995 35.2592 9.34066 36.1194 9.00271C34.0457 7.5511 31.5572 3.2577 31.0503 0.523438C30.3437 4.25617 27.5787 8.76462 26.0887 9.57875C26.803 9.88597 27.9397 9.93206 28.6079 9.72468C28.2238 10.7001 24.8751 14.1948 23.2545 15.0166C24.4834 15.4006 25.4589 15.4467 26.5802 15.2854C24.5065 17.82 21.296 20.6157 19.3836 21.0458C21.0042 22.0443 22.9089 21.8445 24.0687 21.5373C23.4159 23.4651 18.7768 26.545 17.6171 27.0904" fill="white"/>
<path d="M61.924 53.4801C48.9823 43.8256 29.1128 37.7888 1.95453 38.7872L1.80859 38.8333C19.8732 39.1021 35.48 45.3387 43.3064 53.4724" fill="white"/>
<path d="M47.0039 37.0156C49.1007 37.6377 52.7028 38.8206 56.2359 40.2722C62.2036 42.7223 67.7259 46.4934 70.1146 48.5441C69.0163 48.667 67.8488 48.7899 66.5047 48.5441C66.5508 49.5195 67.8719 51.4704 69.3849 53.3982C65.7981 50.518 63.0101 48.4366 56.8734 45.4719C53.4095 43.7975 49.4847 42.3997 47.0039 41.6009V37.0156Z" fill="white"/>
<path d="M15.0117 37.1706V33.5838C15.0117 33.5838 17.385 33.4686 19.7813 33.4609C21.9933 33.4609 25.895 33.5992 26.0563 33.6222C26.0563 33.7298 26.0563 37.5009 26.0563 37.5009C25.7107 37.4779 22.2007 37.2551 19.6661 37.1706C17.9687 37.1169 16.2022 37.1476 15.0194 37.1706" fill="white"/>
<path d="M0 35.7464C0.307221 35.6773 2.08143 35.2779 3.74042 34.963C4.49311 34.8171 6.04458 34.5406 7.71125 34.2794C9.59297 33.9876 11.636 33.7418 12.8111 33.7188V37.2057C12.8111 37.2057 10.1921 37.2979 7.6114 37.4976C5.46085 37.6665 3.33335 37.9354 2.78036 38.0352C3.12598 37.7894 3.65593 37.2518 3.73273 36.791C3.41783 36.814 2.64211 36.7603 1.88174 36.5452C1.11368 36.3301 0.360984 35.9845 0 35.7387" fill="white"/>
<path d="M1.44922 34.8346C2.17887 34.4429 4.10668 33.2217 4.62128 32.5381C5.35093 32.3384 6.8947 31.8853 8.47689 31.5166C10.3433 31.0788 12.2634 30.7178 12.8164 30.6641V32.638C12.5706 32.6533 9.69042 33.0066 6.71805 33.6364C4.14508 34.1894 1.74108 34.7501 1.44922 34.8346Z" fill="white"/>
<path d="M66.2626 33.2865C64.2888 31.8502 62.5837 30.4754 61.9692 28.1866C62.5914 28.2788 63.3364 28.1866 64.0353 28.01C62.1766 26.712 60.533 22.7949 59.9723 20.4062C59.3348 23.8471 56.9615 26.9961 55.6328 27.7258C56.2703 28.0023 56.9769 28.1175 57.7373 28.1098C57.599 28.4554 57 29.2081 56.2165 30.0684C59.1198 30.8518 63.4362 32.3879 65.6559 33.4862C65.8018 33.4401 66.1321 33.3479 66.2626 33.2942" fill="white"/>
<path d="M80.5039 34.9814C80.5039 39.4053 83.5838 42.4315 88.2689 42.4315C92.954 42.4315 96.0109 39.413 96.0109 34.9814C96.0109 30.5497 92.9463 27.5543 88.2689 27.5543C83.5915 27.5543 80.5039 30.5574 80.5039 34.9814ZM83.8219 34.9814C83.8219 31.287 85.5193 29.2363 88.2689 29.2363C91.0185 29.2363 92.6929 31.2947 92.6929 34.9814C92.6929 38.668 91.0108 40.7494 88.2689 40.7494C85.527 40.7494 83.8219 38.6757 83.8219 34.9814ZM101.226 42.0321H103.891L106.426 34.8124C106.718 33.9522 107.117 33.5297 107.708 33.5297H108.231V32.1242H103.346V33.5297H103.853C104.506 33.5297 104.797 33.6987 104.797 34.0981C104.797 34.2671 104.759 34.4975 104.651 34.7663L102.969 39.5282L101.418 34.9506C101.295 34.5512 101.226 34.2594 101.226 34.052C101.226 33.6987 101.495 33.5297 102.048 33.5297H102.386V32.1242H96.9325V33.5297H97.5393C98.1076 33.5297 98.4226 33.9061 98.676 34.5973L101.234 42.0244L101.226 42.0321ZM116.264 38.4837C115.926 40.0966 115.174 40.7264 113.561 40.7264C111.948 40.7264 111.103 39.5513 111.026 37.2855H118.092C118.092 33.6526 116.433 31.7479 113.415 31.7479C110.228 31.7479 108.169 33.9061 108.169 37.0782C108.169 40.2502 110.181 42.4084 113.415 42.4084C115.973 42.4084 117.739 40.9184 118.031 38.4837H116.272H116.264ZM115.32 35.8032H111.126C111.38 34.0443 112.178 33.1611 113.392 33.1611C114.605 33.1611 115.197 33.9983 115.32 35.8032ZM123.123 39.3669V36.7018C123.123 34.3976 124.252 32.9691 125.558 32.9691C125.788 32.9691 126.08 33.0305 126.418 33.1764C125.581 33.4069 125.135 33.9138 125.135 34.605C125.135 35.3577 125.704 35.903 126.587 35.903C127.616 35.903 128.284 35.1503 128.284 34.1211C128.284 32.8001 127.255 31.8554 125.75 31.8554C124.659 31.8554 123.776 32.4468 123.131 33.6142V32.1242H118.707V33.5297H119.398C120.466 33.5297 120.596 33.8216 120.596 34.7894V39.3669C120.596 40.3347 120.473 40.6266 119.398 40.6266H118.707V42.0321H125.381V40.6266H124.337C123.269 40.6266 123.138 40.3347 123.138 39.3669M130.089 30.6188V39.3669C130.089 40.3347 129.943 40.6266 128.876 40.6266H128.246V42.0321H134.498V40.6266H133.868C132.801 40.6266 132.655 40.3347 132.655 39.3669V27.9537H128.246V29.3592H128.876C129.943 29.3592 130.089 29.6511 130.089 30.6188ZM144.782 40.6342C144.206 40.6342 143.868 40.4422 143.868 39.9353V35.5267C143.868 34.0827 143.784 33.138 142.778 32.4622C142.086 32.0013 140.996 31.7479 139.567 31.7479C137.009 31.7479 135.496 32.8615 135.496 34.3669C135.496 35.3347 136.188 36.0029 137.171 36.0029C138.054 36.0029 138.638 35.4575 138.638 34.6588C138.638 33.9445 138.154 33.5067 137.317 33.5067H137.255C137.762 33.0689 138.392 32.8999 139.252 32.8999C140.635 32.8999 141.41 33.4683 141.41 34.4975C141.41 35.1273 141.226 35.5036 140.719 35.8416C140.235 36.1565 139.337 36.264 138.162 36.6173C136.042 37.2702 134.997 38.0689 134.997 39.7049C134.997 41.3408 136.195 42.4084 138 42.4084C139.467 42.4084 140.558 41.9246 141.403 40.8339C141.718 41.9015 142.455 42.4084 143.692 42.4084C145.059 42.4084 145.75 41.9015 146.065 40.6189M141.357 36.8477V38.0459C141.357 39.7202 140.458 40.6496 139.137 40.6496C138.3 40.6496 137.839 40.2118 137.839 39.4514C137.839 38.1304 139.16 37.8769 141.364 36.8477M173.761 42.0321H175.212L175.673 40.711C177.225 41.8631 178.761 42.4545 180.351 42.4545C183.5 42.4545 185.619 40.5651 185.619 37.923C185.619 35.6803 184.129 34.2287 181.126 33.5374L178.292 32.8846C176.887 32.5697 176.219 32.0474 176.219 31.0566C176.219 29.9429 177.163 29.2517 178.884 29.2517C181.172 29.2517 182.808 30.6803 183.292 33.2763H184.89V27.946H183.63L182.893 28.9752C181.633 27.9921 180.335 27.5312 178.799 27.5312C175.696 27.5312 173.722 29.2901 173.722 31.9168C173.722 34.1826 175.189 35.3577 178.338 36.095L180.627 36.6173C182.263 36.9937 183.016 37.6235 183.016 38.7141C183.016 39.8892 182.01 40.5421 180.12 40.5421C177.54 40.5421 175.865 39.029 175.397 36.2179H173.761V42.0321Z" fill="white"/>
<path d="M149.455 36.9395V27.9609H145.177V29.3665H145.722C146.79 29.3665 146.936 29.6583 146.936 30.6261V39.3742C146.936 40.3419 146.79 40.6338 145.722 40.6338H144.102L144.678 42.0393H150.922V40.6338H150.668C149.601 40.6338 149.455 40.3419 149.455 39.3742V38.8903L151.444 37.3158L153.103 39.7505C153.272 40.004 153.357 40.2114 153.357 40.3189C153.357 40.4879 153.126 40.6338 152.75 40.6338H152.036V42.0393H158.119V40.6338H157.635C156.859 40.6338 156.252 40.2344 155.684 39.4356L153.211 35.9333L155.162 34.3358C155.684 33.898 156.106 33.537 156.989 33.537H157.412V32.1315H151.137V33.537H152.274C152.758 33.537 153.026 33.5754 153.026 33.8289C153.026 33.9978 152.88 34.1438 152.65 34.3358L149.463 36.9395H149.455ZM166.298 38.4909C165.96 40.1039 165.208 40.7336 163.595 40.7336C161.982 40.7336 161.137 39.5585 161.052 37.2928H168.126C168.126 33.6599 166.467 31.7551 163.449 31.7551C160.261 31.7551 158.203 33.9133 158.203 37.0854C158.203 40.2575 160.215 42.4157 163.449 42.4157C166.006 42.4157 167.773 40.9257 168.065 38.4909H166.306H166.298ZM165.361 35.8028H161.168C161.421 34.0362 162.22 33.1607 163.433 33.1607C164.647 33.1607 165.238 33.9978 165.361 35.8028Z" fill="white"/>
<path d="M198.571 30.6261V39.3742C198.571 40.3419 198.425 40.6338 197.358 40.6338H196.812V42.0393H202.727V40.6338H202.304C201.236 40.6338 201.091 40.3419 201.091 39.3742V36.9011C201.091 34.5969 202.158 33.4372 203.671 33.4372C204.846 33.4372 205.223 34.1054 205.223 35.4725V39.3742C205.223 40.3419 205.077 40.6338 204.009 40.6338H203.587V42.0393H209.547V40.6338H208.955C207.888 40.6338 207.742 40.3419 207.742 39.3742V35.4725C207.742 32.9533 206.92 31.8242 204.554 31.8242C203.356 31.8242 202.181 32.5155 201.091 33.8826V27.9686H196.812V29.3742H197.358C198.425 29.3742 198.571 29.666 198.571 30.6338M209.908 37.0854C209.908 40.2728 212.089 42.3926 215.484 42.3926C218.879 42.3926 221.083 40.2728 221.083 37.0854C221.083 33.898 218.879 31.7551 215.484 31.7551C212.089 31.7551 209.908 33.898 209.908 37.0854ZM212.765 37.0854C212.765 34.5278 213.664 33.2451 215.492 33.2451C217.319 33.2451 218.241 34.5278 218.241 37.0854C218.241 39.643 217.319 40.9026 215.492 40.9026C213.664 40.9026 212.765 39.643 212.765 37.0854ZM222.074 37.0854C222.074 40.2728 224.255 42.3926 227.657 42.3926C231.06 42.3926 233.257 40.2728 233.257 37.0854C233.257 33.898 231.052 31.7551 227.657 31.7551C224.263 31.7551 222.074 33.898 222.074 37.0854ZM224.931 37.0854C224.931 34.5278 225.83 33.2451 227.657 33.2451C229.485 33.2451 230.407 34.5278 230.407 37.0854C230.407 39.643 229.485 40.9026 227.657 40.9026C225.83 40.9026 224.931 39.643 224.931 37.0854ZM235.476 30.6261V39.3742C235.476 40.3419 235.33 40.6338 234.263 40.6338H233.633V42.0393H239.885V40.6338H239.255C238.187 40.6338 238.034 40.3419 238.034 39.3742V27.9609H233.625V29.3665H234.255C235.323 29.3665 235.469 29.6583 235.469 30.6261" fill="white"/>
<path d="M194.556 37.9096C194.348 39.6531 193.573 40.4903 192.144 40.4903C190.401 40.4903 189.517 39.3536 189.517 37.0494C189.517 34.5302 190.57 33.1247 192.244 33.1247C193.043 33.1247 193.673 33.3551 194.302 33.8774C193.565 33.9619 193.089 34.4841 193.089 35.137C193.089 36.0433 193.696 36.5886 194.602 36.5886C195.608 36.5886 196.276 35.8973 196.276 34.8067C196.276 33.1093 194.663 31.7422 192.144 31.7422C188.911 31.7422 186.668 33.9004 186.668 37.0725C186.668 40.2445 188.619 42.3797 191.745 42.3797C194.533 42.3797 196.023 40.8897 196.169 37.9096H194.556Z" fill="white"/>
<path d="M100.165 17.0259V24.5528C100.165 25.4745 100.035 25.5666 99.0824 25.5666H98.13V26.8109H104.513V25.5666H103.576C102.623 25.5666 102.477 25.4668 102.477 24.5528V17.0259H102.723C104.497 17.0259 105.234 18.0781 105.25 20.3746H106.509V15.8124H96.1484V20.3746H97.4081C97.4234 18.0474 98.1607 17.0259 99.9503 17.0259H100.165ZM108.683 17.8938V24.7294C108.683 25.4821 108.568 25.7126 107.731 25.7126H107.308V26.8109H111.932V25.7126H111.602C110.764 25.7126 110.649 25.4821 110.649 24.7294V22.794C110.649 20.989 111.486 20.0904 112.669 20.0904C113.591 20.0904 113.883 20.6127 113.883 21.6803V24.7294C113.883 25.4821 113.768 25.7126 112.93 25.7126H112.6V26.8109H117.255V25.7126H116.794C115.957 25.7126 115.841 25.4821 115.841 24.7294V21.6803C115.841 19.7141 115.204 18.8231 113.345 18.8231C112.408 18.8231 111.494 19.3685 110.642 20.4284V15.8047H107.301V16.903H107.723C108.56 16.903 108.675 17.1334 108.675 17.8861" fill="white"/>
<path d="M123.895 24.0502C123.634 25.3098 123.043 25.8091 121.775 25.8091C120.508 25.8091 119.855 24.8874 119.794 23.1209H125.324C125.324 20.2868 124.026 18.7891 121.668 18.7891C119.179 18.7891 117.566 20.4788 117.566 22.9519C117.566 25.425 119.141 27.1147 121.668 27.1147C123.665 27.1147 125.047 25.9473 125.278 24.0502H123.903H123.895ZM123.158 21.9534H119.878C120.078 20.5786 120.7 19.8874 121.645 19.8874C122.589 19.8874 123.058 20.5402 123.15 21.9534" fill="white"/>
<path d="M15.0039 32.4171V30.3434C15.0039 30.3434 17.07 30.0746 19.2743 29.8595C21.6706 29.6214 25.3265 29.4217 26.0715 29.4141V31.9947C26.0715 31.9947 22.6844 32.0101 20.4724 32.0792C18.56 32.1406 16.4018 32.2712 15.0116 32.4171" fill="white"/>
<path d="M28.8359 29.3749C29.6501 29.3749 31.9619 29.4363 34.4658 29.5438C36.8928 29.6514 40.9558 30.0661 43.3905 30.4041L43.3752 33.7374C41.4781 33.3995 37.3152 32.7236 34.9496 32.5085C32.3767 32.2627 29.8574 32.0861 28.8359 32.063V29.3672V29.3749Z" fill="white"/>
<path d="M28.8358 33.7969C29.8727 33.8583 32.6991 34.1809 35.3719 34.5342C37.5532 34.8261 41.2859 35.548 43.3827 36.078V40.5711C41.5471 40.1026 37.6454 39.1579 34.9418 38.6817C32.991 38.3361 30.633 38.0135 28.8281 37.8138V33.7969H28.8358Z" fill="white"/>
<path d="M93.554 48.5547H80.5586M240.237 48.57H127.74" stroke="white" stroke-width="0.46"/>
<path d="M96.2695 51.7774H98.7273V51.0478H97.1912V50.2336H98.5276V49.5578H97.1912V48.8358H98.6889V48.1061H96.2695V51.7851V51.7774ZM100.862 51.8389C101.753 51.8389 102.283 51.4241 102.283 50.7021C102.283 50.08 101.838 49.7958 101.331 49.5731C100.886 49.3888 100.609 49.3273 100.609 49.0662C100.609 48.8588 100.809 48.759 101.078 48.759C101.4 48.759 101.669 48.8819 101.815 48.974L102.168 48.3212C101.976 48.206 101.646 48.0293 101.024 48.0293C100.317 48.0293 99.7258 48.4057 99.7258 49.1123C99.7258 49.696 100.048 49.9879 100.532 50.2029C101.031 50.4333 101.385 50.4948 101.385 50.779C101.385 50.9863 101.177 51.1169 100.816 51.1169C100.386 51.1169 100.125 50.9249 100.018 50.8481L99.6566 51.5009C99.8256 51.6315 100.225 51.8389 100.87 51.8389M104.134 51.7774H105.079V48.8511H106.17V48.0985H103.051V48.8511H104.134V51.7774ZM107.253 51.8465C107.598 51.8465 107.867 51.5777 107.867 51.2398C107.867 50.9018 107.591 50.6407 107.253 50.6407C106.915 50.6407 106.623 50.9018 106.623 51.2398C106.623 51.5777 106.907 51.8465 107.253 51.8465ZM111.469 51.7774H112.399V48.3519H111.684L110.471 48.6668L110.663 49.4041L111.477 49.1583V51.7774H111.469ZM113.912 53.0754C115.855 53.0754 116.938 51.9925 116.938 50.3258C116.938 49.2736 116.492 48.2751 115.233 48.2751C114.296 48.2751 113.543 48.8665 113.543 49.7882C113.543 50.7098 114.157 51.2091 114.995 51.2091C115.356 51.2091 115.647 51.1169 115.909 50.9326C115.847 51.3243 115.671 51.6238 115.363 51.8619C114.972 52.1691 114.296 52.3381 113.712 52.3381L113.912 53.0754ZM115.225 50.4871C114.795 50.4871 114.549 50.2183 114.549 49.7344C114.549 49.2505 114.833 48.974 115.21 48.974C115.755 48.974 115.978 49.527 115.962 50.1645V50.2413C115.763 50.4026 115.502 50.4871 115.225 50.4871ZM119.664 51.8619C120.617 51.8619 121.323 51.2552 121.323 50.3335C121.323 49.4118 120.717 48.9126 119.887 48.9126C119.511 48.9126 119.196 49.0278 118.981 49.1891C119.05 48.7897 119.219 48.4748 119.511 48.2213C119.879 47.9064 120.509 47.7528 121.101 47.7528L120.901 47.0078C119.073 47.0078 117.952 48.1522 117.952 49.8035C117.952 50.8634 118.428 51.8542 119.664 51.8542M119.687 51.1476C119.142 51.1476 118.904 50.6023 118.927 49.9648V49.8803C119.096 49.7421 119.326 49.6269 119.657 49.6269C120.087 49.6269 120.333 49.888 120.333 50.4026C120.333 50.8174 120.095 51.1476 119.687 51.1476ZM122.967 53.1983L125.002 48.8588V48.3519H122.053V49.12H123.919L122.191 52.822L122.975 53.1983H122.967Z" fill="white"/>
</svg>
