<svg width="80" height="81" viewBox="0 0 80 81" fill="none" xmlns="http://www.w3.org/2000/svg">
<rect y="0.703125" width="80" height="80" rx="40" fill="#6FA34A"/>
<path d="M54.8171 46.3327C54.8171 47.334 54.5428 48.2442 53.9941 49.0634C53.4759 49.8523 52.7443 50.4895 51.7994 50.9749C50.885 51.4604 49.8486 51.7031 48.6903 51.7031C46.9223 51.7031 45.4135 50.9598 44.1637 49.473C42.914 47.956 42.2891 45.5438 42.2891 42.2366C42.2891 40.7196 42.5329 39.157 43.0206 37.5489C43.5388 35.9105 44.2856 34.3782 45.2611 32.9522C46.267 31.5261 47.4862 30.3428 48.9189 29.4022C50.382 28.4617 52.0585 27.9003 53.9484 27.7183C54.2837 27.688 54.5428 27.7031 54.7257 27.7638C54.9086 27.7941 55 28.0065 55 28.401V30.358C55 30.7524 54.8933 31.0103 54.6799 31.1317C54.4666 31.2531 54.1922 31.3441 53.8569 31.4048C52.4852 31.6172 51.2203 32.1936 50.0619 33.1342C48.9036 34.0445 48.0044 35.2278 47.3643 36.6842C46.7242 38.1102 46.4803 39.7031 46.6327 41.4629C46.6937 41.827 46.8156 41.9636 46.9985 41.8725C47.1814 41.7815 47.3948 41.6601 47.6386 41.5084C48.0044 41.2657 48.355 41.114 48.6903 41.0533C49.056 40.9926 49.4828 40.9623 49.9705 40.9623C51.4946 40.9623 52.6834 41.4781 53.5369 42.5097C54.3904 43.5413 54.8171 44.8156 54.8171 46.3327ZM36.528 46.3327C36.528 47.334 36.2537 48.2442 35.705 49.0634C35.1868 49.8523 34.4553 50.4895 33.5103 50.9749C32.5959 51.4604 31.5595 51.7031 30.4012 51.7031C28.6332 51.7031 27.1244 50.9598 25.8746 49.473C24.6249 47.956 24 45.5438 24 42.2366C24 40.7196 24.2439 39.157 24.7316 37.5489C25.2498 35.9105 25.9966 34.3782 26.972 32.9522C27.9779 31.5261 29.1971 30.3428 30.6298 29.4022C32.0929 28.4617 33.7694 27.9003 35.6593 27.7183C35.9946 27.688 36.2537 27.7031 36.4366 27.7638C36.6195 27.7941 36.7109 28.0065 36.7109 28.401V30.358C36.7109 30.7524 36.6042 31.0103 36.3909 31.1317C36.1775 31.2531 35.9031 31.3441 35.5678 31.4048C34.1962 31.6172 32.9312 32.1936 31.7729 33.1342C30.6146 34.0445 29.7153 35.2278 29.0752 36.6842C28.4351 38.1102 28.1912 39.7031 28.3437 41.4629C28.4046 41.827 28.5265 41.9636 28.7094 41.8725C28.8923 41.7815 29.1057 41.6601 29.3496 41.5084C29.7153 41.2657 30.0659 41.114 30.4012 41.0533C30.767 40.9926 31.1937 40.9623 31.6814 40.9623C33.2055 40.9623 34.3943 41.4781 35.2478 42.5097C36.1013 43.5413 36.528 44.8156 36.528 46.3327Z" fill="white"/>
</svg>
