<svg width="295" height="361" viewBox="0 0 295 361" fill="none" xmlns="http://www.w3.org/2000/svg">
<mask id="mask0_30034_28228" style="mask-type:alpha" maskUnits="userSpaceOnUse" x="0" y="-112" width="295" height="473">
<rect width="294" height="472.008" rx="147" transform="matrix(-1 0 0 1 294.984 -111.211)" fill="#D9D9D9"/>
</mask>
<g mask="url(#mask0_30034_28228)">
<path d="M199.034 442.147C198.9 442.089 198.696 441.993 198.434 441.859C197.968 441.623 197.298 441.265 196.448 440.806C182.227 433.079 117.802 395.78 100.758 387.549C97.2207 385.844 91.6906 383.207 85.0495 380.065C85.0495 380.065 85.0452 380.065 85.0367 380.065C83.1019 379.158 81.0904 378.194 78.9895 377.198C68.3636 372.172 55.8796 366.284 44.3853 360.876C43.3253 360.371 42.2652 359.873 41.2244 359.382C39.398 358.526 37.6164 357.683 35.8667 356.859C35.0685 356.489 34.2831 356.112 33.5104 355.748C26.7671 352.581 20.8092 349.784 16.3712 347.689C15.6687 347.364 15.0046 347.051 14.3852 346.757C10.5282 344.943 8.24853 343.877 8.24853 343.877C8.24853 343.877 7.56526 332.312 12.7441 332.312C12.8973 332.312 17.61 334.611 24.9536 338.232C25.8156 338.647 26.716 339.094 27.6483 339.554C34.1426 342.766 42.2525 346.776 50.9243 351.061C52.2014 351.693 53.4913 352.332 54.7876 352.97C57.4888 354.311 60.2346 355.665 62.9869 357.025C64.3853 357.715 65.7902 358.411 67.1887 359.101C85.7136 368.251 103.875 377.179 112.304 381.125C131.659 390.205 194.884 423.775 204.328 429.797C204.916 430.167 205.292 430.435 205.439 430.589C205.637 430.787 205.797 431.036 205.912 431.323C207.31 434.771 203.16 443.928 199.015 442.147H199.034Z" fill="white"/>
<path d="M27.6616 339.556C27.4828 339.633 27.304 339.716 27.1315 339.792C23.0766 341.676 19.3921 344.377 16.3844 347.692C15.682 347.366 15.0179 347.053 14.3984 346.759C15.3052 345.629 16.3142 344.563 17.4061 343.547C19.673 341.434 22.2337 339.658 24.9732 338.234C25.8352 338.649 26.7356 339.096 27.6679 339.556H27.6616Z" fill="#FF2200"/>
<path d="M54.8006 352.973C49.8581 352.877 44.9092 353.542 40.2029 355.119C38.7342 355.617 37.2846 356.179 35.8798 356.862C35.0816 356.492 34.2961 356.115 33.5234 355.751C36.2246 354.25 39.2259 353.216 42.0037 352.475C44.9347 351.696 47.9296 351.217 50.9373 351.07C52.2144 351.702 53.5043 352.341 54.8006 352.98V352.973Z" fill="#FF2200"/>
<path d="M67.2036 359.099C65.7413 359.029 64.279 359.022 62.8103 359.054C59.3556 359.131 55.9201 359.444 52.4846 359.827C49.7834 360.121 47.0759 360.433 44.3875 360.868C43.3275 360.363 42.2674 359.865 41.2266 359.373C43.4105 358.926 45.6135 358.607 47.7975 358.326C52.8294 357.681 57.906 357.106 62.9891 357.023C64.3875 357.713 65.7924 358.409 67.1909 359.099H67.2036Z" fill="#FF2200"/>
<path d="M317.869 430.586C317 437.093 310.257 432.17 305.985 428.287C304.529 426.959 303.36 425.759 302.805 425.184C302.945 425.344 303.124 425.542 303.341 425.784C307.039 429.909 320.73 445.937 315.391 451.052C315.366 451.084 315.334 451.116 315.302 451.142C314.874 451.531 314.369 451.787 313.807 451.921C307.071 453.568 291.681 438.536 287.479 434.277C291.438 438.485 304.644 453.358 298.603 458.849C298.431 459.009 298.233 459.162 298.022 459.303C297.607 459.571 297.134 459.807 296.604 459.999C286.259 463.754 253.194 453.434 231.164 425.452C207.396 395.26 179.797 350.656 179.797 350.656L191.336 351.231L194.229 351.378L205.557 351.94L208.296 352.074L214.261 352.374L216.815 352.495L227.485 353.032L230.665 353.191L249.784 354.149C249.784 354.149 319.159 420.95 317.875 430.586H317.869Z" fill="#A34E35"/>
<path d="M298.014 459.306C297.599 459.574 297.127 459.811 296.597 460.002C287.567 453.942 278.915 447.327 270.613 440.302C259.547 430.934 249.093 420.864 239.151 410.309C229.144 399.676 219.674 388.546 210.639 377.077C203.978 368.629 197.554 360.002 191.328 351.234L194.221 351.381C201.047 360.985 208.078 370.443 215.421 379.67C224.47 391.049 233.959 402.077 244.004 412.595C253.985 423.048 264.534 432.978 275.664 442.199C282.88 448.169 290.326 453.917 298.014 459.3V459.306Z" fill="#51251D"/>
<path d="M287.375 434.173C287.202 434.256 286.992 434.256 286.8 434.102C285.6 433.17 284.354 432.283 283.147 431.344C273.594 423.911 264.495 415.916 255.702 407.602C246.864 399.249 238.364 390.558 230.21 381.542C222.062 372.538 214.258 363.215 206.832 353.604C206.404 353.049 205.976 352.499 205.555 351.938L208.294 352.072C209.252 353.31 210.216 354.543 211.18 355.769C218.677 365.277 226.532 374.498 234.731 383.406C242.924 392.308 251.436 400.916 260.274 409.185C264.667 413.291 269.137 417.308 273.665 421.274C278.243 425.29 282.815 429.345 287.522 433.208C287.905 433.521 287.72 434.019 287.381 434.173H287.375Z" fill="#51251D"/>
<path d="M305.984 428.288C305.901 428.269 305.812 428.224 305.741 428.154C304.949 427.356 304.145 426.571 303.34 425.785C303.002 425.459 302.67 425.127 302.338 424.795C293.034 415.523 283.608 406.366 274.068 397.33C264.547 388.301 254.962 379.342 245.447 370.312C239.419 364.597 233.417 358.856 227.484 353.039L230.664 353.199C237.223 359.604 243.864 365.938 250.518 372.247C260.013 381.251 269.547 390.21 278.947 399.304C288.385 408.442 297.657 417.714 306.584 427.343C306.961 427.758 306.444 428.365 305.99 428.288H305.984Z" fill="#51251D"/>
<path d="M315.388 451.053C315.363 451.085 315.331 451.117 315.299 451.143C314.871 451.532 314.367 451.788 313.805 451.922C307.968 446.117 302.106 440.332 296.161 434.629C285.957 424.846 275.637 415.178 265.427 405.408C255.248 395.67 245.177 385.836 235.42 375.683C228.147 368.116 221.059 360.37 214.258 352.375L216.812 352.496C224.386 361.347 232.304 369.885 240.433 378.212C250.28 388.307 260.42 398.103 270.631 407.829C280.867 417.58 291.167 427.273 301.321 437.107C306.059 441.698 310.759 446.354 315.395 451.047L315.388 451.053Z" fill="#51251D"/>
<path d="M141.007 352.014C140.58 352.659 121.735 385.635 121.735 385.635C121.735 385.635 115.956 381.995 104.175 383.279C92.3994 384.562 79.9728 394.626 82.1184 395.699C84.2576 396.772 95.3943 390.775 99.2513 389.703C103.108 388.63 108.242 389.058 108.242 389.058C108.242 389.058 96.8949 393.125 92.8209 398.911C88.7532 404.69 88.3253 407.908 91.3202 408.547C94.3215 409.192 101.384 399.122 110.382 394.843C119.379 390.558 120.873 389.064 128.153 392.059C135.433 395.054 145.497 403.834 147.425 401.05C149.354 398.266 133.076 388.63 133.076 388.63L143.785 358.432L141.001 352.008L141.007 352.014Z" fill="#EFAB75"/>
<path d="M131.377 359.077C131.377 359.077 121.951 372.353 119.812 377.065C117.673 381.778 125.591 376.848 125.591 376.848C125.591 376.848 123.452 384.128 125.591 385.201C127.73 386.273 135.872 374.064 135.872 374.064C135.872 374.064 132.877 389.051 135.872 388.623C138.867 388.196 142.296 374.703 142.296 374.703C142.296 374.703 142.513 388.623 145.508 388.196C148.503 387.768 152.788 359.926 152.788 359.926L131.37 359.07L131.377 359.077Z" fill="#A04A30"/>
<path d="M179.547 355.438C178.978 356.293 153.85 400.259 153.85 400.259C153.85 400.259 146.143 395.406 130.44 397.117C114.738 398.828 98.1799 412.245 101.034 413.675C103.889 415.106 118.735 407.111 123.876 405.68C129.016 404.25 135.868 404.825 135.868 404.825C135.868 404.825 120.741 410.246 115.313 417.96C109.891 425.668 109.317 429.952 113.314 430.808C117.311 431.664 126.73 418.247 138.723 412.539C150.715 406.83 152.714 404.831 162.42 408.828C172.126 412.826 185.543 424.531 188.116 420.821C190.683 417.111 168.991 404.263 168.991 404.263L183.263 364.007L179.553 355.444L179.547 355.438Z" fill="#EFAB75"/>
<path d="M55.6516 176.723C55.6516 176.723 47.6567 208.128 63.9274 269.789C82.7461 341.104 130.16 387.407 210.665 366.283L143.008 162.164L55.6516 176.723Z" fill="#FEE6C7"/>
<path d="M85.7923 251.165C85.6391 250.398 85.4475 249.638 85.2687 248.879C84.8983 247.295 84.528 245.724 84.2725 244.115C84.0235 242.557 83.8447 240.986 83.7298 239.415C83.6148 237.819 83.7106 236.145 83.3466 234.581C83.0848 233.451 81.6863 233.393 81.3543 234.517C80.8817 236.101 81.0158 237.908 81.0988 239.543C81.1819 241.209 81.3607 242.863 81.6225 244.511C81.8843 246.139 82.2036 247.774 82.6378 249.37C82.8549 250.169 83.104 250.973 83.4296 251.733C83.7808 252.538 84.247 253.246 84.7259 253.981C85.1346 254.607 86.1499 254.172 86.0669 253.464C85.9775 252.697 85.9392 251.931 85.7923 251.171V251.165Z" fill="#EAC08A"/>
<path d="M101.586 267.755C101.343 266.714 100.999 265.693 100.686 264.677C100.079 262.71 99.4916 260.737 98.9296 258.758C98.3677 256.778 97.8249 254.799 97.2438 252.825C96.6499 250.807 95.9794 248.841 95.3089 246.855C95.0343 246.037 93.6933 246.337 93.8211 247.206C94.1276 249.288 94.466 251.318 94.9449 253.368C95.4175 255.386 95.9603 257.397 96.5222 259.39C97.0841 261.369 97.6652 263.343 98.2655 265.309C98.5592 266.267 98.8274 267.251 99.185 268.183C99.3766 268.687 99.5873 269.211 99.8236 269.696C100.054 270.163 100.251 270.712 100.596 271.101C101.024 271.587 102.014 271.516 102.084 270.744C102.167 269.773 101.81 268.694 101.592 267.749L101.586 267.755Z" fill="#EAC08A"/>
<path d="M112.929 237.833C112.571 236.173 112.226 234.519 111.945 232.84C111.671 231.211 111.447 229.576 111.281 227.929C111.115 226.275 111.058 224.398 110.458 222.833C110.24 222.271 109.276 222.15 109.065 222.795C108.535 224.423 108.65 226.345 108.784 228.037C108.919 229.768 109.123 231.505 109.398 233.223C109.672 234.966 110.017 236.703 110.451 238.414C110.873 240.087 111.422 241.875 112.335 243.344C112.788 244.078 113.836 243.523 113.804 242.782C113.733 241.135 113.28 239.436 112.935 237.827L112.929 237.833Z" fill="#EAC08A"/>
<path d="M118.08 342.829C117.595 341.922 116.726 341.117 116.068 340.313C115.379 339.463 114.644 338.646 113.929 337.816C112.492 336.149 111.151 334.4 109.913 332.586C108.687 330.792 107.588 328.921 106.573 327.005C105.558 325.083 104.708 322.982 103.521 321.156C103.118 320.542 102.109 320.964 102.192 321.666C102.461 323.863 103.463 326.104 104.427 328.078C105.424 330.115 106.579 332.081 107.831 333.972C109.07 335.836 110.436 337.618 111.911 339.304C112.652 340.147 113.444 340.964 114.28 341.705C114.689 342.069 115.13 342.394 115.564 342.726C116.043 343.097 116.503 343.55 117.071 343.786C117.607 344.01 118.406 343.442 118.08 342.835V342.829Z" fill="#EAC08A"/>
<path d="M114.209 315.868C113.839 314.175 113.13 312.585 112.434 311.008C111.719 309.373 111.035 307.72 110.403 306.053C109.79 304.424 109.235 302.771 108.705 301.117C108.162 299.431 107.504 297.758 107.038 296.053C106.77 295.057 105.071 295.453 105.256 296.474C105.582 298.25 105.812 300.012 106.278 301.768C106.738 303.499 107.287 305.197 107.894 306.877C108.481 308.518 109.126 310.14 109.841 311.723C110.588 313.39 111.412 315.114 112.664 316.462C113.162 317.004 114.42 316.8 114.215 315.868H114.209Z" fill="#EAC08A"/>
<path d="M154.179 315.875C153.675 315.09 153.157 314.31 152.646 313.525C151.631 311.954 150.641 310.37 149.671 308.774C147.742 305.588 145.827 302.401 143.86 299.24C143.323 298.372 141.887 299.17 142.289 300.102C143.783 303.608 145.52 306.961 147.468 310.236C148.426 311.846 149.403 313.436 150.411 315.007C150.916 315.792 151.42 316.577 151.95 317.35C152.487 318.136 153.119 318.972 154 319.381C154.639 319.681 155.316 319.132 155.277 318.461C155.22 317.529 154.671 316.641 154.179 315.875Z" fill="#EAC08A"/>
<path d="M162.658 356.233C162.249 355.499 161.463 354.944 160.825 354.42C160.154 353.871 159.458 353.36 158.781 352.823C157.428 351.751 156.131 350.595 154.899 349.388C153.686 348.2 152.562 346.929 151.47 345.633C150.359 344.318 149.209 342.996 148.181 341.617C147.581 340.812 146.061 341.553 146.572 342.498C147.447 344.12 148.315 345.665 149.439 347.134C150.557 348.596 151.808 349.956 153.098 351.265C154.369 352.555 155.716 353.762 157.134 354.886C157.836 355.442 158.552 355.984 159.318 356.451C160.084 356.917 160.94 357.479 161.859 357.549C162.632 357.606 163.022 356.878 162.664 356.24L162.658 356.233Z" fill="#EAC08A"/>
<path d="M188.438 357.724C187.997 356.588 187.218 355.643 186.445 354.71C185.653 353.752 184.823 352.833 183.993 351.907C183.169 350.981 182.346 350.062 181.471 349.187C180.602 348.318 179.664 347.533 178.795 346.664C178.169 346.045 177.186 347.035 177.697 347.718C178.418 348.682 179.051 349.704 179.779 350.662C180.532 351.652 181.337 352.59 182.141 353.535C182.92 354.455 183.706 355.374 184.517 356.262C185.372 357.201 186.228 358.127 187.352 358.752C187.984 359.104 188.674 358.337 188.438 357.724Z" fill="#EAC08A"/>
<path d="M83.9174 284.929C83.5917 284.105 83.1256 283.345 82.7743 282.534C82.4551 281.793 82.1358 281.046 81.8165 280.299C81.1268 278.684 80.4308 277.081 79.8497 275.42C79.2814 273.805 78.8791 272.145 78.3937 270.497C78.1511 269.686 77.9595 268.856 77.736 268.045C77.5061 267.202 77.1294 266.314 77.0208 265.446C76.925 264.661 75.7756 264.782 75.8075 265.567C75.8459 266.474 75.6543 267.374 75.6926 268.281C75.7245 269.182 75.8203 270.056 75.948 270.95C76.2098 272.796 76.7654 274.616 77.372 276.372C77.9659 278.083 78.6875 279.75 79.5687 281.34C80.4308 282.885 81.4972 284.533 82.7616 285.772C83.3044 286.302 84.1728 285.574 83.9174 284.929Z" fill="#EAC08A"/>
<path d="M215.501 174.835C214.658 176.617 212.532 176.764 210.808 176.84C208.624 176.936 206.421 176.725 204.275 176.323C200.61 175.64 197.091 174.376 193.617 173.035C194.626 175.321 195.405 177.702 195.903 180.161C196.178 181.496 196.395 182.837 196.523 184.197C196.644 185.468 196.74 186.815 196.114 187.977C195.124 189.835 192.87 190.378 190.923 190.359C188.336 190.333 185.68 189.618 183.253 188.801C181.089 188.079 179.013 187.147 177.027 186.036C177.557 188.654 177.845 191.317 177.838 193.992C177.838 196.464 177.998 199.759 175.156 200.723C172.825 201.508 170.201 200.416 168.132 199.388C166.682 198.667 165.322 197.779 164.064 196.764C164.326 197.62 164.524 198.501 164.665 199.401C164.946 201.24 165.201 203.667 164.364 205.41C162.908 208.469 159.69 206.477 157.34 204.28C157.021 205.199 156.619 206.074 156.089 206.892C154.773 208.903 152.749 210.187 150.367 210.525C147.953 210.857 145.437 210.219 143.266 209.178C139.186 207.217 135.878 203.75 133.809 199.733C132.845 201.694 132.308 203.852 131.44 205.857C129.92 209.363 126.389 212.683 122.359 210.934C120.45 210.11 118.796 208.526 117.512 206.924C116.663 205.857 115.954 204.682 115.405 203.443C114.779 205.563 114.019 207.658 112.793 209.51C111.567 211.368 109.869 212.952 107.781 213.795C105.654 214.657 103.298 214.503 101.242 213.52C96.9952 211.477 95.1305 207.064 93.7448 202.818C91.9632 205.353 90.0475 207.875 87.8444 210.053C85.967 211.904 83.6746 213.143 80.9734 212.849C78.4766 212.575 76.2033 211.081 74.5175 209.286C71.0181 205.583 69.5238 200.244 69.6771 195.18C67.8188 197.179 65.9734 199.178 64.1151 201.164C62.64 202.754 60.8903 204.625 58.4957 204.184C56.6119 203.839 55.3795 202.102 54.7281 200.423C53.8916 198.29 53.9108 195.895 54.1726 193.641C54.4408 191.362 55.1049 189.184 56.1074 187.128C54.2045 187.351 52.4548 188.335 50.5774 188.731C48.783 189.107 47.0142 188.89 45.4752 187.869C44.0065 186.898 42.9273 185.416 42.2824 183.794C40.769 180.021 41.9759 175.934 43.3296 172.255C41.3373 172.996 39.5621 174.331 37.4101 174.605C35.3794 174.867 32.9912 174.127 32.359 171.968C31.6629 169.605 33.4637 167.351 34.4982 165.391C35.3539 163.762 36.0627 162.064 36.6502 160.321C36.8481 159.746 37.0269 159.171 37.1993 158.59C37.2377 158.469 37.276 158.341 37.3079 158.22C38.7255 153.264 39.4088 148.137 40.3092 143.066C41.631 135.621 43.7128 127.709 48.815 122C48.783 121.815 48.8341 121.623 49.0129 121.476C49.4918 121.08 49.9835 120.697 50.4689 120.308C50.852 119.963 51.2415 119.618 51.6566 119.292C51.7332 119.235 51.8099 119.216 51.8737 119.209C52.4293 118.782 52.9784 118.354 53.5404 117.932C65.8967 108.673 80.2901 101.815 95.0539 97.4022C102.538 95.1672 110.22 93.5644 117.979 92.632C126.446 91.6103 135.233 91.1378 143.598 93.1237C158.087 96.5593 169.345 107.3 177.972 118.916C185.648 129.248 191.548 140.755 198.732 151.4C199.052 151.872 199.377 152.358 199.709 152.824C200.903 154.548 202.136 156.253 203.413 157.913C205.789 160.991 208.336 163.948 211.114 166.674C212.366 167.907 213.752 169.024 214.709 170.512C215.501 171.738 216.165 173.392 215.495 174.816L215.501 174.835Z" fill="#BB6A42"/>
<path d="M189.208 99.4817C189.196 102.911 187.216 105.682 185.786 108.581C186.571 111.2 187.925 113.882 186.852 116.736C185.766 122.266 180.032 121.781 181.992 124.795C184.432 131.161 179.84 139.086 173.072 140.05C172.19 140.255 171.826 140.657 171.507 141.468C169.579 146.921 162.976 149.967 157.599 147.815C154.17 153.939 146.328 154.418 140.869 150.848C137.778 150.159 136.054 154.226 132.771 153.907C128.282 154.552 126.277 151.053 123.301 148.799C118.02 151.244 112.739 148.358 111.092 142.937C109.662 143.332 108.014 143.026 106.839 142.189C105.326 147.937 100.026 151.43 94.3678 148.799C91.392 151.046 89.3805 154.552 84.8978 153.907C81.6027 154.226 79.8977 150.159 76.7943 150.848C71.3409 154.418 63.4801 153.939 60.0701 147.815C54.6806 149.967 48.0841 146.921 46.1556 141.468C45.8364 140.657 45.4788 140.255 44.5975 140.05C37.8223 139.086 33.231 131.161 35.6703 124.795C35.8683 124.258 36.4749 123.3 35.9193 122.815C30.3191 120.261 29.3676 113.62 31.8772 108.581C26.0917 100.836 27.8797 88.9006 37.2412 84.884C35.2169 77.8022 40.996 70.2224 48.3715 70.3437C48.0777 60.9057 59.0739 57.9618 66.7623 58.7217C66.7623 52.6872 73.7866 48.2364 79.1442 51.2505C83.7164 44.3922 91.2707 44.2581 96.4367 50.5353C99.2209 47.004 104.521 43.8047 108.831 46.5506C113.148 43.8111 118.448 46.9976 121.232 50.5353C126.392 44.2581 133.946 44.3986 138.519 51.2505C143.87 48.23 150.894 52.6872 150.9 58.7217C158.589 57.9618 169.591 60.912 169.298 70.3437C176.667 70.2224 182.452 77.8022 180.422 84.884C186.041 87.4191 189.643 93.2684 189.215 99.4754L189.208 99.4817Z" fill="#DDA76E"/>
<path d="M96.3631 92.2947C96.3376 92.863 95.6032 93.0546 95.1882 92.7608C95.1243 92.7289 95.0732 92.6778 95.0285 92.614C90.6926 86.3687 87.736 79.3381 83.8918 72.7991C83.6428 72.384 83.4001 71.9753 83.1447 71.5603C81.2737 68.5143 79.1664 65.5705 76.6313 63.0354C74.0259 60.43 71.0055 58.2461 67.7168 56.5858C60.4307 52.9268 52.34 52.6394 44.409 51.6305C37.621 50.7684 30.4051 49.0762 25.2071 44.3444C23.036 42.3648 19.8559 38.6802 22.1675 35.6981C23.0552 34.5487 24.575 33.9931 25.9862 33.9995C26.4204 33.9995 26.8419 34.057 27.257 34.14C26.165 33.0353 25.1369 31.8667 24.1854 30.6406C23.3808 29.5998 22.6273 28.5142 21.9377 27.3967C21.2416 26.2792 20.5264 25.1106 20.1369 23.8399C19.46 21.6112 20.0283 19.4465 21.7653 17.882C25.3157 14.6955 29.9006 16.0557 33.7385 17.9842C33.5341 17.5627 33.3362 17.1349 33.1446 16.7134C31.2544 12.4988 29.6771 7.8628 30.3221 3.18846C30.4434 2.28808 30.5903 1.2472 31.3949 0.698033C32.1867 0.155248 33.1765 0.429833 33.93 0.889605C35.7627 1.99433 37.2187 3.84619 38.5661 5.46816C41.197 8.64824 43.9875 11.5474 47.2251 14.1272C50.3413 16.6176 53.6747 18.8398 57.0144 21.0174C63.63 25.3277 70.4308 29.5551 75.8778 35.3597C81.8676 41.7454 85.5202 49.8361 88.4704 57.9779C91.708 66.9179 94.92 76.0941 95.9864 85.5769C96.0055 85.743 95.9481 85.8643 95.8587 85.9473C96.2801 88.0099 96.4653 90.1172 96.3759 92.2883L96.3631 92.2947Z" fill="#A34E35"/>
<path d="M95.1885 92.7678C95.1246 92.7359 95.0736 92.6848 95.0289 92.6209C90.693 86.3757 87.7364 79.345 83.8922 72.806C79.5818 64.2428 73.956 56.3565 66.5614 50.1368C61.4783 45.8583 55.6737 42.6655 49.3966 40.5007C45.9866 39.3194 42.5064 38.4062 38.9942 37.6208C35.4885 36.8417 31.9636 35.986 28.4387 35.3283C27.8256 35.2134 27.9725 34.2747 28.5983 34.3704C30.6673 34.7089 32.7554 34.9068 34.8308 35.2453C36.8167 35.571 38.7899 35.9669 40.7503 36.4075C44.7286 37.2887 48.675 38.3679 52.4745 39.843C64.8117 44.6259 74.6904 53.898 81.7785 64.9325C85.5014 70.7371 88.4516 77.0079 90.8526 83.4638C90.2907 81.3693 89.6904 79.2748 89.0391 77.2058C84.6457 63.1955 78.1067 49.6706 68.1003 38.783C63.6112 33.9043 58.4451 29.5556 52.7555 26.1201C49.933 24.4151 46.97 22.9273 43.9049 21.6948C40.7439 20.4241 37.4936 19.5364 34.2177 18.6424C33.5408 18.4573 33.6749 17.4802 34.3901 17.5505C38.1577 17.9272 41.8678 19.1022 45.38 20.5007C48.924 21.9055 52.3021 23.6871 55.5141 25.737C67.5001 33.3615 76.7019 44.6578 83.1706 57.193C86.7785 64.179 89.5435 71.58 91.7658 79.1087C93.094 83.6234 94.2434 88.1701 95.1821 92.7678H95.1885Z" fill="#51251D"/>
<path d="M108.92 123.398C108.549 126.406 106.717 129.624 104.047 131.323C101.966 136.202 96.4739 139.26 91.1929 138.36C90.0307 140.563 87.6871 142.14 85.1648 142.211C82.7254 142.281 80.4649 141.048 79.0856 139.094C77.2784 140.799 74.7561 141.674 72.2656 141.374C69.7752 141.061 67.5977 139.573 66.2567 137.492C63.3895 138.858 59.9029 138.673 57.2528 136.821C54.7688 135.078 53.4023 132.019 53.5555 129.018C49.2132 128.896 45.1583 126.285 43.3767 122.268C42.5082 120.301 42.2081 118.092 42.4699 115.965C42.5976 114.912 42.8978 113.922 43.2745 112.939C43.5044 112.325 43.6577 111.783 43.3448 111.17C43.1213 110.716 42.7573 110.32 42.4827 109.905C41.3333 108.2 40.7202 106.131 40.7266 104.075C40.7266 103.022 40.8671 102 41.1736 100.997C41.4929 99.9372 42.0229 99.0304 42.5465 98.0726C42.8531 97.5106 43.0957 96.9423 43.1085 96.291C43.1213 95.7226 43.0063 95.1479 42.9425 94.586C42.8339 93.6281 42.8594 92.6447 43.0191 91.6869C43.3256 89.8286 44.1238 88.0662 45.2285 86.5527C47.3486 83.6409 50.7522 81.5974 54.3793 81.4761C54.8965 78.7686 56.576 76.3931 58.7854 74.7647C61.4291 72.8235 64.7624 72.0061 68 71.8848C69.424 71.8337 70.9757 72.1593 72.2337 71.342C73.4215 70.5693 74.4496 69.7456 75.8225 69.3113C78.4215 68.5003 81.1737 68.8132 83.5364 70.1415C84.2133 70.5246 84.8902 70.9716 85.6565 71.1632C86.4164 71.342 87.2018 71.259 87.9745 71.2845C89.2197 71.3292 90.35 71.706 91.3334 72.4723C93.2236 73.941 94.2325 76.227 95.7715 78.015C97.3232 79.803 99.2772 81.2079 100.918 82.9193C101.723 83.7686 102.425 84.669 102.955 85.7098C103.524 86.8401 103.575 87.9448 103.811 89.1645C103.964 89.9563 104.545 90.365 105.107 90.8886C105.548 91.3037 105.963 91.7507 106.321 92.236C107.029 93.2003 107.559 94.3242 107.866 95.4864C108.396 97.4851 108.332 99.5413 107.604 101.444C108.339 102.817 108.447 104.873 108.543 106.099C108.773 109.005 108.926 111.91 109.003 114.816C109.073 117.645 109.271 120.582 108.932 123.405L108.92 123.398Z" fill="#BB6A42"/>
<path d="M90.5101 117.653C96.5145 111.649 96.5145 101.914 90.5101 95.9094C84.5057 89.905 74.7707 89.905 68.7664 95.9094C62.762 101.914 62.762 111.649 68.7664 117.653C74.7707 123.657 84.5057 123.657 90.5101 117.653Z" fill="#A04A30"/>
<path d="M89.6774 115.823C95.2236 110.277 95.2236 101.285 89.6774 95.739C84.1312 90.1929 75.1391 90.1929 69.593 95.739C64.0468 101.285 64.0468 110.277 69.593 115.823C75.1391 121.37 84.1312 121.37 89.6774 115.823Z" fill="#FDBF2B"/>
<path d="M87.5088 111.653C90.7515 108.41 90.7515 103.153 87.5088 99.9098C84.2661 96.6672 79.0086 96.6671 75.7659 99.9098C72.5233 103.153 72.5233 108.41 75.766 111.653C79.0086 114.895 84.2661 114.895 87.5088 111.653Z" fill="#21201F"/>
<path d="M78.9971 102.399C80.2442 101.152 80.2442 99.1296 78.9971 97.8825C77.7499 96.6354 75.7279 96.6354 74.4808 97.8825C73.2337 99.1296 73.2337 101.152 74.4808 102.399C75.7279 103.646 77.7499 103.646 78.9971 102.399Z" fill="white"/>
<path d="M67.4445 88.6629C67.4445 88.5799 67.4254 88.3627 67.4126 88.2989C67.3998 88.235 67.3743 88.1648 67.3615 88.1009C67.4573 88.5416 67.304 87.8583 67.3168 87.903C67.1699 87.4943 66.9018 87.1111 66.6463 86.7599C66.4292 86.4662 66.1993 86.1852 65.9503 85.917C65.6246 85.5722 65.2989 85.2465 64.935 84.94C64.8711 84.8889 64.82 84.8506 64.7434 84.8059C64.5965 84.7165 64.5965 84.7165 64.7434 84.8059C64.7242 84.7931 64.7051 84.7804 64.6859 84.7676C64.6029 84.7101 64.5135 84.6527 64.4305 84.6016C64.3666 84.5633 64.3092 84.5249 64.2453 84.4866C63.9643 84.3142 64.3475 84.5505 64.1687 84.4419C64.0409 84.3653 63.9132 84.3078 63.7855 84.2695C63.5046 84.1163 63.0767 84.244 62.8979 84.493C62.7319 84.7165 62.6999 84.9911 62.7957 85.2401C62.8468 85.4573 62.9873 85.6488 63.1086 85.834C63.1533 85.8979 63.198 85.9617 63.2427 86.032C63.2683 86.0703 63.2874 86.1086 63.3194 86.1469C63.3513 86.1916 63.3513 86.1916 63.3194 86.1469C63.3449 86.198 63.3768 86.2491 63.4024 86.3002C63.6003 86.6003 63.843 86.8813 64.0601 87.1686C64.4943 87.7497 64.8839 88.3755 65.3564 88.9247C65.5288 89.129 65.7459 89.3014 65.9822 89.4355C65.9694 89.4355 65.9758 89.4356 66.0014 89.4611C65.9886 89.4803 66.1802 89.5824 66.2504 89.6143C66.4547 89.7037 66.7293 89.7357 66.9464 89.6399C67.3296 89.4739 67.5212 89.0779 67.4701 88.6756L67.4445 88.6629Z" fill="#A04A30"/>
<path d="M60.2727 95.3269C60.2089 95.2439 60.1195 95.1545 60.0365 95.097C59.9854 95.0587 59.979 95.0587 59.9918 95.0651C59.9088 94.9629 59.8066 94.8672 59.698 94.7969C59.6789 94.7841 59.6214 94.7586 59.5639 94.7267C59.5256 94.6884 59.4937 94.65 59.4554 94.6181C59.085 94.318 58.5422 94.1456 58.0952 94.0115C57.6291 93.871 57.1821 93.7497 56.6967 93.6794C56.4413 93.6411 56.1731 93.6156 55.9177 93.6283C55.8411 93.6283 55.7708 93.6475 55.6942 93.6666C55.6686 93.6666 55.6559 93.673 55.6367 93.6794C55.5345 93.6922 55.4388 93.7177 55.343 93.7496C55.0556 93.7752 54.813 93.9221 54.7236 94.2222C54.6278 94.5415 54.781 94.9182 55.1003 95.046C55.1067 95.046 55.1131 95.0587 55.1195 95.0651C55.1514 95.1034 55.1897 95.129 55.228 95.1481C55.1131 95.014 55.1514 95.0459 55.3302 95.2439C55.3685 95.2694 55.4068 95.295 55.4451 95.3205C55.6623 95.461 55.8985 95.5696 56.1348 95.6781C56.4796 95.8378 56.8308 95.9974 57.1757 96.1507C57.5269 96.3039 57.8781 96.47 58.2357 96.5977C58.3443 96.6488 58.4592 96.6743 58.5741 96.6871C58.7146 96.7573 58.8807 96.7765 59.0275 96.802C59.334 96.8467 59.615 96.9425 59.9151 96.7765C60.2664 96.5849 60.4962 96.3039 60.4643 95.8825C60.4515 95.6845 60.3749 95.4674 60.26 95.3078L60.2727 95.3269Z" fill="#A04A30"/>
<path d="M64.4257 120.286C64.4257 120.024 64.3427 119.756 64.1192 119.596C64.0043 119.513 63.8638 119.449 63.7169 119.424C63.6148 119.404 63.5126 119.417 63.4104 119.436C63.2891 119.436 63.1678 119.443 63.04 119.5C62.9698 119.532 62.9059 119.564 62.8421 119.602C62.7271 119.641 62.6186 119.698 62.51 119.775C62.4973 119.788 62.4781 119.794 62.4653 119.807C62.2865 119.902 62.146 120.049 61.9864 120.183C61.8587 120.292 61.731 120.394 61.6096 120.509C61.4883 120.618 61.3606 120.726 61.2329 120.835C61.169 120.886 61.0988 120.943 61.0285 120.994C60.9583 121.046 60.9008 121.109 60.837 121.167C60.6965 121.288 60.556 121.403 60.4474 121.556C60.4155 121.582 60.39 121.614 60.358 121.639C60.3197 121.703 60.275 121.773 60.2367 121.837C60.2176 121.914 60.192 121.984 60.1665 122.061C60.1345 122.265 60.1792 122.463 60.275 122.642C60.4347 122.936 60.805 123.178 61.1563 123.114C61.1946 123.108 61.2329 123.102 61.2712 123.095C61.4436 123.095 61.6096 123.044 61.7693 122.993C61.8268 122.987 61.8842 122.968 61.9481 122.948C61.9864 122.936 62.0247 122.91 62.063 122.891C62.1397 122.853 62.2163 122.814 62.2929 122.776C62.5292 122.648 62.7591 122.521 62.989 122.387C63.1358 122.297 63.2699 122.189 63.404 122.08C63.6148 121.901 63.8638 121.703 64.0107 121.461C64.0298 121.435 64.0554 121.409 64.0745 121.378C64.1639 121.256 64.215 121.135 64.2597 121.007C64.381 120.784 64.4449 120.541 64.413 120.292L64.4257 120.286Z" fill="#A04A30"/>
<path d="M68.4893 121.382C68.0679 121.254 67.6273 121.458 67.4421 121.854C67.0589 122.672 66.6886 123.483 66.4651 124.364C66.3629 124.766 66.2607 125.168 66.216 125.577C66.1841 125.839 66.1777 126.101 66.2033 126.363C66.2096 126.471 66.2224 126.586 66.2352 126.695C66.2799 126.995 66.414 127.167 66.6183 127.378C66.9057 127.665 67.391 127.595 67.6975 127.397C67.8827 127.282 68.004 127.11 68.0807 126.912C68.1126 126.803 68.1445 126.695 68.1764 126.592C68.1764 126.624 68.1637 126.65 68.1637 126.682C68.2084 126.573 68.2467 126.465 68.2722 126.35C68.3042 126.235 68.3042 126.241 68.2722 126.369C68.3169 126.222 68.3552 126.082 68.3872 125.935C68.4702 125.532 68.5277 125.117 68.6107 124.715C68.7767 123.923 68.8853 123.125 69.1024 122.346C69.2173 121.931 68.8661 121.484 68.4893 121.375V121.382Z" fill="#A04A30"/>
<path d="M103.394 103.417C103.299 103.271 103.171 103.168 103.037 103.079C102.954 103.002 102.864 102.938 102.743 102.881C102.705 102.862 102.666 102.849 102.634 102.83C102.449 102.753 102.264 102.696 102.066 102.638C101.862 102.581 101.651 102.53 101.434 102.498C101.153 102.453 100.853 102.46 100.572 102.453C100.259 102.453 99.9908 102.517 99.6842 102.594L99.9652 102.53C99.8247 102.562 99.6842 102.574 99.5438 102.606C99.3713 102.645 99.2245 102.709 99.0904 102.798C98.918 102.849 98.7647 102.932 98.6434 103.085C98.5093 103.251 98.4199 103.513 98.4518 103.73C98.5093 104.152 98.7902 104.407 99.1606 104.49C99.2947 104.56 99.448 104.611 99.6012 104.631C99.7673 104.65 99.9205 104.675 100.08 104.726C99.9908 104.701 99.895 104.669 99.8056 104.643C100.342 104.809 100.891 104.899 101.428 105.052C101.67 105.129 101.919 105.205 102.168 105.225C102.737 105.32 103.401 105.046 103.58 104.458C103.688 104.107 103.599 103.718 103.401 103.417H103.394Z" fill="#A04A30"/>
<path d="M95.0818 87.832C94.6731 87.5318 94.1431 87.5893 93.811 87.9725C93.5109 88.3109 93.2172 88.6493 92.917 88.9814C92.7702 89.1474 92.6424 89.3262 92.502 89.4986C92.3934 89.6391 92.3104 89.7924 92.221 89.9456C92.1316 90.0989 92.0805 90.2585 92.0294 90.431C92.0486 90.3607 92.0741 90.2841 92.0933 90.2138C92.0486 90.3096 92.0039 90.3926 91.9783 90.4948C91.9528 90.5778 91.9528 90.6608 91.9464 90.7375C91.9209 90.8205 91.9017 90.9035 91.8889 90.9929C91.8251 91.4527 92.2721 91.8422 92.7191 91.6698C92.8021 91.6379 92.8851 91.5995 92.9617 91.5548C93.0064 91.5485 93.0447 91.5421 93.0894 91.5293C93.2363 91.4718 93.2938 91.408 93.4024 91.325C93.4534 91.2866 93.5109 91.2547 93.562 91.2164C93.645 91.1525 93.728 91.0568 93.811 90.9737C94.0026 90.7886 94.1622 90.5842 94.3283 90.3799C94.4879 90.1819 94.622 89.9584 94.7689 89.7541C94.9221 89.537 95.069 89.3262 95.2223 89.1091C95.3564 88.9175 95.4394 88.694 95.4138 88.4578C95.3947 88.2343 95.2606 87.9725 95.0818 87.8384V87.832Z" fill="#A04A30"/>
<path d="M123.394 92.2947C123.42 92.863 124.154 93.0546 124.569 92.7608C124.633 92.7289 124.684 92.6778 124.729 92.614C129.065 86.3687 132.021 79.3381 135.865 72.7991C136.114 72.384 136.357 71.9753 136.613 71.5603C138.484 68.5143 140.591 65.5705 143.126 63.0354C145.731 60.43 148.752 58.2461 152.04 56.5858C159.327 52.9268 167.417 52.6394 175.348 51.6305C182.136 50.7684 189.352 49.0762 194.55 44.3444C196.721 42.3648 199.901 38.6802 197.59 35.6981C196.702 34.5487 195.182 33.9931 193.771 33.9995C193.337 33.9995 192.915 34.057 192.5 34.14C193.592 33.0353 194.62 31.8667 195.572 30.6406C196.376 29.5998 197.13 28.5142 197.82 27.3967C198.516 26.2792 199.231 25.1106 199.62 23.8399C200.297 21.6112 199.729 19.4465 197.992 17.882C194.442 14.6955 189.857 16.0557 186.019 17.9842C186.223 17.5627 186.421 17.1349 186.613 16.7134C188.503 12.4988 190.08 7.8628 189.435 3.18846C189.314 2.28808 189.167 1.2472 188.362 0.698033C187.571 0.155248 186.581 0.429833 185.827 0.889605C183.995 1.99433 182.539 3.84619 181.191 5.46816C178.56 8.64824 175.77 11.5474 172.532 14.1272C169.416 16.6176 166.083 18.8398 162.743 21.0174C156.127 25.3277 149.327 29.5551 143.88 35.3597C137.89 41.7454 134.237 49.8361 131.287 57.9779C128.049 66.9179 124.837 76.0941 123.771 85.5769C123.752 85.743 123.809 85.8643 123.899 85.9473C123.477 88.0099 123.292 90.1172 123.381 92.2883L123.394 92.2947Z" fill="#A34E35"/>
<path d="M124.57 92.7678C124.634 92.7359 124.685 92.6848 124.73 92.6209C129.066 86.3757 132.022 79.345 135.867 72.806C140.177 64.2428 145.803 56.3565 153.197 50.1368C158.28 45.8583 164.085 42.6655 170.362 40.5007C173.772 39.3194 177.252 38.4062 180.765 37.6208C184.27 36.8417 187.795 35.986 191.32 35.3283C191.933 35.2134 191.786 34.2747 191.161 34.3704C189.092 34.7089 187.003 34.9068 184.928 35.2453C182.942 35.571 180.969 35.9669 179.009 36.4075C175.03 37.2887 171.084 38.3679 167.284 39.843C154.947 44.6259 145.068 53.898 137.98 64.9325C134.257 70.7371 131.307 77.0079 128.906 83.4638C129.468 81.3693 130.068 79.2748 130.72 77.2058C135.113 63.1955 141.652 49.6706 151.659 38.783C156.148 33.9043 161.314 29.5556 167.003 26.1201C169.826 24.4151 172.789 22.9273 175.854 21.6948C179.015 20.4241 182.265 19.5364 185.541 18.6424C186.218 18.4573 186.084 17.4802 185.369 17.5505C181.601 17.9272 177.885 19.1022 174.379 20.5007C170.835 21.9055 167.457 23.6871 164.245 25.737C152.259 33.3615 143.057 44.6578 136.588 57.193C132.98 64.179 130.215 71.58 127.993 79.1087C126.665 83.6234 125.515 88.1701 124.577 92.7678H124.57Z" fill="#51251D"/>
<path d="M110.832 123.398C111.202 126.406 113.035 129.624 115.704 131.323C117.786 136.202 123.277 139.26 128.558 138.36C129.721 140.563 132.064 142.14 134.587 142.211C137.026 142.281 139.286 141.048 140.666 139.094C142.473 140.799 144.995 141.674 147.486 141.374C149.976 141.061 152.154 139.573 153.495 137.492C156.362 138.858 159.848 138.673 162.498 136.821C164.982 135.078 166.349 132.019 166.196 129.018C170.538 128.896 174.593 126.285 176.375 122.268C177.243 120.301 177.543 118.092 177.281 115.965C177.154 114.912 176.854 113.922 176.477 112.939C176.247 112.325 176.094 111.783 176.4 111.17C176.624 110.716 176.988 110.32 177.262 109.905C178.412 108.2 179.025 106.131 179.018 104.075C179.018 103.022 178.878 102 178.571 100.997C178.252 99.9372 177.722 99.0304 177.198 98.0726C176.892 97.5106 176.649 96.9423 176.636 96.291C176.624 95.7226 176.739 95.1479 176.802 94.586C176.911 93.6281 176.885 92.6447 176.732 91.6869C176.426 89.8286 175.627 88.0662 174.523 86.5527C172.403 83.6409 168.999 81.5974 165.372 81.4761C164.855 78.7686 163.175 76.3931 160.966 74.7647C158.322 72.8235 154.989 72.0061 151.751 71.8848C150.327 71.8337 148.776 72.1593 147.518 71.342C146.33 70.5693 145.302 69.7456 143.929 69.3113C141.33 68.5003 138.578 68.8132 136.215 70.1415C135.538 70.5246 134.861 70.9716 134.095 71.1632C133.335 71.342 132.549 71.259 131.777 71.2845C130.532 71.3292 129.401 71.706 128.418 72.4723C126.528 73.941 125.519 76.227 123.98 78.015C122.428 79.803 120.474 81.2079 118.833 82.9193C118.028 83.7686 117.326 84.669 116.796 85.7098C116.228 86.8401 116.176 87.9448 115.94 89.1645C115.787 89.9563 115.206 90.365 114.644 90.8886C114.203 91.3037 113.788 91.7507 113.431 92.236C112.722 93.2003 112.192 94.3242 111.885 95.4864C111.355 97.4851 111.419 99.5413 112.147 101.444C111.413 102.817 111.304 104.873 111.208 106.099C110.979 109.005 110.825 111.91 110.749 114.816C110.672 117.645 110.48 120.582 110.819 123.405L110.832 123.398Z" fill="#BB6A42"/>
<path d="M152.307 88.6629C152.307 88.5799 152.326 88.3627 152.339 88.2989C152.352 88.235 152.377 88.1648 152.39 88.1009C152.294 88.5416 152.448 87.8583 152.435 87.903C152.582 87.4943 152.85 87.1111 153.105 86.7599C153.322 86.4662 153.552 86.1852 153.801 85.917C154.127 85.5722 154.453 85.2465 154.817 84.94C154.881 84.8889 154.932 84.8506 155.008 84.8059C155.155 84.7165 155.162 84.7165 155.008 84.8059C155.027 84.7931 155.047 84.7804 155.066 84.7676C155.149 84.7101 155.238 84.6527 155.321 84.6016C155.385 84.5633 155.442 84.5249 155.506 84.4866C155.787 84.3142 155.404 84.5505 155.583 84.4419C155.711 84.3653 155.838 84.3078 155.966 84.2695C156.247 84.1163 156.675 84.244 156.854 84.493C157.02 84.7165 157.052 84.9911 156.956 85.2401C156.905 85.4573 156.764 85.6488 156.643 85.834C156.598 85.8979 156.554 85.9617 156.509 86.032C156.483 86.0703 156.464 86.1086 156.432 86.1469C156.4 86.1916 156.4 86.1916 156.432 86.1469C156.407 86.198 156.375 86.2491 156.349 86.3002C156.151 86.6003 155.909 86.8813 155.692 87.1686C155.257 87.7497 154.868 88.3755 154.395 88.9247C154.223 89.129 154.006 89.3014 153.769 89.4355C153.782 89.4355 153.776 89.4356 153.75 89.4611C153.763 89.4803 153.571 89.5824 153.501 89.6143C153.297 89.7037 153.022 89.7357 152.805 89.6399C152.422 89.4739 152.23 89.0779 152.282 88.6756L152.307 88.6629Z" fill="#A04A30"/>
<path d="M159.271 95.9059C159.239 96.321 159.475 96.6083 159.82 96.7999C160.12 96.9659 160.401 96.8702 160.707 96.8255C160.861 96.7999 161.027 96.7871 161.161 96.7105C161.276 96.6977 161.391 96.6722 161.499 96.6211C161.857 96.4934 162.208 96.3274 162.559 96.1741C162.91 96.0209 163.255 95.8612 163.6 95.7016C163.836 95.593 164.066 95.4845 164.29 95.344C164.328 95.3184 164.366 95.2929 164.405 95.2673C164.584 95.0694 164.622 95.0375 164.507 95.1716C164.552 95.1524 164.583 95.1205 164.615 95.0885C164.622 95.0885 164.628 95.0758 164.635 95.0694C164.954 94.9417 165.101 94.5585 165.011 94.2456C164.922 93.9455 164.679 93.7986 164.392 93.7731C164.303 93.7348 164.207 93.7092 164.098 93.7028C164.079 93.7028 164.066 93.6965 164.041 93.6901C163.964 93.6709 163.894 93.6581 163.817 93.6518C163.562 93.639 163.294 93.6645 163.038 93.7028C162.553 93.7731 162.106 93.888 161.64 94.0349C161.193 94.1754 160.65 94.3478 160.28 94.6415C160.241 94.6799 160.209 94.7182 160.171 94.7501C160.114 94.782 160.056 94.8076 160.037 94.8203C159.928 94.8906 159.826 94.9864 159.743 95.0885C159.756 95.0758 159.743 95.0822 159.698 95.1205C159.615 95.1843 159.526 95.2673 159.462 95.3504C159.347 95.51 159.271 95.7271 159.258 95.9251L159.271 95.9059Z" fill="#A04A30"/>
<path d="M155.322 120.286C155.322 120.024 155.405 119.756 155.629 119.596C155.744 119.513 155.884 119.449 156.031 119.424C156.133 119.404 156.235 119.417 156.337 119.436C156.459 119.436 156.58 119.443 156.708 119.5C156.778 119.532 156.842 119.564 156.906 119.602C157.021 119.641 157.129 119.698 157.238 119.775C157.251 119.788 157.27 119.794 157.283 119.807C157.461 119.902 157.608 120.049 157.761 120.183C157.889 120.292 158.017 120.394 158.138 120.509C158.26 120.618 158.387 120.726 158.515 120.835C158.579 120.886 158.649 120.943 158.719 120.994C158.79 121.046 158.847 121.109 158.911 121.167C159.051 121.288 159.192 121.403 159.3 121.556C159.332 121.582 159.358 121.614 159.39 121.639C159.428 121.703 159.473 121.773 159.511 121.837C159.53 121.914 159.556 121.984 159.575 122.061C159.607 122.265 159.562 122.463 159.466 122.642C159.307 122.936 158.936 123.178 158.585 123.114C158.547 123.108 158.509 123.102 158.47 123.095C158.298 123.095 158.132 123.044 157.972 122.993C157.915 122.987 157.857 122.968 157.793 122.948C157.755 122.936 157.717 122.91 157.678 122.891C157.602 122.853 157.525 122.814 157.449 122.776C157.212 122.648 156.982 122.521 156.753 122.387C156.606 122.297 156.472 122.189 156.337 122.08C156.127 121.901 155.878 121.703 155.731 121.461C155.712 121.435 155.686 121.409 155.667 121.378C155.578 121.256 155.526 121.135 155.482 121.007C155.36 120.784 155.297 120.541 155.328 120.292L155.322 120.286Z" fill="#A04A30"/>
<path d="M151.26 121.382C151.682 121.254 152.122 121.458 152.307 121.854C152.691 122.672 153.061 123.483 153.284 124.364C153.387 124.766 153.489 125.168 153.533 125.577C153.565 125.839 153.572 126.101 153.546 126.363C153.54 126.471 153.527 126.586 153.514 126.695C153.47 126.995 153.336 127.167 153.131 127.378C152.844 127.665 152.359 127.595 152.052 127.397C151.867 127.282 151.746 127.11 151.669 126.912C151.637 126.803 151.605 126.695 151.573 126.592C151.573 126.624 151.579 126.65 151.586 126.682C151.541 126.573 151.503 126.465 151.477 126.35C151.445 126.235 151.445 126.241 151.477 126.369C151.433 126.222 151.394 126.082 151.362 125.935C151.279 125.532 151.222 125.117 151.139 124.715C150.973 123.923 150.864 123.125 150.647 122.346C150.532 121.931 150.883 121.484 151.26 121.375V121.382Z" fill="#A04A30"/>
<path d="M116.181 104.458C116.36 105.046 117.024 105.32 117.592 105.225C117.841 105.205 118.09 105.129 118.333 105.052C118.869 104.899 119.425 104.803 119.955 104.643C119.865 104.669 119.77 104.701 119.68 104.726C119.84 104.682 119.993 104.65 120.159 104.631C120.312 104.611 120.466 104.56 120.6 104.49C120.97 104.407 121.251 104.145 121.309 103.73C121.341 103.513 121.251 103.251 121.117 103.085C120.996 102.932 120.842 102.849 120.67 102.798C120.536 102.715 120.389 102.645 120.217 102.606C120.076 102.574 119.936 102.562 119.795 102.53L120.076 102.594C119.77 102.517 119.501 102.453 119.189 102.453C118.901 102.453 118.608 102.453 118.327 102.498C118.116 102.53 117.905 102.581 117.694 102.638C117.496 102.689 117.311 102.747 117.126 102.83C117.088 102.849 117.049 102.862 117.017 102.881C116.903 102.938 116.807 103.002 116.724 103.079C116.583 103.168 116.462 103.271 116.366 103.417C116.168 103.724 116.079 104.107 116.187 104.458H116.181Z" fill="#A04A30"/>
<path d="M124.673 87.832C125.081 87.5318 125.611 87.5893 125.943 87.9725C126.243 88.3109 126.537 88.6493 126.837 88.9814C126.984 89.1474 127.112 89.3262 127.252 89.4986C127.361 89.6391 127.444 89.7924 127.533 89.9456C127.623 90.0989 127.674 90.2585 127.725 90.431C127.706 90.3607 127.68 90.2841 127.661 90.2138C127.706 90.3096 127.751 90.3926 127.776 90.4948C127.802 90.5778 127.802 90.6608 127.808 90.7375C127.834 90.8205 127.853 90.9035 127.865 90.9929C127.929 91.4527 127.482 91.8422 127.035 91.6698C126.952 91.6379 126.869 91.5995 126.793 91.5548C126.748 91.5485 126.71 91.5421 126.665 91.5293C126.518 91.4718 126.461 91.408 126.352 91.325C126.301 91.2866 126.243 91.2547 126.192 91.2164C126.109 91.1525 126.026 91.0568 125.943 90.9737C125.752 90.7886 125.592 90.5842 125.426 90.3799C125.266 90.1819 125.132 89.9584 124.986 89.7541C124.832 89.537 124.685 89.3262 124.532 89.1091C124.398 88.9175 124.315 88.694 124.341 88.4578C124.36 88.2343 124.494 87.9725 124.673 87.8384V87.832Z" fill="#A04A30"/>
<path d="M110.184 107.93C110.184 107.93 97.6237 123.057 97.9111 124.775C98.1985 126.487 109.616 147.042 109.616 147.042C109.616 147.042 121.321 127.63 121.034 124.488C120.746 121.346 110.184 107.93 110.184 107.93Z" fill="#3E1E0B"/>
<path d="M104.136 67.6268C103.702 66.5668 103.242 65.5131 102.674 64.5233C102.405 64.0572 102.124 63.591 101.811 63.1504C101.486 62.697 101.032 62.3777 100.694 61.9563C100.1 61.2155 98.7399 61.8541 99.1678 62.7928C99.3849 63.2717 99.4487 63.8401 99.6531 64.3318C99.8574 64.8299 100.087 65.3279 100.298 65.8196C100.707 66.7583 101.154 67.6715 101.53 68.623C102.316 70.577 102.942 72.6076 104.078 74.3956C104.41 74.9193 105.304 74.683 105.375 74.0827C105.637 71.8541 104.966 69.6638 104.129 67.6204L104.136 67.6268Z" fill="#BB6A42"/>
<path d="M112.739 66.4423C112.656 65.1332 112.624 63.8177 112.631 62.5023C112.637 61.1996 112.822 59.7117 112.145 58.5495C111.839 58.0195 111.002 58.0834 110.664 58.5176C109.834 59.5776 109.904 61.2124 109.885 62.4959C109.859 63.8561 109.885 65.2162 109.955 66.5764C110.095 69.2903 110.536 72.0234 111.679 74.501C111.928 75.0438 112.918 75.0885 112.956 74.3669C113.122 71.7233 112.905 69.0796 112.745 66.4359L112.739 66.4423Z" fill="#BB6A42"/>
<path d="M123.028 62.6329C122.6 62.9841 122.134 63.2843 121.744 63.6993C121.38 64.0825 121.067 64.5167 120.755 64.9446C120.11 65.8449 119.541 66.8092 119.011 67.7862C118.52 68.693 118.053 69.6189 117.715 70.5895C117.523 71.1323 117.364 71.6751 117.249 72.237C117.147 72.7351 117.019 73.246 117.108 73.7441C117.102 73.9229 117.096 74.0953 117.102 74.2741C117.127 74.8807 118.015 75.1489 118.366 74.6508C118.462 74.5103 118.552 74.3635 118.641 74.2166C118.96 73.9037 119.165 73.4631 119.369 73.0672C119.592 72.6202 119.822 72.1796 120.039 71.7262C120.48 70.7939 120.901 69.8552 121.387 68.942C121.834 68.0991 122.325 67.2881 122.836 66.4835C123.117 66.0429 123.405 65.6087 123.679 65.1617C123.96 64.7019 124.139 64.1847 124.388 63.7185C124.809 62.9331 123.718 62.0838 123.047 62.6393L123.028 62.6329Z" fill="#BB6A42"/>
<path d="M192.45 154.932C189.059 154.791 185.777 153.399 183.395 151.024C183.682 153.323 183.689 155.641 183.382 157.965C183.012 160.762 182.316 164.044 180.528 166.324C178.848 168.47 175.988 168.91 173.497 168.067C171.332 167.339 169.678 165.775 168.203 164.07C168.063 166.388 167.609 168.68 166.824 170.877C165.975 173.265 164.749 176.152 162.616 177.684C160.553 179.159 157.724 178.783 155.675 177.493C153.746 176.279 152.526 174.402 151.428 172.461C150.553 174.906 149.678 177.346 148.765 179.779C147.993 181.854 146.613 183.783 144.155 183.661C141.894 183.553 139.883 181.931 138.401 180.36C136.626 178.489 135.093 176.375 133.484 174.351C131.319 178.783 130.598 184.14 126.249 187.122C124.557 188.284 122.482 188.776 120.464 188.329C118.414 187.882 116.683 186.573 115.208 185.13C114.423 184.364 113.695 183.54 112.967 182.71C112.271 181.912 111.537 180.749 110.54 180.309C109.397 179.811 108.446 180.845 108.018 181.809C107.533 182.895 107.52 184.14 107.175 185.27C106.007 189.089 101.773 190.041 98.3628 188.648C94.5505 187.084 92.903 182.825 91.6642 179.153C91.0639 179.479 90.7127 180.2 90.419 180.807C89.9911 181.669 89.6208 182.55 89.0461 183.329C87.8008 185.009 85.6616 185.449 83.7076 184.951C78.4713 183.61 77.5645 178.074 74.9719 174.127C73.1073 174.019 71.811 176.324 70.7574 177.556C69.2695 179.3 67.4177 180.609 65.0102 180.251C59.4355 179.415 58.3308 173.246 56.7216 168.891C55.9106 166.707 54.5377 164.274 52.2133 163.457C49.5377 162.505 46.6513 164.166 43.9118 163.993C41.0766 163.821 38.5734 162.365 36.6641 160.321C36.862 159.747 37.0408 159.172 37.2132 158.591C38.1392 159.747 39.2758 160.724 40.6104 161.42C42.0025 162.148 43.5479 162.505 45.1124 162.371C47.0408 162.212 48.8927 161.484 50.8403 161.573C54.1865 161.733 56.447 164.332 57.7625 167.192C59.1929 170.296 59.4547 174.242 61.9323 176.784C62.9924 177.876 64.4994 178.77 66.0703 178.687C67.456 178.61 68.4649 177.678 69.3397 176.701C70.834 175.04 72.3857 172.493 74.9272 172.588C75.7893 172.62 76.0639 172.978 76.5109 173.693C76.9771 174.434 77.3666 175.213 77.7433 176.005C78.5096 177.614 79.1993 179.274 80.2274 180.737C81.645 182.735 85.304 184.945 87.4943 182.754C89.1929 181.062 89.2121 177.716 92.1304 177.454C92.4624 177.429 92.7945 177.678 92.8903 177.984C94.161 181.924 95.949 187.129 100.719 187.71C102.296 187.901 104.116 187.505 105.1 186.158C106.358 184.434 105.975 182.014 107.271 180.258C108.376 178.763 110.215 178.278 111.766 179.408C112.667 180.066 113.356 181.011 114.091 181.835C114.736 182.563 115.387 183.272 116.083 183.942C117.52 185.334 119.219 186.675 121.256 186.95C123.242 187.218 125.113 186.33 126.511 184.97C129.864 181.701 130.496 176.739 132.756 172.793C133.024 172.32 133.599 172.327 133.925 172.729C135.592 174.791 137.245 176.905 139.008 178.885C140.266 180.302 142.06 181.995 144.053 182.167C146.466 182.378 147.194 179.708 147.858 177.914C148.778 175.424 149.717 172.933 150.643 170.443C150.821 169.964 151.62 169.932 151.856 170.379C152.935 172.41 154.155 174.593 156.058 175.966C157.865 177.275 160.502 177.697 162.233 176.043C163.906 174.434 164.94 171.86 165.649 169.689C166.447 167.256 166.837 164.728 166.818 162.173C166.818 161.439 167.692 161.209 168.127 161.752C169.672 163.712 171.447 165.883 173.919 166.694C176.262 167.461 178.631 166.841 179.876 164.632C181.16 162.378 181.728 159.574 182.022 157.02C182.329 154.274 182.188 151.426 181.588 148.725C181.415 147.978 182.38 147.429 182.839 148.125C185.521 152.186 190.885 154.306 195.598 152.914C196.722 152.582 197.776 152.065 198.721 151.401C199.04 151.873 199.366 152.358 199.698 152.825C197.578 154.242 195.068 155.021 192.437 154.913L192.45 154.932Z" fill="#A34E35"/>
<path d="M295.602 382.836C290.966 387.472 277.627 366.406 277.192 365.729C277.595 366.719 293.776 406.808 284.894 405.965C275.896 405.11 253.208 367.428 253.208 367.428C253.208 367.428 269.051 403.826 260.915 402.97C252.856 402.115 225.902 366.419 225.379 365.723C225.634 366.285 235.174 387.568 231.796 388.839C228.38 390.116 204.07 369.235 186.522 344.892C186.483 344.835 186.445 344.784 186.4 344.726C168.846 320.32 143.156 273.641 143.156 273.641L265.621 300.62C265.621 300.62 280.085 332.945 289.063 357.108C293.993 370.365 297.269 381.17 295.602 382.836Z" fill="#DDA76E"/>
<path d="M291.701 333.044C291.586 334.2 291.324 334.973 290.89 335.305C288.655 337.023 285.239 332.176 281.963 325.765C283.859 330.694 285.551 335.503 286.477 339.111C286.918 340.822 287.186 342.265 287.218 343.313C287.244 343.926 287.186 344.398 287.039 344.724C286.228 346.512 280.513 343.198 273.719 338.402C278.087 341.984 281.599 345.03 282.754 346.435C283.565 347.425 283.859 348.172 283.514 348.619C283.074 349.181 281.624 349.27 278.898 348.798C273.406 347.853 262.723 344.628 244.645 338.3C210.385 326.307 173.987 296.767 172.703 296.333L184.887 288.472L186.005 287.75L202.939 276.825L205.008 275.49L223.821 263.351L225.194 262.463L240.717 252.444L242.71 251.154L252.92 244.564L254.146 243.772L259.625 240.234C271.611 252.214 288.808 305.95 291.426 326.997C291.739 329.526 291.841 331.582 291.701 333.038V333.044Z" fill="#803923"/>
<path d="M275.158 338.985C273.466 337.74 271.678 336.635 269.98 335.397C268.351 334.222 266.729 333.034 265.133 331.814C261.908 329.349 258.709 326.846 255.548 324.292C244.245 315.141 233.243 305.639 222.572 295.76C217.253 290.837 212.017 285.831 206.857 280.735C205.548 279.439 204.232 278.142 202.93 276.827L204.999 275.492C206.806 277.28 208.613 279.075 210.433 280.856C220.784 291.009 231.467 300.812 242.413 310.32C247.879 315.071 253.441 319.72 259.041 324.324C261.812 326.603 264.584 328.864 267.374 331.105C268.798 332.261 270.203 333.436 271.621 334.605C273.038 335.767 274.373 337.031 275.816 338.162C276.353 338.583 275.695 339.394 275.152 338.992L275.158 338.985Z" fill="#A34E35"/>
<path d="M281.694 328.008C279.702 325.026 277.972 321.846 276.228 318.704C274.53 315.626 272.806 312.555 271.12 309.464C265.028 298.283 259.044 287.038 253.061 275.792C250.085 270.198 247.103 264.598 244.134 258.998C242.978 256.82 241.841 254.636 240.711 252.446L242.703 251.156C244.281 254.043 245.839 256.942 247.39 259.847C253.374 271.08 259.364 282.306 265.283 293.57C268.233 299.183 271.196 304.777 274.076 310.416C275.526 313.257 276.969 316.099 278.419 318.934C279.862 321.763 281.305 324.617 282.512 327.555C282.71 328.04 281.995 328.436 281.701 327.996L281.694 328.008Z" fill="#A34E35"/>
<path d="M287.218 343.318C285.915 341.703 284.606 340.087 283.303 338.471C276.949 330.623 270.608 322.75 264.306 314.857C258.035 306.99 251.796 299.11 245.57 291.211C239.318 283.28 233.086 275.33 226.892 267.347C225.864 266.019 224.836 264.691 223.82 263.356L225.193 262.469C226.988 264.742 228.782 267.015 230.57 269.295C236.822 277.233 243.073 285.17 249.37 293.069C255.634 300.943 261.93 308.791 268.246 316.613C274.306 324.123 280.379 331.632 286.477 339.11C286.918 340.821 287.186 342.265 287.218 343.312V343.318Z" fill="#A34E35"/>
<path d="M283.509 348.626C283.068 349.188 281.619 349.278 278.892 348.805C274.281 346.538 269.722 344.176 265.188 341.768C257.608 337.745 250.156 333.486 242.781 329.08C235.45 324.693 228.215 320.14 221.114 315.389C213.975 310.612 206.97 305.657 200.105 300.51C194.92 296.628 189.862 292.605 184.875 288.479L185.992 287.758C191.829 292.228 197.704 296.64 203.681 300.925C210.622 305.906 217.666 310.746 224.824 315.414C231.976 320.076 239.224 324.61 246.593 328.907C253.968 333.211 261.446 337.343 269.007 341.308C272.806 343.301 276.631 345.255 280.482 347.151C281.484 347.649 282.493 348.135 283.496 348.62L283.509 348.626Z" fill="#A34E35"/>
<path d="M291.696 333.046C290.438 330.127 289.186 327.216 287.935 324.297C281.045 308.244 274.065 292.228 267.015 276.245C263.465 268.218 259.876 260.204 256.3 252.19C255.163 249.655 254.039 247.113 252.922 244.565L254.148 243.773C255.891 247.362 257.622 250.957 259.327 254.578C266.772 270.389 273.924 286.341 280.885 302.369C284.442 310.555 287.992 318.754 291.428 327.005C291.741 329.534 291.843 331.59 291.702 333.046H291.696Z" fill="#A34E35"/>
<path d="M275.473 263.796C272.9 277.065 262.625 260.373 262.625 260.373C262.625 260.373 268.193 283.495 260.914 286.063C253.628 288.636 229.649 274.504 229.649 274.504C229.649 274.504 236.501 296.771 226.654 303.617C216.801 310.469 197.101 292.487 197.101 292.487C197.101 292.487 201.386 306.19 197.101 311.752C193.985 315.807 154.521 298.515 133.474 271.446C132.644 270.373 131.833 269.281 131.06 268.183C124.56 258.904 120.345 248.591 120.447 237.678C120.875 192.716 148.755 179.779 148.755 179.779C188.564 147.722 222.721 170.079 245.518 199.894C245.99 200.507 246.456 201.133 246.916 201.752C265.939 227.397 276.635 257.755 275.467 263.796H275.473Z" fill="#A34E35"/>
<path d="M233.953 197.938C227.899 194.943 222.145 191.284 216.692 187.255C219.636 191.073 222.382 195.039 224.681 199.292C227.612 204.707 229.776 210.62 230.262 216.795C230.377 218.289 230.434 219.835 230.3 221.335C230.179 222.689 229.63 224.043 228.32 224.643C227.024 225.25 225.543 224.93 224.24 224.515C222.924 224.1 221.635 223.558 220.389 222.944C213.806 219.669 208.793 214.285 204.521 208.353C205.824 211.718 206.871 215.186 207.592 218.743C208.269 222.095 208.64 225.505 208.601 228.922C208.576 231.872 208.371 234.905 207.311 237.683C206.328 240.263 204.425 242.517 201.692 243.289C198.672 244.145 195.472 243.264 192.714 241.961C189.885 240.633 187.228 238.845 184.725 236.98C182.248 235.141 179.91 233.123 177.733 230.933C175.568 228.749 173.569 226.431 171.743 223.973C173.288 228.321 174.463 232.798 175.249 237.344C175.836 240.697 176.207 244.088 176.36 247.478C176.494 250.435 176.743 253.794 175.159 256.431C172.196 261.367 165.37 260.052 161.213 257.632C155.696 254.426 151.481 249.203 147.72 244.158C144.591 239.962 141.82 235.524 139.361 230.914C140.153 237.415 140.542 243.941 140.517 250.492C140.498 253.992 140.364 257.485 140.115 260.978C139.987 262.759 139.827 264.535 139.642 266.316C139.489 267.759 139.323 269.311 138.295 270.435C137.018 271.84 135.159 271.936 133.461 271.438C132.631 270.365 131.82 269.273 131.047 268.174C131.788 268.8 132.611 269.33 133.556 269.694C134.431 270.033 135.536 270.256 136.411 269.803C137.586 269.203 137.777 267.772 137.912 266.597C139.425 253.411 139.144 239.982 137.324 226.833C137.203 225.971 138.41 225.786 138.742 226.501C141.775 232.945 145.581 239.03 149.949 244.643C153.601 249.337 157.701 254.266 163.154 256.923C165.287 257.964 167.79 258.564 170.147 258.098C172.809 257.581 174.316 255.524 174.706 252.919C175.153 249.892 174.789 246.642 174.502 243.615C174.189 240.454 173.697 237.312 173.027 234.203C171.666 227.932 169.521 221.827 166.705 216.061C166.251 215.135 167.714 214.618 168.186 215.499C171.277 221.265 175.325 226.52 180.083 231.003C182.184 232.983 184.425 234.816 186.781 236.482C189.163 238.168 191.679 239.803 194.4 240.914C197.018 241.98 200.249 242.632 202.79 241.01C204.968 239.618 205.97 237.089 206.456 234.656C207.037 231.718 207.05 228.641 206.852 225.658C206.635 222.408 206.092 219.171 205.268 216.022C203.633 209.745 201.002 203.755 197.848 198.098C197.337 197.191 198.62 196.195 199.182 197.114C202.337 202.268 205.581 207.408 209.527 211.993C212.918 215.927 216.916 219.458 221.654 221.674C223.276 222.434 227.714 224.758 228.461 221.904C228.806 220.575 228.659 219.036 228.582 217.683C228.499 216.233 228.314 214.784 228.052 213.353C225.894 201.655 218.295 191.674 210.894 182.721C210.281 181.974 211.366 180.978 212.088 181.571C215.849 184.656 219.789 187.517 223.882 190.135C227.509 192.453 231.258 194.662 235.134 196.533C238.403 198.117 241.877 199.445 245.504 199.886C245.977 200.499 246.443 201.125 246.903 201.744C242.439 201.514 237.937 199.911 233.933 197.932L233.953 197.938Z" fill="#803923"/>
<path d="M295.604 382.837C290.968 387.473 277.628 366.406 277.194 365.73C277.596 366.719 293.778 406.809 284.895 405.966C275.898 405.11 253.209 367.428 253.209 367.428C253.209 367.428 269.052 403.827 260.917 402.971C252.858 402.115 225.904 366.419 225.38 365.723C225.636 366.285 235.176 387.569 231.798 388.84C228.382 390.117 204.071 369.235 186.523 344.893C195.451 352.134 210.151 363.705 213.382 363.999C218.037 364.421 211.817 341.413 211.677 340.883C212.29 341.572 236.575 368.712 242.073 369.133C247.571 369.555 238.446 343.648 238.222 343.022C238.714 343.558 263.101 370.404 267.335 368.699C271.619 366.988 267.335 345.576 267.335 345.576C267.335 345.576 278.893 363.131 285.751 360.991C287.156 360.551 288.235 359.114 289.059 357.103C293.989 370.359 297.264 381.164 295.598 382.831L295.604 382.837Z" fill="#BB6A42"/>
<path d="M199.861 256.13C199.848 255.983 199.797 255.856 199.733 255.728C199.72 255.67 199.701 255.607 199.675 255.543C199.624 255.409 199.548 255.274 199.465 255.153C199.394 255.045 199.318 254.936 199.248 254.827C199.126 254.649 199.011 254.47 198.903 254.285C198.698 253.882 198.513 253.461 198.354 253.039C198.149 252.471 197.517 252.171 196.949 252.305C196.387 252.439 195.94 252.988 196.016 253.589C196.099 254.221 196.285 254.827 196.585 255.396C196.751 255.709 196.923 256.028 197.14 256.315C197.396 256.66 197.741 257.037 198.168 257.165C198.309 257.248 198.456 257.312 198.622 257.337C198.635 257.337 198.647 257.337 198.66 257.337C198.82 257.395 198.973 257.42 199.152 257.401C199.822 257.318 200.052 256.692 199.867 256.13H199.861Z" fill="#A04A30"/>
<path d="M211.533 262.687C211.533 262.687 211.52 262.611 211.513 262.579C211.507 262.489 211.494 262.406 211.469 262.317C211.379 261.953 211.181 261.704 210.92 261.436C210.996 261.512 211.066 261.589 211.143 261.665C210.932 261.448 210.728 261.218 210.517 261.001C210.594 261.078 210.664 261.155 210.741 261.231C210.338 260.81 209.975 260.356 209.598 259.909C209.413 259.692 209.24 259.469 209.055 259.245C208.966 259.137 208.87 259.028 208.787 258.913C208.71 258.811 208.621 258.715 208.531 258.626C208.506 258.607 208.487 258.588 208.461 258.568C208.212 258.287 207.81 258.121 207.446 258.281C207.299 258.345 207.178 258.434 207.069 258.556C206.941 258.696 206.833 259.003 206.877 259.194C206.897 259.277 207.012 259.616 206.929 259.43C206.877 259.309 206.922 259.456 206.929 259.494C206.954 259.66 207.005 259.814 207.069 259.967C207.146 260.158 207.216 260.35 207.305 260.535C207.529 260.995 207.778 261.436 208.065 261.851C208.327 262.227 208.621 262.579 208.94 262.911C209.112 263.089 209.285 263.287 209.483 263.428C209.694 263.575 209.949 263.702 210.204 263.722C210.243 263.722 210.281 263.722 210.313 263.722C210.402 263.741 210.485 263.734 210.575 263.722C210.837 263.76 211.092 263.722 211.316 263.505C211.475 263.351 211.558 263.153 211.565 262.936C211.565 262.815 211.565 262.783 211.533 262.662V262.687Z" fill="#A04A30"/>
<path d="M216.609 264.227C216.609 264.227 216.629 264.227 216.641 264.233C216.641 264.233 216.635 264.233 216.629 264.233C216.622 264.233 216.616 264.233 216.609 264.233V264.227Z" fill="#A04A30"/>
<path d="M217.997 263.272C217.997 263.189 217.997 263.067 217.997 263.029C217.984 262.773 217.844 262.556 217.716 262.346C217.716 262.333 217.703 262.32 217.691 262.288C217.633 262.173 217.569 262.052 217.493 261.943C217.161 261.464 216.733 261.037 216.33 260.621C215.986 260.27 215.615 259.945 215.239 259.625C215.028 259.446 214.792 259.287 214.555 259.14C214.511 259.114 214.485 259.095 214.466 259.083C214.421 259.051 214.37 259.019 214.325 258.987C214.21 258.91 214.095 258.833 213.981 258.757C213.572 258.489 212.978 258.463 212.659 258.904C212.333 259.351 212.429 259.855 212.806 260.226C212.895 260.315 212.984 260.398 213.067 260.487C213.074 260.494 213.106 260.526 213.131 260.551C213.042 260.462 213.176 260.621 213.182 260.628C213.329 260.819 213.502 260.998 213.668 261.177C214 261.528 214.306 261.892 214.619 262.256C214.932 262.62 215.226 263.01 215.545 263.367C215.641 263.476 215.73 263.584 215.839 263.674C215.858 263.687 215.871 263.699 215.883 263.712C215.871 263.693 215.852 263.667 215.82 263.629C215.954 263.833 216.19 264.063 216.42 264.153C216.471 264.172 216.541 264.197 216.611 264.217C216.471 264.166 216.388 264.07 216.541 264.172C216.573 264.191 216.599 264.204 216.631 264.217C216.669 264.223 216.714 264.236 216.746 264.236C216.707 264.236 216.675 264.236 216.637 264.223C216.797 264.312 216.95 264.37 217.141 264.402C217.55 264.466 217.908 264.185 217.991 263.789C218.029 263.604 218.023 263.438 217.991 263.259L217.997 263.272Z" fill="#A04A30"/>
<path d="M215.883 263.727C215.915 263.758 215.921 263.778 215.883 263.727V263.727Z" fill="#A04A30"/>
<path d="M157.462 280.616C157.551 279.901 156.9 279.032 156.587 278.49C156.427 278.209 156.249 277.941 156.07 277.672C155.897 277.404 155.744 277.142 155.527 276.932C155.201 276.523 154.927 276.082 154.633 275.648C154.371 275.259 153.816 275.176 153.42 275.386C153.043 275.591 152.781 276.127 152.985 276.548C153.222 277.021 153.471 277.481 153.662 277.972C153.688 278.094 153.733 278.215 153.796 278.343C153.873 278.49 153.95 278.643 154.026 278.79C154.218 279.16 154.403 279.531 154.614 279.888C154.78 280.182 154.94 280.488 155.125 280.763C155.246 280.942 155.399 281.121 155.559 281.267C155.655 281.35 155.751 281.414 155.853 281.459C155.872 281.478 155.891 281.497 155.91 281.51C156.53 281.995 157.583 281.51 157.462 280.674C157.462 280.654 157.455 280.635 157.449 280.616H157.462Z" fill="#A04A30"/>
<path d="M182.886 178.776C182.528 178.329 182.151 177.889 181.768 177.467C181.347 177.007 180.932 176.541 180.485 176.107C180.287 175.909 180.089 175.698 179.872 175.519C179.578 175.29 179.431 175.226 179.131 175.015C178.844 174.817 178.48 174.785 178.192 174.996C177.93 175.187 177.79 175.59 177.93 175.896C177.982 176.011 178.045 176.126 178.09 176.247C178.135 176.35 178.16 176.439 178.211 176.541C178.205 176.522 178.269 176.65 178.301 176.707C178.263 176.656 178.275 176.682 178.352 176.803C178.377 176.86 178.409 176.912 178.448 176.963C178.486 177.02 178.524 177.078 178.556 177.135C178.639 177.263 178.722 177.39 178.812 177.512C179.137 177.984 179.489 178.438 179.84 178.891C180.185 179.332 180.542 179.76 180.906 180.175C181.143 180.443 181.385 180.705 181.641 180.947C181.883 181.171 182.183 181.445 182.496 181.541C182.841 181.643 183.16 181.663 183.467 181.439C183.735 181.241 183.895 180.896 183.856 180.564C183.78 179.9 183.294 179.287 182.886 178.776Z" fill="#A04A30"/>
<path d="M189.667 180.102C189.718 179.834 189.609 179.617 189.52 179.38C189.392 179.048 189.239 178.748 189.022 178.461C188.639 177.969 188.211 177.522 187.77 177.082C187.381 176.686 186.959 176.347 186.525 176.009C186.27 175.804 186.002 175.619 185.733 175.434C185.701 175.415 185.644 175.357 185.701 175.409C185.644 175.364 185.586 175.326 185.529 175.281C185.401 175.185 185.28 175.096 185.152 175.006C184.852 174.789 184.45 174.796 184.182 175.057C183.945 175.287 183.837 175.76 184.092 176.028C184.846 176.826 185.478 177.72 186.168 178.569C186.506 178.985 186.832 179.412 187.177 179.827C187.311 179.994 187.445 180.153 187.604 180.294C187.726 180.409 187.93 180.613 188.09 180.638C188.013 180.626 187.962 180.568 188.058 180.651C188.16 180.747 188.32 180.817 188.454 180.862C188.473 180.862 188.486 180.868 188.498 180.875C188.498 180.875 188.511 180.888 188.543 180.907C188.639 180.958 188.754 180.977 188.862 181.002C189.22 181.085 189.648 180.779 189.686 180.415C189.693 180.319 189.705 180.217 189.699 180.121C189.686 180 189.699 180 189.673 180.115L189.667 180.102Z" fill="#A04A30"/>
<path d="M155.065 193.011C155.039 192.972 155.02 192.928 154.994 192.889C154.994 192.889 154.994 192.883 154.994 192.87C154.982 192.691 154.822 192.513 154.713 192.378C154.388 191.957 154.011 191.58 153.634 191.21C152.951 190.552 152.229 189.939 151.463 189.39C151.086 189.115 150.505 189.128 150.211 189.53C149.924 189.926 149.962 190.469 150.352 190.782C150.703 191.069 151.048 191.376 151.38 191.689C151.54 191.842 151.693 192.046 151.872 192.168C151.853 192.155 151.853 192.155 151.84 192.149C151.859 192.161 151.872 192.174 151.885 192.193C151.916 192.225 151.948 192.257 151.974 192.295C152.057 192.385 152.14 192.481 152.223 192.576C152.523 192.921 152.81 193.272 153.111 193.617C153.27 193.803 153.417 193.962 153.634 194.071C153.615 194.064 153.602 194.052 153.577 194.039L153.628 194.083C153.66 194.128 153.711 194.16 153.749 194.198C153.953 194.403 154.12 194.588 154.394 194.703C154.931 194.92 155.467 194.518 155.441 193.949C155.422 193.592 155.243 193.324 155.071 193.023L155.065 193.011Z" fill="#A04A30"/>
<path d="M151.83 192.146C151.747 192.088 151.785 192.107 151.83 192.146V192.146Z" fill="#A04A30"/>
<path d="M248.035 228.476C248.035 228.476 248.035 228.47 248.029 228.463C247.997 228.444 248.118 228.559 248.035 228.476Z" fill="#A04A30"/>
<path d="M252.961 232.202C252.949 232.138 252.936 232.08 252.917 232.016C252.872 231.85 252.865 231.825 252.904 231.933C252.929 232.01 252.929 232.016 252.917 231.959C252.897 231.838 252.872 231.723 252.834 231.608C252.814 231.55 252.795 231.493 252.776 231.442C252.661 231.122 252.463 230.809 252.278 230.516C251.991 230.062 251.684 229.622 251.346 229.2C250.975 228.74 250.579 228.306 250.158 227.891C249.973 227.706 249.775 227.527 249.564 227.368C249.456 227.285 249.36 227.202 249.258 227.118C249.175 227.055 249.079 227.004 248.989 226.946C249.111 227.035 248.9 226.857 248.9 226.857C248.581 226.595 248.108 226.633 247.814 226.908C247.514 227.195 247.482 227.649 247.719 227.987C247.744 228.025 247.77 228.064 247.795 228.096C247.795 228.096 247.91 228.306 247.923 228.332C247.948 228.376 247.98 228.428 248.012 228.472C248.012 228.472 248.012 228.472 248.032 228.485C248.127 228.555 248.236 228.855 248.325 228.983C248.389 229.085 248.364 229.047 248.325 228.964C248.395 229.098 248.459 229.207 248.536 229.328C248.823 229.769 249.104 230.209 249.385 230.65C249.653 231.084 249.934 231.505 250.196 231.946C250.33 232.176 250.464 232.412 250.637 232.617C250.86 232.885 251.18 233.249 251.524 233.364C252.182 233.587 252.776 233.274 252.949 232.597C252.98 232.47 252.987 232.336 252.968 232.208L252.961 232.202Z" fill="#A04A30"/>
<path d="M258.576 233.679C258.352 233.091 257.956 232.529 257.605 232.006C257.286 231.54 256.979 231.067 256.673 230.595C256.341 230.096 255.983 229.72 255.651 229.247C255.313 228.768 254.955 228.315 254.629 227.829C254.432 227.529 253.997 227.459 253.697 227.632C253.416 227.791 253.193 228.2 253.365 228.526C253.64 229.036 253.876 229.56 254.138 230.077C254.419 230.626 254.636 231.195 254.93 231.738C255.07 231.993 255.211 232.255 255.357 232.51C255.415 232.612 255.472 232.715 255.53 232.817C255.549 232.849 255.689 233.104 255.689 233.104C255.977 233.653 256.271 234.254 256.679 234.72C257.043 235.135 257.58 235.294 258.084 235.02C258.557 234.764 258.78 234.19 258.589 233.672L258.576 233.679Z" fill="#A04A30"/>
<path d="M237.666 212.566C237.634 212.458 237.608 212.349 237.57 212.241C237.557 212.209 237.544 212.094 237.544 212.17C237.525 212.087 237.506 212.004 237.487 211.915C237.41 211.647 237.282 211.379 237.148 211.142C237.091 211.04 237.033 210.944 236.976 210.842C236.95 210.797 236.925 210.753 236.899 210.708C237.11 211.021 236.842 210.593 236.81 210.542C236.689 210.35 236.535 210.178 236.388 210.006C236.069 209.623 235.718 209.265 235.36 208.914C235.418 208.971 235.437 208.997 235.373 208.92C235.328 208.875 235.284 208.824 235.245 208.78C235.137 208.671 235.035 208.556 234.926 208.448C234.76 208.275 234.594 208.109 234.422 207.943C234.115 207.649 233.585 207.732 233.304 208.001C233.017 208.281 232.934 208.786 233.202 209.118C233.477 209.45 233.745 209.782 233.987 210.133C234.243 210.497 234.454 210.893 234.684 211.27C234.907 211.64 235.15 211.992 235.392 212.349C235.443 212.426 235.488 212.477 235.552 212.541C235.59 212.585 235.635 212.624 235.673 212.668C235.712 212.707 235.705 212.7 235.654 212.656C235.597 212.592 235.597 212.598 235.654 212.675C235.667 212.694 235.686 212.713 235.699 212.732C235.769 212.822 235.846 212.898 235.922 212.975C235.929 212.981 235.98 213.02 236.005 213.045C236.005 213.045 236.005 213.045 236.012 213.058C236.095 213.154 236.178 213.25 236.261 213.339C236.529 213.646 236.925 213.767 237.295 213.562C237.672 213.358 237.768 212.969 237.666 212.573V212.566Z" fill="#A04A30"/>
<path d="M258.327 271.282C258.353 270.771 258.078 270.28 257.784 269.871C257.574 269.577 257.357 269.29 257.12 269.015C256.839 268.702 256.552 268.402 256.233 268.134C256.099 268.019 255.977 267.898 255.85 267.783C255.792 267.732 255.747 267.7 255.677 267.655C255.562 267.585 255.543 267.572 255.62 267.623C255.671 267.655 255.677 267.661 255.639 267.623C255.581 267.553 255.486 267.489 255.415 267.432C255.096 267.157 254.598 267.208 254.304 267.489C254.017 267.764 253.934 268.274 254.202 268.6C254.247 268.651 254.285 268.702 254.33 268.753C254.362 268.798 254.477 268.971 254.355 268.753C254.457 268.932 254.553 269.066 254.675 269.226C254.713 269.277 254.751 269.335 254.789 269.386C254.789 269.392 254.796 269.398 254.802 269.405C254.802 269.418 254.802 269.411 254.815 269.43C254.86 269.526 254.904 269.615 254.968 269.698C255.007 269.756 255.039 269.807 255.077 269.865C255.351 270.286 255.613 270.72 255.856 271.154C256.067 271.544 256.297 271.94 256.68 272.163C256.775 272.253 256.878 272.323 256.993 272.374C257.082 272.444 257.171 272.502 257.274 272.553C257.727 272.764 258.193 272.451 258.302 271.997C258.327 271.895 258.327 271.799 258.327 271.697C258.359 271.55 258.353 271.41 258.327 271.269V271.282Z" fill="#A04A30"/>
<path d="M215.774 292.091C215.774 292.091 215.78 292.091 215.786 292.098C215.754 292.066 215.748 292.059 215.774 292.091Z" fill="#A04A30"/>
<path d="M217.68 291.154C217.597 290.88 217.437 290.624 217.271 290.395C217.016 290.037 216.735 289.705 216.435 289.386C215.796 288.709 215.062 288.128 214.327 287.559C213.951 287.272 213.35 287.298 213.057 287.7C212.756 288.115 212.82 288.632 213.197 288.971C213.267 289.034 213.338 289.098 213.408 289.162C213.421 289.169 213.44 289.188 213.465 289.207C213.465 289.213 213.472 289.22 213.491 289.232C213.625 289.386 213.765 289.526 213.899 289.673C214.161 289.967 214.385 290.286 214.634 290.593C214.87 290.893 215.094 291.206 215.323 291.512C215.387 291.595 215.451 291.684 215.509 291.768C215.534 291.799 215.56 291.838 215.579 291.87C215.636 291.953 215.726 292.017 215.79 292.093C215.873 292.125 215.943 292.285 216.039 292.349C216.128 292.412 216.224 292.464 216.32 292.508C216.383 292.54 216.454 292.559 216.518 292.572C216.569 292.598 216.613 292.623 216.664 292.642C217.099 292.802 217.641 292.585 217.712 292.08C217.724 291.978 217.737 291.87 217.724 291.761C217.724 291.748 217.731 291.736 217.737 291.723C217.776 291.525 217.737 291.34 217.686 291.148L217.68 291.154Z" fill="#A04A30"/>
<path d="M215.812 292.117C215.812 292.117 215.838 292.136 215.844 292.149C215.889 292.187 215.876 292.175 215.812 292.117Z" fill="#A04A30"/>
<path d="M215.809 292.12C215.809 292.114 215.796 292.1 215.789 292.094C215.796 292.1 215.802 292.107 215.816 292.12H215.809Z" fill="#A04A30"/>
<path d="M131.517 246.123C131.485 246.008 131.491 246.021 131.536 246.168C131.536 246.047 131.51 245.932 131.466 245.817L131.44 245.74C131.389 245.561 131.325 245.408 131.242 245.242C131.044 244.833 130.802 244.456 130.572 244.067C130.387 243.76 130.169 243.479 129.971 243.179C129.869 243.032 129.761 242.892 129.646 242.752C129.563 242.649 129.473 242.496 129.365 242.432C129.448 242.509 129.454 242.502 129.397 242.419C129.371 242.375 129.346 242.33 129.32 242.285C129.097 241.915 128.547 241.851 128.196 242.043C127.845 242.234 127.602 242.726 127.794 243.122C127.82 243.167 127.839 243.211 127.864 243.262C127.903 243.365 127.909 243.352 127.89 243.237C127.89 243.365 127.96 243.499 127.998 243.62C128.056 243.792 128.107 243.958 128.177 244.124C128.324 244.469 128.452 244.814 128.611 245.146C128.803 245.542 128.988 245.938 129.218 246.315C129.314 246.474 129.41 246.615 129.531 246.755L129.608 246.845C129.678 246.941 129.761 247.024 129.857 247.087C129.767 246.979 129.761 246.966 129.837 247.055C129.901 247.151 129.978 247.222 130.074 247.273C130.399 247.477 130.744 247.554 131.102 247.356C131.453 247.164 131.581 246.838 131.587 246.455C131.593 246.347 131.574 246.238 131.53 246.13L131.517 246.123Z" fill="#A04A30"/>
<path d="M152.086 118.491C158.161 112.417 158.161 102.568 152.086 96.4934C146.012 90.4189 136.163 90.4189 130.089 96.4934C124.014 102.568 124.014 112.417 130.089 118.491C136.163 124.565 146.012 124.565 152.086 118.491Z" fill="#A04A30"/>
<path d="M151.123 115.823C156.669 110.277 156.669 101.285 151.123 95.739C145.577 90.1929 136.584 90.1929 131.038 95.739C125.492 101.285 125.492 110.277 131.038 115.823C136.584 121.37 145.577 121.37 151.123 115.823Z" fill="#FDBF2B"/>
<path d="M144.954 111.653C148.197 108.41 148.197 103.153 144.954 99.9098C141.711 96.6672 136.454 96.6671 133.211 99.9098C129.969 103.153 129.969 108.41 133.211 111.653C136.454 114.895 141.711 114.895 144.954 111.653Z" fill="#21201F"/>
<path d="M136.442 102.399C137.689 101.152 137.689 99.1296 136.442 97.8825C135.195 96.6354 133.173 96.6354 131.926 97.8825C130.679 99.1296 130.679 101.152 131.926 102.399C133.173 103.646 135.195 103.646 136.442 102.399Z" fill="white"/>
</g>
</svg>
