<svg width="40" height="40" viewBox="0 0 40 40" fill="none" xmlns="http://www.w3.org/2000/svg">
<rect width="40" height="40" rx="20" fill="#FDB813"/>
<g clip-path="url(#clip0_29820_176039)">
<path d="M29.1226 18.686C28.6494 18.2127 27.8848 18.2132 27.411 18.6871L24.5564 21.5417C24.3966 21.7015 24.1455 21.7017 23.9859 21.542C23.8262 21.3824 23.8264 21.1314 23.9863 20.9715L28.5536 16.4042C29.0274 15.9303 29.0279 15.1658 28.5547 14.6926C28.0814 14.2194 27.3169 14.2199 26.8431 14.6937L22.2758 19.261C22.1159 19.4209 21.8649 19.421 21.7052 19.2614C21.5456 19.1017 21.5458 18.8507 21.7056 18.6909L26.8438 13.5527C27.3177 13.0788 27.3182 12.3143 26.845 11.841C26.3717 11.3678 25.6072 11.3683 25.1333 11.8422L20.0009 16.9747C19.841 17.1345 19.59 17.1347 19.4303 16.975C19.2707 16.8154 19.2708 16.5644 19.4307 16.4045L22.8505 12.9847C23.3243 12.5109 23.3248 11.7464 22.8516 11.2731C22.3783 10.7999 21.6138 10.8004 21.14 11.2743L14.6259 17.7884L13.6185 14.0977C13.4762 13.5786 13.0143 13.2194 12.478 13.2084C11.8047 13.1974 11.2453 13.7341 11.2448 14.4073L11.1769 22.2066C11.165 23.0738 11.501 23.9009 12.1168 24.5166L16.279 28.6788C17.539 29.9389 19.5815 29.9375 20.8432 28.6758L29.1215 20.3976C29.5953 19.9237 29.5958 19.1592 29.1226 18.686Z" fill="white"/>
</g>
<defs>
<clipPath id="clip0_29820_176039">
<rect width="24" height="24" fill="white" transform="translate(8 8)"/>
</clipPath>
</defs>
</svg>
