<svg width="40" height="40" viewBox="0 0 40 40" fill="none" xmlns="http://www.w3.org/2000/svg">
<rect width="40" height="40" rx="20" fill="#10A7B9"/>
<g clip-path="url(#clip0_29820_176031)">
<path d="M13.8793 14.6378L17.848 17.6176C18.034 17.7573 18.299 17.6238 18.299 17.3907V12.2913C18.299 12.1299 18.1648 11.9997 18.0041 12.0082C16.2959 12.097 14.7901 12.9539 13.8218 14.2415C13.728 14.3662 13.7546 14.5441 13.8793 14.6376V14.6378Z" fill="white"/>
<path d="M20 12.8028V20.1247C20 20.5087 19.5492 20.7281 19.2329 20.4985L13.3805 16.2471C13.1524 16.0815 12.8259 16.1436 12.6807 16.3819C11.9302 17.6139 11.4996 19.0519 11.5 20.5873C11.5012 25.1636 15.2927 28.8477 20 28.8477C24.6946 28.8477 28.5 25.1485 28.5 20.5851C28.5 16.0216 24.966 12.5924 20.5085 12.3368C20.2327 12.321 20 12.5344 20 12.8028Z" fill="white"/>
</g>
<defs>
<clipPath id="clip0_29820_176031">
<rect width="24" height="24" fill="white" transform="translate(8 8)"/>
</clipPath>
</defs>
</svg>
