<svg width="40" height="40" viewBox="0 0 40 40" fill="none" xmlns="http://www.w3.org/2000/svg">
<rect width="40" height="40" rx="20" fill="#6FA34A"/>
<path d="M19.6088 8.48804L15.8491 13.1877C15.5872 13.515 15.8203 14 16.2395 14H23.7589C24.1782 14 24.4112 13.515 24.1493 13.1877L20.3897 8.48804C20.1895 8.23784 19.8089 8.23784 19.6088 8.48804Z" fill="white"/>
<path d="M19.6053 11.5004L14.034 18.5911C13.7762 18.9192 14.01 19.4 14.4272 19.4H25.5697C25.9869 19.4 26.2206 18.9192 25.9629 18.5911L20.3916 11.5004C20.1914 11.2456 19.8055 11.2456 19.6053 11.5004Z" fill="white"/>
<path d="M19.608 15.0896L11.0483 25.7892C10.7864 26.1166 11.0195 26.6016 11.4387 26.6016H28.5581C28.9774 26.6016 29.2105 26.1166 28.9486 25.7892L20.3889 15.0896C20.1887 14.8394 19.8082 14.8394 19.608 15.0896Z" fill="white"/>
<rect x="18.7969" y="23" width="2.4" height="7.8" rx="1.2" fill="white"/>
</svg>
